<svg width="894" height="824" fill="none" xmlns="http://www.w3.org/2000/svg"><path d="M767.892 565.8c4.154 2.566 6.163 6.856 6.082 11.105-.081 4.534-2.498 9.001-7.141 11.295L374.888 781.166a12.8 12.8 0 0 1-12.381-.584l-225.072-138.88c-4.073-2.511-6.068-6.666-6.082-10.833-.014-4.616 2.403-9.232 7.154-11.567l391.945-192.979a12.803 12.803 0 0 1 12.381.597L767.892 565.8zM406.547 750.444l323.632-159.339-223.525-137.93-323.632 159.339 223.525 137.93z" fill="#FFB400"/><path d="M773.974 576.905c0 34.93-4.738 52.511-25.319 62.638L380.454 820.848a24.017 24.017 0 0 1-23.228-1.113l-200.568-123.77.014-.014c-19.861-12.327-25.319-30.152-25.319-65.082.014 4.168 2.009 8.322 6.082 10.833l225.072 138.88a12.8 12.8 0 0 0 12.381.584L766.833 588.2c4.643-2.294 7.06-6.76 7.141-11.295z" fill="#FF3A00"/><path d="M730.179 591.106L406.547 750.444l-223.525-137.93 323.632-159.338 223.525 137.93z" fill="#04294F"/><path d="M815.724 196.548c-31.605-19.701-17.456-42.4-49.061-62.101-31.601-19.698-45.75 3-77.351-16.698-31.602-19.7-17.453-42.398-49.055-62.097-31.601-19.698-45.75 3-77.35-16.697-6.553-4.085-11.183-9.241-14.766-14.836l-.008.019c-19.156-30.413-68.072-32.592-92.795-3.658a74.364 74.364 0 0 1-2.883 3.635l-.018.024v-.002c-4.989 5.887-11.261 11.304-19.875 15.548-40.066 19.739-51.886-4.255-91.952 15.483-40.064 19.738-28.243 43.732-68.307 63.469-40.063 19.737-51.883-4.257-91.946 15.481-40.061 19.736-28.24 43.73-68.301 63.466-40.062 19.737-51.883-4.257-91.945 15.48L188.45 612.518l218.1 137.934L724.744 591.11l168.339-377.859c-31.604-19.701-45.754 2.998-77.359-16.703z" fill="#00AEE0"/><path d="M642.174 514.755c5.524 0 10.002-1.846 10.002-4.123s-4.478-4.123-10.002-4.123c-5.524 0-10.002 1.846-10.002 4.123s4.478 4.123 10.002 4.123z" fill="#fff"/><path d="M642.174 516.755c-5.78 0-12.001-1.916-12.001-6.123 0-4.207 6.221-6.123 12.001-6.123 5.78 0 12.002 1.916 12.002 6.123 0 4.207-6.222 6.123-12.002 6.123zm-7.978-6.123c.393.661 3.104 2.123 7.978 2.123s7.586-1.462 7.979-2.123c-.393-.661-3.104-2.123-7.979-2.123-4.873 0-7.585 1.462-7.978 2.123zm15.989.068h.01-.01zM338.002 538.144l-76.911 38.365-76.962 38.261.209-4.389 111.932 68.696 111.836 68.852-2.866-.137 161.853-79.588 80.971-39.703 81.018-39.607-.206 4.32-119.21-74.343a1.807 1.807 0 0 1 1.898-3.076l119.907 73.213a2.465 2.465 0 0 1-.181 4.309l-.026.012-80.794 40.063-80.841 39.967L407.86 753.11a2.967 2.967 0 0 1-2.866-.137L293.3 683.891l-111.598-69.238-.013-.008a2.505 2.505 0 0 1 .223-4.381l77.254-37.669 77.305-37.565a1.735 1.735 0 0 1 1.531 3.114zM189.906 593.319c10.54-5.778 21.19-11.332 31.866-16.833 5.343-2.741 10.686-5.48 16.055-8.169a1612.285 1612.285 0 0 1 16.113-8.052 1709.14 1709.14 0 0 1 32.415-15.719c10.882-5.083 21.789-10.115 32.879-14.777a.494.494 0 0 1 .436.885c-10.457 5.946-21.096 11.523-31.76 17.049a1715.187 1715.187 0 0 1-32.224 16.107 1591.054 1591.054 0 0 1-16.207 7.861c-5.404 2.616-10.834 5.181-16.264 7.744-10.87 5.107-21.766 10.161-32.772 14.992a.607.607 0 1 1-.537-1.088zM734.546 545.929c-8.219-4.451-16.306-9.115-24.364-13.828-4.023-2.366-8.045-4.733-12.037-7.149a956.839 956.839 0 0 1-11.968-7.26 1033.478 1033.478 0 0 1-23.711-14.885c-7.812-5.111-15.594-10.269-23.16-15.779a.495.495 0 0 1 .517-.839c8.317 4.291 16.418 8.934 24.49 13.624 8.041 4.739 16.03 9.563 23.938 14.518a976.602 976.602 0 0 1 11.857 7.441c3.95 2.484 7.869 5.017 11.788 7.552 7.826 5.088 15.622 10.225 23.286 15.575a.607.607 0 0 1-.636 1.03zM680.591 536.376c-2.293-.81-4.458-1.827-6.579-2.916a93.921 93.921 0 0 1-12.157-7.454c-1.931-1.396-3.816-2.867-5.573-4.545a1.847 1.847 0 0 1 1.898-3.076c2.288.818 4.448 1.843 6.562 2.943a93.923 93.923 0 0 1 12.115 7.522c1.924 1.407 3.804 2.886 5.557 4.572a1.776 1.776 0 0 1-1.823 2.954z" fill="#04294F"/><path d="M249.925 690.167l1.681 1.037a2.263 2.263 0 0 0 2.188.104l10.444-5.142c1.596-.786 1.703-3.021.189-3.955l-1.68-1.037a2.263 2.263 0 0 0-2.188-.104l-10.444 5.142c-1.597.786-1.704 3.021-.19 3.955zM291.763 699.08l-17.336-10.698a2.263 2.263 0 0 0-2.188-.104l-10.444 5.142c-1.596.786-1.702 3.021-.189 3.955l17.336 10.698a2.263 2.263 0 0 0 2.188.104l10.444-5.142c1.596-.786 1.702-3.021.189-3.955zM252.744 675.003l-8.196-5.058a2.261 2.261 0 0 0-2.187-.104l-10.444 5.142c-1.596.786-1.703 3.021-.189 3.955l8.196 5.058a2.263 2.263 0 0 0 2.188.104l10.444-5.142c1.596-.786 1.702-3.021.188-3.955zM299.576 705.147l-10.444 5.142c-1.596.786-1.703 3.021-.189 3.955l6.101 3.765a2.261 2.261 0 0 0 2.187.104l10.444-5.142c1.596-.786 1.703-3.021.189-3.955l-6.101-3.765a2.26 2.26 0 0 0-2.187-.104z" fill="#FF3A00"/><path d="M716.773 634.409c7.497-4.426 15.213-8.406 22.983-12.278 7.792-3.827 15.639-7.543 23.708-10.81a1.208 1.208 0 0 1 1.066 2.161c-7.502 4.415-15.226 8.381-23.005 12.235-7.801 3.81-15.655 7.51-23.729 10.766a1.16 1.16 0 0 1-1.023-2.074zM264.22 741.652l41.703 25.185 41.591 25.366 10.378 6.374c.854.519 1.754 1.09 2.57 1.566.791.466 1.614.881 2.469 1.216 1.7.696 3.511 1.111 5.341 1.252 1.829.145 3.683.024 5.47-.397a17.227 17.227 0 0 0 2.626-.813c.435-.147.839-.37 1.261-.549l1.353-.665 10.914-5.405 43.675-21.58 43.716-21.496 43.745-21.439 43.786-21.355 43.85-21.225a1.204 1.204 0 0 1 1.066 2.161l-43.527 21.88-43.591 21.75-43.632 21.667-43.66 21.609-43.702 21.525-10.93 5.372-1.382.674c-.51.221-1.003.482-1.53.664-1.034.408-2.1.739-3.186.98a21.592 21.592 0 0 1-6.628.469 21.499 21.499 0 0 1-6.465-1.528 20.963 20.963 0 0 1-2.985-1.477c-.935-.55-1.745-1.074-2.624-1.612l-10.351-6.417-41.323-25.8-41.211-25.981a1.157 1.157 0 0 1 1.213-1.971zM144.62 667.848c3.03 1.651 6.006 3.391 9.01 5.084l8.92 5.23c5.946 3.488 11.824 7.086 17.702 10.684 5.858 3.631 11.713 7.266 17.502 11.008l8.681 5.618c2.862 1.924 5.754 3.799 8.59 5.766a1.206 1.206 0 0 1-1.266 2.051c-3.029-1.653-6.002-3.397-9.005-5.092l-8.914-5.239c-5.941-3.496-11.815-7.1-17.688-10.708-5.852-3.64-11.704-7.281-17.488-11.031l-8.675-5.628c-2.861-1.926-5.75-3.805-8.585-5.774a1.159 1.159 0 0 1-.291-1.612 1.167 1.167 0 0 1 1.507-.357z" fill="#FFB400"/><path d="M249.825 724.18l-20.43-12.607a3.184 3.184 0 0 0-4.389 1.049l-3.895 6.374a3.184 3.184 0 0 0 1.045 4.37l28.22 17.414c2.551 1.574 5.665-.927 4.679-3.757l-3.895-11.181a3.183 3.183 0 0 0-1.335-1.662zM672.84 648.318a2.6 2.6 0 0 0-.659-.599c-.078-.048-.165-.068-.245-.11-.047-.028-.089-.068-.136-.094l-.027.021c-1.16-.552-2.508-.58-3.674-.004l-51.122 25.247a4.225 4.225 0 0 0-2.354 3.789V688.8c0 1.469.763 2.833 2.015 3.601l.635.39c.095.058.196.1.294.15.003.002.003.006.007.008l.027.01a4.213 4.213 0 0 0 1.626.442c1.836.22 3.542-.513 5.34-1.401 2.325-1.148 50.812-37.734 50.812-37.734.001-2.015-1.01-4.482-2.539-5.948z" fill="#04294F"/><path d="M619.81 678.896v10.87c0 2.111 2.216 3.488 4.109 2.553l49.874-24.631a2.848 2.848 0 0 0 1.587-2.553v-10.87c0-2.111-2.216-3.488-4.109-2.553l-49.874 24.631a2.847 2.847 0 0 0-1.587 2.553z" fill="#FFB400"/><path d="M650.446 665.404c.519 1.02.819 2.04 1.032 3.059.21 1.02.322 2.04.353 3.059.036 1.02-.015 2.039-.231 3.059-.235 1.02-.555 2.04-1.267 3.059a.6.6 0 0 1-.985 0c-.713-1.02-1.032-2.04-1.267-3.059-.216-1.02-.267-2.04-.231-3.059.031-1.02.143-2.04.353-3.059.213-1.02.513-2.04 1.032-3.059a.68.68 0 0 1 1.211 0zM709.885 630.06a2.6 2.6 0 0 0-.659-.599c-.078-.048-.165-.068-.245-.11-.047-.028-.089-.068-.136-.094l-.027.021c-1.16-.552-2.508-.58-3.674-.004l-14.013 6.972a4.225 4.225 0 0 0-2.354 3.789v12.232c0 1.469.763 2.833 2.015 3.601l.635.39c.095.058.196.1.294.15.003.002.003.006.007.008l.027.01a4.213 4.213 0 0 0 1.626.442c1.836.22 3.542-.513 5.34-1.401 2.325-1.148 13.703-19.459 13.703-19.459.001-2.015-1.01-4.481-2.539-5.948z" fill="#04294F"/><path d="M693.964 642.363v10.87c0 2.111 2.216 3.488 4.109 2.553l12.765-6.355a2.848 2.848 0 0 0 1.587-2.553v-10.87c0-2.111-2.216-3.488-4.109-2.553l-12.765 6.355a2.848 2.848 0 0 0-1.587 2.553z" fill="#FFB400"/><path d="M557.693 591.568a5 5 0 0 1-5-5v-21.411a5 5 0 0 1 5-5 5 5 0 0 1 5 5v21.411a5 5 0 0 1-5 5zM472.246 642.862a5 5 0 0 1-5-5v-5.411a5 5 0 0 1 5-5 5 5 0 0 1 5 5v5.411a5 5 0 0 1-5 5zM485.815 692.847a3 3 0 0 1-3-3v-24.411a3 3 0 1 1 6 0v24.411a3 3 0 0 1-3 3zM335.521 622.463a4 4 0 0 1-4-4v-29.411a4 4 0 0 1 8 0v29.411a4 4 0 0 1-4 4zM550.7 627.725a3 3 0 0 1-3-3v-5.411a3 3 0 1 1 6 0v5.411a3 3 0 0 1-3 3zM379.273 674.981a3 3 0 0 1-3-3v-5.411a3 3 0 1 1 6 0v5.411a3 3 0 0 1-3 3z" fill="#04294F"/><path d="M776.891 527.696c8.546-18.377 17.424-36.582 26.38-54.748 4.493-9.075 8.988-18.15 13.559-27.185l6.826-13.568 6.907-13.527 6.907-13.527 6.992-13.484c4.635-9.002 9.41-17.933 14.14-26.887 9.58-17.846 19.234-35.653 29.439-53.178a.74.74 0 0 1 1.315.676c-8.295 18.505-17.14 36.728-26.06 54.913-4.52 9.061-8.995 18.146-13.61 27.159l-6.883 13.539-6.968 13.496-6.968 13.496-7.049 13.454c-4.678 8.98-9.433 17.921-14.19 26.861-9.544 17.864-19.164 35.689-29.119 53.342a.91.91 0 0 1-1.618-.832zM815.642 507.691c3.505-6.33 7.315-12.444 11.197-18.508 1.954-3.022 3.911-6.043 5.937-9.015l3.011-4.477 3.066-4.438c4.107-5.905 8.321-11.733 12.736-17.42 4.457-5.657 8.977-11.269 14.006-16.522a.747.747 0 0 1 1.208.854c-3.274 6.493-7.056 12.628-10.901 18.717-3.887 6.06-7.975 11.977-12.171 17.819l-3.161 4.371-3.216 4.333c-2.125 2.902-4.319 5.754-6.516 8.605-4.421 5.683-8.913 11.315-13.71 16.731a.915.915 0 0 1-1.486-1.05zM100.505 491.737c-9.087-15.965-17.84-32.1-26.517-48.276-4.324-8.095-8.645-16.192-12.89-24.327L54.7 406.946l-6.318-12.229-6.318-12.229-6.233-12.272c-4.18-8.168-8.223-16.408-12.309-24.625-8.053-16.496-16.03-33.03-23.459-49.846a.741.741 0 0 1 1.315-.676c9.338 15.836 18.125 31.954 26.838 48.111 4.296 8.109 8.637 16.195 12.84 24.353l6.34 12.217 6.256 12.26 6.256 12.26 6.176 12.302c4.138 8.191 8.2 16.42 12.258 24.651 8.09 16.477 16.101 32.994 23.779 49.682a.91.91 0 0 1-1.616.832zM136.814 562.452c-2.884-3.874-5.419-7.927-7.905-12.006a253.846 253.846 0 0 1-6.998-12.472c-2.224-4.213-4.332-8.486-6.22-12.871-1.862-4.399-3.612-8.856-4.837-13.582a.758.758 0 0 1 1.315-.676c3.127 3.75 5.729 7.769 8.219 11.845 2.464 4.09 4.708 8.293 6.835 12.555a254.718 254.718 0 0 1 6.057 12.955c1.867 4.397 3.683 8.819 5.151 13.42a.92.92 0 0 1-1.617.832zM92.148 538.368c-6.069-8.123-11.82-16.446-17.499-24.816-2.825-4.193-5.648-8.388-8.399-12.629l-4.155-6.343-4.079-6.391a740.785 740.785 0 0 1-15.925-25.81c-5.083-8.746-10.1-17.533-14.59-26.653a.743.743 0 0 1 1.25-.789c6.308 7.972 12.09 16.276 17.805 24.622a742.308 742.308 0 0 1 16.47 25.466l4.02 6.428 3.944 6.476c2.65 4.305 5.225 8.656 7.8 13.008 5.12 8.722 10.166 17.491 14.896 26.46a.912.912 0 0 1-1.538.971z" fill="#00AEE0"/><path d="M583.606 425.64l-45.15 126.75v.01s-.48.23-1.55.62c-.03.01-.06.02-.1.03-3.41 1.23-12.48 3.97-30.41 6.23-9.86 1.24-9.83 3.32-4.87 4.97 7.06 2.33 24.14 3.78 36.93.6v69.35c0 12.04-9.77 21.81-21.82 21.81-12.04 0-21.81-9.77-21.81-21.81v-4.54c0-6.24-2.53-11.89-6.62-15.98-4.09-4.1-9.74-6.63-15.99-6.63-12.49 0-22.61 10.13-22.61 22.61v38.01c0 15.61-12.65 28.26-28.26 28.26-15.61 0-28.26-12.65-28.26-28.26v-44.93c0-4.94-4.01-8.94-8.95-8.94-4.94 0-8.94 4-8.94 8.94v21.64c0 6.46-5.24 11.7-11.71 11.7-6.46 0-11.7-5.24-11.7-11.7V536.84c-48.36-23.97-120.03-75.57-129.65-205.01l-.18-2.52c-1.66-24.51-1.1-51.78 2.24-82.14v-.03c0-.04 0-.08.01-.12.23-2.1.47-4.22.73-6.35v-.02c0-.02 0-.05.01-.08v-.01c.01-.02.01-.03.01-.05h.01l12.02-4.41h.01l5.2-1.91h.01l61.66-22.59 2.17-.8 58.55-21.45 3.06-1.12 61.46-22.51 2.82-1.04 11.28-4.13 2.76 43.25.04.62c-19.94 83.7 14.9 158.24 55.41 199.11 1.72 1.72 3.44 3.39 5.16 4.99 30.41 28.24 62.81 37.3 77.03 17.12z" fill="#04294F"/><path d="M402.113 398.303l-.014-.041 278.303-137.034h.014v.027s4.073 0 4.073 68.313-4.073 68.313-4.073 68.313v-.027l-278.29 137.021h-.014c-.543-.394-4.005-5.308-4.005-68.286s3.463-67.893 4.006-68.286z" fill="#FF3A00"/><path d="M488.17 142.59l192.232 118.638-278.303 137.034-.027.014-192.246-118.639L488.17 142.59z" fill="#FF3A00"/><path d="M402.113 534.875l-.041.027-192.246-118.639s-4.073 0-4.073-68.313 4.073-68.313 4.073-68.313l192.246 118.638.027-.014.014.041c-.543.394-4.005 5.308-4.005 68.286s3.462 67.893 4.005 68.287z" fill="#FFB400"/><path d="M294.513 331.902l-40.897-25.236 278.087-137.204 40.896 25.236-278.086 137.204zM294.533 468.528s-4.073 0-4.073-68.313 4.053-68.313 4.053-68.313l-40.897-25.236s-4.073.029-4.073 68.342 4.073 68.313 4.073 68.313l40.917 25.207z" fill="#fff"/><path d="M468.246 449.279l-37.278 18.362v7.304l37.278-18.361v-7.305zM473.707 446.589v7.305l16.217-7.988v-7.305l-16.217 7.988zM451.464 471.21v7.304l55.996-27.581v-7.305l-55.996 27.582zM446.003 473.899l-15.035 7.406v7.305l15.035-7.406v-7.305zM478.538 471.538v7.305l20.669-10.181v-7.304l-20.669 10.18zM473.077 474.228l-42.109 20.741v7.305l42.109-20.741v-7.305zM415.373 389.793c10.302-5.384 20.673-10.627 31.008-15.944l31.121-15.714c10.359-5.268 20.795-10.38 31.195-15.565l31.223-15.507 31.32-15.31c10.45-5.083 20.859-10.25 31.349-15.252l31.424-15.1c10.514-4.953 20.991-9.981 31.538-14.867a1.808 1.808 0 0 1 1.596 3.242c-10.304 5.38-20.678 10.618-31.014 15.932l-31.129 15.699c-10.361 5.264-20.803 10.364-31.204 15.546l-31.232 15.489-31.329 15.291c-10.451 5.081-20.866 10.236-31.358 15.234l-31.431 15.084c-10.516 4.949-20.996 9.972-31.545 14.854a1.735 1.735 0 0 1-1.532-3.112z" fill="#04294F"/><path d="M259.075 309.322c2.732 1.066 5.333 2.344 7.904 3.672a134.043 134.043 0 0 1 7.553 4.24c2.474 1.484 4.902 3.043 7.244 4.741 2.33 1.718 4.617 3.505 6.7 5.623a.507.507 0 0 1-.517.839c-2.828-.911-5.45-2.154-8.031-3.466-2.568-1.332-5.05-2.803-7.486-4.349a135.065 135.065 0 0 1-7.177-4.85c-2.339-1.702-4.648-3.454-6.826-5.418a.616.616 0 0 1 .636-1.032z" fill="#FF3A00"/><path d="M648.606 335.88c-5.63-15.75-22.66-24.69-38.95-19.97-16.93 4.9-26.67 22.6-21.77 39.52l.16.55c3.44 11.89 4.87 24.04 4.11 35.88-.75 11.83-3.67 23.35-8.55 33.78-4.85 10.44-11.66 19.76-19.77 27.18-8.12 7.43-17.5 12.92-27.39 16.1-.68.22-1.46.49-2.13.75-19.1 7.45-52.17 98.47-36.14 95.29 1.09-.22 2.2-.45 3.35-.71-4.96-1.65-4.99-3.73 4.87-4.97 17.93-2.26 27-5 30.41-6.23.04-.01.07-.02.1-.03.52-.21 1.03-.42 1.55-.63 22.86-9.3 47.87-22.98 67.25-40.58l.03-.03c.02-.02.04-.03.06-.05 2.9-2.57 5.7-5.25 8.38-8.01 14.45-14.91 25.57-32.49 33.02-51.3 7.46-18.8 11.23-38.86 11.33-58.74.12-19.89-3.45-39.55-9.92-57.8zm-1.76 93.52c-.52.5-1.03 1.04-1.59 1.51-.56.45-1.14.89-1.73 1.33-2.38 1.67-4.98 3.05-7.71 4.02-2.71 1-5.51 1.72-8.36 2.14-2.84.4-5.7.58-8.59.24a.615.615 0 0 1-.08-1.21h.03c5.36-1.39 10.6-2.9 15.58-4.89 2.5-.97 4.9-2.13 7.3-3.31 2.44-1.15 4.68-2.58 7.19-3.93l.04-.02c.25-.13.55-.04.68.21.09.17.07.37-.03.52-.81 1.18-1.66 2.41-2.73 3.39z" fill="#04294F"/><path d="M646.621 351.065c2.319 7.785-1.966 13.265-9.751 15.585-7.785 2.319-16.122.6-18.441-7.185-2.319-7.785-.886-17.868 11.47-22.286 12.355-4.419 14.403 6.101 16.722 13.886z" fill="#FFB400"/><path d="M627.151 414.668c1.5-.708 3.014-1.28 4.485-1.877l4.372-1.716c1.445-.564 2.841-1.177 4.293-1.718 1.467-.536 2.872-1.143 4.568-1.61l.03-.008a.53.53 0 0 1 .613.756c-.83 1.605-2.093 2.902-3.496 3.937a17.762 17.762 0 0 1-4.607 2.37 23.36 23.36 0 0 1-4.991 1.171c-1.704.176-3.403.234-5.15-.098a.63.63 0 0 1-.155-1.188l.038-.019z" fill="#00AEE0"/><path d="M497.686 165.11c-9.92-11.69-22.01-22-35.78-29.87a127.25 127.25 0 0 0-13.59-6.75h-.01c-2.62.52-5.21 1.12-7.74 1.84-2.59.7-5.09 1.61-7.6 2.54-2.55.9-4.92 2.09-7.56 3.18l-.04.02c-.26.1-.55-.02-.66-.28a.497.497 0 0 1 .09-.51c.93-1.1 1.9-2.23 3.06-3.1.57-.44 1.13-.93 1.73-1.34.61-.39 1.23-.77 1.86-1.15 2.54-1.42 5.27-2.52 8.08-3.2.79-.2 1.58-.38 2.37-.54-4.27-1.57-8.63-2.91-13.07-4h-.01c-1.12.28-2.24.58-3.34.89-1.8.5-3.53 1.12-5.3 1.7-1.8.56-3.49 1.3-5.48 1.9l-.04.01a.52.52 0 0 1-.64-.35.528.528 0 0 1 .07-.44c1.16-1.76 2.77-3.22 4.57-4.3.71-.42 1.44-.8 2.19-1.13-1.36-.26-2.72-.49-4.08-.69-2.07-.3-4.14-.56-6.23-.77-21.24-2.22-38.83 6.21-48.91 18.85-2.88.16-5.76.41-8.64.77-.3.33-.6.66-.89.99-1.24 1.4-2.37 2.86-3.53 4.31-1.21 1.45-2.23 2.99-3.58 4.56l-.02.03a.52.52 0 0 1-.73.06.533.533 0 0 1-.18-.4c.02-2.12.58-4.21 1.51-6.1.44-.9.95-1.77 1.52-2.59-8.9 1.5-17.7 3.95-26.19 7.34-5.62 2.66-10.57 7.2-14.51 13.08-6.95 2.1-13.78 4.74-20.38 8.01-14.21 7.01-27.3 16.73-38.22 28.7a126.26 126.26 0 0 0-14.17 18.76c-4.56 8.03-7.3 16.59-8.65 25.37-.01.02-.02.03-.02.05v.01c-.01.03-.01.06-.01.08v.02c-.32 2.1-.57 4.22-.73 6.35-.01.04-.01.08-.01.12v.03c-.63 8.05-.2 16.22.96 24.3-.07.34-.17.67-.25 1.02l30.88-15.26 57.18-28.17c.01 0 .01 0 .01-.01l18.62-9.16c2.58-.81 5.24-1.5 7.96-2.04l1.05-.2c8.02-1.61 14.83-6.16 19.41-12.38 2.59-.67 5.23-1.19 7.92-1.52 7.77-.98 15.9-.54 24.04 1.3l1.04.24c12.96 2.89 26.14-2.62 33.34-13.29 1.4.54 2.79 1.11 4.16 1.75 5.46 2.56 10.65 5.94 15.45 10.05a72.62 72.62 0 0 1 4.19 3.88l.76.75c11.63 11.55 30.37 12.45 43.09 1.65 13.44-11.4 15.09-31.54 3.68-44.97zm-133.1 24.24c.15-1.78.15-3.57-.03-5.35-.31-3.39-1.25-6.69-2.76-9.7-1.51-3.01-3.55-5.73-5.98-8.07-2.45-2.33-5.28-4.25-8.34-5.76-3.07-1.47-6.34-2.58-9.73-3.22-1.33-.27-2.67-.47-4.02-.6-2.29-.23-4.6-.29-6.93-.2h-.03c-3.31.12-6.64.54-9.96 1.15h-.01a.499.499 0 0 1-.58-.4c-.04-.23.09-.46.31-.55 6.76-2.71 14.33-3.84 21.79-2.87 7.43 1 14.76 4.21 20.23 9.6 5.53 5.28 9.07 12.77 9.27 20.41.05 1.49 0 2.97-.17 4.44l-3.06 1.12zm62.92-27.6c-1.59-3.31-3.77-6.3-6.36-8.85-2.61-2.53-5.65-4.61-8.97-6.06-.76-.31-1.52-.61-2.3-.89-.93-.34-1.9-.65-2.92-.94-1.82-.55-3.65-1.07-5.5-1.56-3.54-.9-7.09-1.75-10.69-2.43l-.46-.09c-7.49-1.49-15.09-2.4-22.79-3.04a.493.493 0 0 1-.45-.53.51.51 0 0 1 .44-.46c7.76-.79 15.62-.47 23.38.56 3.87.56 7.73 1.25 11.54 2.2 3.81.96 7.52 1.91 11.36 3.58.92.46 1.85.89 2.75 1.38l2.61 1.64c.81.61 1.61 1.26 2.42 1.89.78.67 1.48 1.41 2.23 2.11 2.86 2.93 5.12 6.41 6.69 10.15.59 1.39 1.07 2.82 1.44 4.27l-2.82 1.04c-.44-1.36-.97-2.69-1.6-3.97z" fill="#04294F"/><path d="M457.347 167.866c14.822 13.045 39.303 2.512 27.66-9.337-10.875-11.067-35.317 2.598-27.66 9.337zM409.876 145.95c-3.07-.08-8.2.89-13.58 6.74-4.52 4.91-27.45-4.78-15.49-13.21 0 0 4.29.56 9.96 1.54 3.6.68 7.15 1.53 10.69 2.43 1.85.49 3.68 1.01 5.5 1.56 1.02.29 1.99.6 2.92.94zM333.726 156.65c-2.22.97-5.3 3.26-7.28 8.74-1.81 4.99-25.34 4.32-19.21-5.43 0 0 3.748-1.318 9.56-2.36 2.883-.517 6.266-1.02 9.97-1.15h.03c2.33-.09 4.64-.03 6.93.2z" fill="#FFB400"/><path d="M430.936 183.89a.606.606 0 1 1-1.15-.37c1.41-5.96 1.16-12.16-.68-17.8l2.82-1.04c1.68 6.37 1.35 13.21-.99 19.21zM367.646 188.23c-.25 2.28-.75 4.53-1.47 6.68-1.18 3.54-2.92 6.85-5.04 9.83-.19.27-.57.33-.84.14a.602.602 0 0 1-.19-.77v-.01c2.4-4.67 4.05-9.7 4.48-14.75l3.06-1.12zM310.174 220.782c-2.179-4.742-5.433-8.937-9.533-12.014-1.995-1.605-4.234-2.857-6.525-3.935l-1.772-.693c-.296-.111-.585-.241-.886-.338l-.915-.257-1.821-.524-1.862-.349-.929-.176c-.312-.044-.628-.06-.941-.091l-1.882-.171c-.628-.025-1.259.002-1.888-.002-.629.002-1.257-.011-1.882.08l-1.874.185c-.624.063-1.234.223-1.852.328-1.244.181-2.432.596-3.636.936-.609.151-1.168.447-1.755.661-.572.25-1.178.427-1.723.734-1.099.595-2.246 1.101-3.26 1.836-.521.343-1.057.663-1.568 1.021l-1.464 1.166-.734.581c-.233.207-.449.434-.674.65l-1.341 1.306c-7.113 7.656-13.48 16.081-18.857 25.091-5.424 8.996-9.835 18.6-13.399 28.6a.493.493 0 0 1-.948-.269c2.21-10.479 6.162-20.607 11.294-30.08 2.614-4.711 5.47-9.301 8.683-13.636a121.335 121.335 0 0 1 10.369-12.433c3.923-4.047 8.847-7.17 14.245-8.791 5.386-1.609 11.169-1.966 16.634-.733l2.043.463 1.987.661.99.336c.326.123.638.28.958.419l1.903.86c2.451 1.307 4.826 2.783 6.857 4.664 4.202 3.585 7.338 8.336 9.085 13.468a.607.607 0 0 1-1.127.446z" fill="#00AEE0"/><path d="M890.503 213.761c-4.318.194-8.584.907-12.732 1.974a56.771 56.771 0 0 0-11.928 4.597 51.816 51.816 0 0 0-10.447 7.189c-1.575 1.39-3.11 2.882-4.477 4.427-1.354 1.448-2.703 3.332-4.056 5.076l.11-.141-.017.023a2.241 2.241 0 0 1-3.944-.685v-.001l3.833.826c-5.811 7.225-13.576 13.115-22.059 16.804-8.278 3.998-17.487 6.608-26.86 7.104-4.654.185-9.326.041-13.798-.357-4.491-.319-8.885-.751-13.185-.652-8.636-.08-16.996 2.068-25.006 5.39-8.006 3.354-15.701 7.692-22.088 13.383l-2.36 2.183c-.407.351-.77.746-1.126 1.148l-1.086 1.191c-1.497 1.539-2.796 3.282-4.144 4.979-2.618 3.495-5.06 7.178-7.617 10.942-5.019 7.556-11.44 14.664-19.086 19.803l-5.872 3.586-6.124 3.045a78.353 78.353 0 0 1-12.785 4.681.74.74 0 0 1-.45-1.409 88.665 88.665 0 0 0 12.057-5.622l5.717-3.36 5.393-3.783 2.505-2.111 1.257-1.045.628-.522.577-.577c1.517-1.559 3.142-3.001 4.483-4.72.691-.838 1.422-1.636 2.08-2.502l1.933-2.637c.667-.855 1.249-1.8 1.864-2.709.605-.922 1.227-1.814 1.81-2.772 2.359-3.743 4.714-7.652 7.373-11.418 1.399-1.851 2.747-3.738 4.341-5.462l1.154-1.322c.38-.445.767-.884 1.2-1.28l2.526-2.447c.43-.397.826-.837 1.285-1.2l1.364-1.104 2.734-2.205c.909-.739 1.918-1.322 2.879-1.981l2.918-1.923c1.995-1.18 4.049-2.24 6.074-3.364.999-.587 2.072-1.026 3.124-1.509l3.165-1.427a74.54 74.54 0 0 1 13.29-4.346c1.127-.33 2.309-.428 3.465-.634 1.163-.17 2.322-.39 3.489-.514 2.339-.135 4.69-.427 7.013-.351 9.377-.072 18.199 1.586 26.783 1.242 2.137-.159 4.292-.2 6.398-.602 1.057-.168 2.122-.3 3.176-.493l3.131-.767c2.109-.424 4.135-1.21 6.188-1.893 2.078-.607 4.049-1.567 6.059-2.411 8.077-3.261 15.09-8.409 20.824-14.928l.053-.061a2.201 2.201 0 0 1 3.78.887v.001l-3.944-.685.018-.022.11-.141c1.395-1.669 2.647-3.322 4.336-5.037 1.6-1.681 3.271-3.188 5.035-4.636a54.976 54.976 0 0 1 11.536-7.122 59.71 59.71 0 0 1 12.788-4.206c4.385-.935 8.87-1.285 13.318-1.208a.91.91 0 0 1 .028 1.818l-.011.005zM231.401 331.682c-4.23.331-8.572.413-12.869-.253-4.295-.645-8.499-1.934-12.47-3.685-1.977-.891-3.926-1.853-5.795-2.94-.959-.504-1.843-1.136-2.758-1.717l-2.726-1.786-.678-.454-.636-.517-1.272-1.037c-.845-.696-1.704-1.376-2.537-2.09l-2.328-2.348-1.163-1.179c-.359-.419-.696-.858-1.045-1.287-.688-.865-1.392-1.722-2.066-2.6l-1.814-2.772c-.639-.911-1.109-1.896-1.64-2.856-.518-.965-1.059-1.926-1.492-2.91-1.908-3.916-3.402-7.861-5.162-11.569-3.305-7.517-8.175-13.795-14.565-18.669-1.619-1.181-3.324-2.268-4.976-3.411l-5.272-2.932-2.739-1.186c-.919-.373-1.805-.858-2.761-1.101l-2.823-.886-.705-.224c-.239-.059-.482-.099-.723-.15l-1.447-.29c-1.911-.475-3.895-.591-5.859-.809-2.001-.056-3.982-.163-6.036-.047-4.07.114-8.266.545-12.64.609-8.707.335-18.01-1.543-25.759-5.768-1.904-1.114-3.82-2.153-5.7-3.336a43.43 43.43 0 0 1-5.315-4.115c-3.339-3.003-6.11-6.562-8.42-10.3l4.272-.375-.008.018-.038.086a2.394 2.394 0 0 1-4.243.273c-2.109-3.499-4.736-6.686-7.744-9.497-3.012-2.812-6.453-5.18-10.135-7.13-3.682-1.962-7.64-3.427-11.719-4.496a60.722 60.722 0 0 0-12.57-1.844.74.74 0 0 1-.017-1.478 56.047 56.047 0 0 1 13.143.738c4.358.749 8.635 2.071 12.717 3.885a49.055 49.055 0 0 1 11.4 7.117c3.478 2.885 6.523 6.322 9.02 10.127l-4.282.36.007-.018a2.396 2.396 0 0 1 4.221-.454l.052.079c2.24 3.348 4.855 6.377 7.854 8.94a37.972 37.972 0 0 0 4.756 3.504c1.711 1.015 3.528 1.942 5.28 2.921 7.218 3.592 14.967 5.192 23.09 4.83 4.054-.094 8.252-.564 12.609-.65 2.157-.11 4.392.005 6.599.085 2.224.244 4.456.402 6.647.942l1.65.342c.274.06.551.109.823.178l.801.253 3.203 1.02c1.089.295 2.07.822 3.099 1.247l3.053 1.346a249.108 249.108 0 0 1 5.739 3.274c1.798 1.274 3.63 2.49 5.389 3.821 6.956 5.437 12.646 12.963 15.838 21.02 1.744 3.958 3.136 7.947 4.826 11.655.39.958.863 1.845 1.317 2.749.463.897.881 1.829 1.429 2.665l1.548 2.58 1.779 2.415c.3.4.589.811.899 1.204l1.019 1.107 2.037 2.223c.742.683 1.514 1.339 2.269 2.012l1.139 1.006.57.504.62.448c1.674 1.166 3.267 2.456 4.995 3.561 1.718 1.126 3.505 2.127 5.321 3.066 3.647 1.844 7.503 3.255 11.511 4.078 4.01.803 8.144 1.109 12.327 1.06a.91.91 0 0 1 .079 1.818zM406.251 734.126c-.336-19.808-.298-39.607-.173-59.405.079-9.898.161-19.797.328-29.693l.216-14.845.307-14.843.307-14.843.402-14.841c.239-9.895.635-19.786.981-29.678.826-19.781 1.736-39.561 3.265-59.326a.74.74 0 0 1 1.478.034c.618 19.814.617 39.615.533 59.413-.11 9.898-.169 19.796-.385 29.691l-.281 14.844-.376 14.842-.376 14.841-.467 14.839c-.288 9.893-.661 19.785-1.038 29.676-.785 19.782-1.658 39.562-2.905 59.334a.911.911 0 0 1-.965.851.911.911 0 0 1-.851-.891zM598.943 335.93a89.187 89.187 0 0 0-10.518 5.108l-5.018 2.964c-1.637 1.032-3.177 2.202-4.765 3.29-.389.283-.799.539-1.17.843l-1.098.931-2.203 1.843c-.363.311-.746.6-1.092.928l-1.012 1.013-2.023 2.02c-.702.644-1.265 1.425-1.895 2.139l-1.844 2.181c-1.107 1.573-2.314 3.038-3.373 4.66-4.337 6.347-8.052 13.514-13.47 19.784-1.355 1.552-2.674 3.139-4.21 4.528l-2.23 2.153c-.768.688-1.593 1.307-2.389 1.963l-2.424 1.922c-.826.612-1.703 1.143-2.552 1.717-1.721 1.111-3.395 2.32-5.215 3.229-7.037 4.091-14.628 7.26-22.689 9.116-4.012.956-8.148 1.438-12.26 1.585-1.028.051-2.048-.009-3.071-.009-1.019-.029-2.053.003-3.057-.078-2.012-.14-4.047-.24-6.014-.448-3.984-.398-7.831-.835-11.693-1.086l-2.874-.081c-.957-.021-1.923-.107-2.872-.039-1.902.106-3.832.041-5.72.349-7.622.773-15.086 3.092-22.396 5.977l-.015.006a.74.74 0 0 1-.638-1.333c6.916-3.934 14.462-7.056 22.502-8.508 4.007-.756 8.098-1.027 12.154-1.049 4.031.058 8.053.286 11.942.501 1.967.145 3.879.174 5.81.248.967.048 1.909-.017 2.864-.02.95-.031 1.907-.002 2.849-.081 3.767-.296 7.508-.724 11.164-1.655 3.675-.834 7.246-2.148 10.782-3.545l5.243-2.32c1.713-.844 3.375-1.794 5.066-2.684 6.643-3.754 12.697-8.343 17.694-14.014 5.044-5.622 8.93-12.446 13.729-18.964 4.682-6.604 10.799-12.383 17.591-16.763 1.739-1.036 3.431-2.149 5.199-3.109l5.4-2.672c3.613-1.726 7.385-3.116 11.218-4.259a.91.91 0 0 1 .608 1.713l-.015.006zM389.171 412.212a247.941 247.941 0 0 1-5.529-2.494l-2.83-.995-1.401-.508-.698-.254-.722-.177c-1.933-.429-3.793-1.072-5.751-1.266-.971-.124-1.92-.34-2.898-.393-.979-.045-1.951-.126-2.922-.19-3.92-.117-7.851.157-11.935.51-4.085.353-8.303.691-12.638.471-1.077-.033-2.166-.192-3.248-.285l-1.626-.165c-.54-.079-1.075-.203-1.612-.304l-3.214-.673c-1.044-.32-2.083-.657-3.119-1.002-4.148-1.374-7.976-3.434-11.568-5.725-3.592-2.283-6.932-5-9.868-8.115-2.932-3.111-5.397-6.668-7.119-10.504a.745.745 0 0 1 1.257-.779c5.147 6.322 11.414 11.189 18.442 14.867 6.928 3.838 14.273 6.264 21.996 6.769l2.925.091c.972.042 1.981-.033 2.97-.043 1.975.01 4.028-.134 6.069-.197 4.1-.233 8.394-.241 12.663.203 1.069.151 2.138.286 3.2.455 1.062.166 2.102.499 3.148.743 2.112.439 4.098 1.294 6.093 2.046l.745.289.712.363 1.42.725 2.811 1.47a183.931 183.931 0 0 1 5.211 3.526.908.908 0 0 1-.881 1.578l-.083-.037zM412.408 466.566c-.728-2.398-1.123-4.788-1.383-7.174a63.975 63.975 0 0 1-.365-7.151c0-2.381.132-4.759.51-7.131.408-2.371.941-4.74 2.065-7.095a.81.81 0 0 1 1.478.034c1.014 2.404 1.438 4.795 1.736 7.183.268 2.387.291 4.768.181 7.147a63.986 63.986 0 0 1-.693 7.127c-.37 2.372-.874 4.742-1.712 7.103a.957.957 0 0 1-1.817-.043z" fill="#fff"/></svg>