<svg width="956" height="632" fill="none" xmlns="http://www.w3.org/2000/svg"><path d="M595.802 556.365a22.416 22.416 0 0 0 15.247 18.731c19.351 6.398 61.034 18.537 132.609 31.933 71.771 13.433 130.331 19.386 160.334 21.815 12.313.997 23.107-8.148 24.163-20.456 2.958-34.468 7.623-115.526 7.623-283.897 0-169.216-4.713-250.38-7.668-284.64-1.053-12.211-11.68-21.318-23.908-20.485-28.341 1.931-84.431 7.496-167.263 23.52-75.081 14.525-110.195 24.41-126.254 29.978a22.4 22.4 0 0 0-14.899 18.443c-2.917 23.86-8.009 86.139-8.009 230.17.001 144.272 5.11 209.445 8.025 234.888z" fill="#04294F"/><path d="M615.6 96.193l33.403 16.753a3.998 3.998 0 0 0 4.689-.817l25.771-27.062 33.405 16.753a3.998 3.998 0 0 0 4.689-.817l25.768-27.061 33.401 16.753a4 4 0 0 0 4.689-.817l25.771-27.062 33.406 16.753a4.001 4.001 0 0 0 4.689-.817l25.773-27.062 33.406 16.752a4 4 0 0 0 4.689-.817l19.55-20.526a882.764 882.764 0 0 0-.593-7.245 22.617 22.617 0 0 0-.51-3.197l-22.198 23.306-33.406-16.753a3.998 3.998 0 0 0-4.689.817L841.53 71.09l-33.406-16.753a3.999 3.999 0 0 0-4.689.817l-25.771 27.062-33.401-16.753a3.998 3.998 0 0 0-4.689.817l-25.768 27.061-33.405-16.753a3.999 3.999 0 0 0-4.689.817l-25.771 27.062-33.403-16.753a4 4 0 0 0-4.689.817l-17.712 18.6c-.34 3.77-.689 7.991-1.04 12.692l22.503-23.63zM648.663 172.496a4.002 4.002 0 0 0 4.756-.599l26.664-25.742 32.216 18.323a4 4 0 0 0 4.756-.6l26.66-25.74 32.212 18.323a4.004 4.004 0 0 0 4.756-.599l26.664-25.742 32.216 18.323a4 4 0 0 0 4.756-.599l26.666-25.742 32.218 18.323a4 4 0 0 0 4.756-.599l24.536-23.683c-.141-3.622-.283-7.12-.427-10.502-.3.166-.586.362-.842.608l-26.669 25.743-32.218-18.323a3.999 3.999 0 0 0-4.756.599l-26.666 25.742-32.217-18.323a4.002 4.002 0 0 0-4.756.599l-26.663 25.742-32.213-18.323a4 4 0 0 0-4.756.6l-26.66 25.74-32.216-18.323a4.002 4.002 0 0 0-4.756.599l-26.663 25.742-32.214-18.323a4.002 4.002 0 0 0-4.756.6l-22.654 21.871c-.153 3.706-.303 7.555-.448 11.551l26.504-25.588 32.214 18.322zM931.215 174.426l-27.479 24.529-31.131-19.686a4 4 0 0 0-4.802.397l-27.477 24.529-31.129-19.686a4 4 0 0 0-4.802.397l-27.475 24.529-31.125-19.686a4 4 0 0 0-4.802.397l-27.47 24.528-31.129-19.685a4 4 0 0 0-4.802.397l-27.475 24.529-31.127-19.686a4 4 0 0 0-4.802.397l-25.474 22.745c-.073 3.431-.141 6.943-.206 10.529.463-.17.901-.425 1.286-.769l27.472-24.529 31.127 19.686a4.002 4.002 0 0 0 4.802-.397l27.475-24.529 31.129 19.685a4.004 4.004 0 0 0 4.802-.397l27.47-24.528 31.125 19.685a4.002 4.002 0 0 0 4.802-.396l27.475-24.529 31.129 19.686a4.004 4.004 0 0 0 4.802-.397l27.476-24.527 31.13 19.686a4.002 4.002 0 0 0 4.802-.397l27.48-24.53.141.089c-.065-3.072-.132-6.097-.2-9.064a3.996 3.996 0 0 0-3.018.998zM618.09 263.047l30.032 21.01a4.003 4.003 0 0 0 4.834-.188l28.307-23.284 30.033 21.01a4 4 0 0 0 4.834-.189l28.303-23.283 30.029 21.009a4 4 0 0 0 4.834-.188l28.307-23.284 30.034 21.01a4.001 4.001 0 0 0 4.834-.188l28.309-23.284 30.035 21.01a4.001 4.001 0 0 0 4.834-.188l28.312-23.285 1.5 1.049a6477 6477 0 0 0-.097-9.725 3.998 3.998 0 0 0-4.14.568l-28.312 23.285-30.035-21.01a4.002 4.002 0 0 0-4.834.188l-28.309 23.284-30.034-21.01a4.003 4.003 0 0 0-4.834.188l-28.307 23.284-30.029-21.009a4 4 0 0 0-4.834.188l-28.303 23.283-30.033-21.01a4.001 4.001 0 0 0-4.834.188l-28.307 23.284-30.032-21.01a4 4 0 0 0-4.834.189l-27.405 22.544c-.025 3.183-.048 6.423-.068 9.704a3.987 3.987 0 0 0 1.906-.857l28.304-23.283zM931.25 310.848l-29.163 22.005-28.937-22.295a4 4 0 0 0-4.851-.024l-29.159 22.005-28.936-22.295a4.001 4.001 0 0 0-4.851-.024l-29.157 22.005-28.932-22.295a4 4 0 0 0-4.852-.024l-29.151 22.005-28.937-22.295a4.001 4.001 0 0 0-4.852-.024l-29.155 22.005-28.935-22.295a4.003 4.003 0 0 0-4.852-.024l-28.745 21.697c.005 3.138.012 6.243.022 9.304a3.973 3.973 0 0 0 1.955-.773l29.153-22.005 28.935 22.296a3.998 3.998 0 0 0 4.851.023l29.156-22.005 28.937 22.296a4 4 0 0 0 4.852.023l29.151-22.004 28.932 22.294a3.995 3.995 0 0 0 4.851.024l29.157-22.005 28.937 22.296a4 4 0 0 0 4.851.023l29.159-22.005 28.937 22.296a4.001 4.001 0 0 0 4.851.024l29.163-22.006 2.144 1.651c-.001-3.389-.004-6.747-.01-10.065a3.995 3.995 0 0 0-4.519.191zM619.745 371.961l27.837 23.542a4 4 0 0 0 4.853.24l30.021-20.69 27.84 23.543a3.998 3.998 0 0 0 4.854.238l30.016-20.689 27.835 23.541a4 4 0 0 0 4.853.24l30.021-20.69 27.84 23.544a4.001 4.001 0 0 0 4.853.239l30.022-20.69 27.841 23.543a4.002 4.002 0 0 0 4.853.239l30.025-20.69 2.222 1.879c.027-3.4.052-6.851.075-10.341a4.002 4.002 0 0 0-4.319.14l-30.025 20.69-27.841-23.543a4.002 4.002 0 0 0-4.853-.239l-30.022 20.69-27.84-23.544a4.001 4.001 0 0 0-4.853-.239l-30.021 20.689-27.835-23.541a3.996 3.996 0 0 0-4.854-.239l-30.016 20.689-27.84-23.543a4.002 4.002 0 0 0-4.853-.239l-30.021 20.69-27.837-23.542a4 4 0 0 0-4.854-.24l-29.59 20.396c.037 3.128.077 6.202.12 9.231.517-.105 1.02-.3 1.475-.614l30.018-20.69zM647.321 451.184a3.997 3.997 0 0 0 4.839.455l30.893-19.337 26.75 24.752a4 4 0 0 0 4.84.455l30.888-19.338 26.746 24.751a3.999 3.999 0 0 0 4.839.455l30.894-19.337 26.75 24.752a3.998 3.998 0 0 0 4.839.455l30.896-19.337 26.751 24.751a4 4 0 0 0 4.839.455l30.898-19.337 1.638 1.516c.065-3.367.128-6.79.189-10.279a3.988 3.988 0 0 0-3.479.359l-30.898 19.337-26.751-24.752a4 4 0 0 0-4.839-.454l-30.896 19.337-26.75-24.752a3.998 3.998 0 0 0-4.839-.455l-30.893 19.337-26.747-24.751a4.001 4.001 0 0 0-4.839-.455l-30.889 19.338-26.75-24.752a3.998 3.998 0 0 0-4.839-.455l-30.893 19.337-26.748-24.751a3.998 3.998 0 0 0-4.839-.455l-29.819 18.667c.081 3.15.165 6.231.252 9.245.11-.055.222-.103.328-.17l30.891-19.338 26.748 24.751zM899.605 533.626l-25.675-25.924a3.997 3.997 0 0 0-4.809-.668l-31.771 17.944-25.675-25.924a3.997 3.997 0 0 0-4.81-.668l-31.768 17.945-25.67-25.924a3.999 3.999 0 0 0-4.811-.668l-31.763 17.946-25.675-25.925a3.998 3.998 0 0 0-4.81-.668l-31.767 17.945-25.672-25.924a3.997 3.997 0 0 0-4.81-.668l-29.18 16.485c.144 3.086.289 6.067.437 8.942l30.019-16.958 25.672 25.924a3.997 3.997 0 0 0 4.81.668l31.767-17.945 25.675 25.925a3.997 3.997 0 0 0 4.81.668l31.763-17.946 25.671 25.924a3.997 3.997 0 0 0 4.81.668l31.768-17.945 25.675 25.924a3.997 3.997 0 0 0 4.809.668l31.771-17.944 25.675 25.924a3.995 3.995 0 0 0 4.809.668l31.773-17.944.156.158c.107-2.965.212-6.011.316-9.129-.6.033-1.198.193-1.746.504l-31.774 17.942zM898.746 603.425l-24.506-27.199a3.997 3.997 0 0 0-4.758-.901l-32.76 16.344-24.506-27.198a3.998 3.998 0 0 0-4.758-.901L774.7 579.914l-24.501-27.197a4.002 4.002 0 0 0-4.758-.901l-32.753 16.345-24.505-27.198a3.996 3.996 0 0 0-4.758-.901l-32.758 16.344-24.503-27.198a3.997 3.997 0 0 0-4.758-.901l-27.066 13.506c.279 3.144.551 5.981.811 8.536l27.106-13.526 24.503 27.198a3.998 3.998 0 0 0 4.758.901l32.758-16.344 24.505 27.198a4.004 4.004 0 0 0 4.758.901l32.753-16.345 24.501 27.197a3.997 3.997 0 0 0 4.758.901l32.758-16.344 24.506 27.198a3.995 3.995 0 0 0 4.758.901l32.76-16.344 24.506 27.198a3.995 3.995 0 0 0 4.757.901l29.445-14.688c.211-2.865.427-5.952.647-9.262l-30.942 15.435z" fill="#FF3A00"/><path d="M713.835 70.706a2 2 0 0 0 2.342-.42l26.675-28.275 34.842 17.238a2.004 2.004 0 0 0 2.342-.42l26.493-28.078c-2.121.327-4.272.662-6.45 1.006l-21.938 23.25-29.134-14.414c-3.964.742-7.973 1.501-12.068 2.293l-.507.098-22.15 23.479-27.113-13.412c-2.134.463-4.217.92-6.251 1.37l32.917 16.285zM649.969 82.164c.787.39 1.737.219 2.342-.42l25.027-26.525c-2.401.537-4.732 1.065-6.994 1.583l-19.928 21.121-21.582-10.677a453.117 453.117 0 0 0-5.689 1.648l26.824 13.27zM841.561 47.792a2 2 0 0 0 2.342-.42l23.274-24.665c-2.003.218-4.042.444-6.146.685l-19.022 20.159-28.124-13.912c-2.272.339-4.569.685-6.909 1.045l34.585 17.108zM876.01 21.78l29.42 14.554a1.997 1.997 0 0 0 2.341-.42l11.428-12.109a22.534 22.534 0 0 0-3.475-2.146l-9.846 10.433-22.325-11.044c-2.412.225-4.926.469-7.543.732zM599.415 81.578l5.083-5.388a22.412 22.412 0 0 0-5.083 5.388zM871.243 84.435a1.996 1.996 0 0 0-2.374.318l-27.568 27-33.695-18.802a1.998 1.998 0 0 0-2.374.318l-27.567 26.999-33.691-18.803a1.999 1.999 0 0 0-2.374.318l-27.562 26.999-33.695-18.802a1.998 1.998 0 0 0-2.374.318l-27.566 26.999-33.693-18.802a1.997 1.997 0 0 0-2.374.318l-22.614 22.15c-.109 1.918-.218 3.89-.325 5.917l24.669-24.164 33.693 18.802c.774.431 1.74.302 2.374-.318l27.566-26.999 33.695 18.802c.775.432 1.74.301 2.374-.318l27.562-26.999 33.691 18.803c.775.431 1.74.302 2.374-.318l27.567-27 33.695 18.803a2 2 0 0 0 2.374-.318l27.568-27 33.696 18.802c.774.432 1.74.301 2.374-.317l24.341-23.835c-.095-1.817-.191-3.592-.286-5.32l-25.785 25.251-33.696-18.802zM932.478 145.451l-28.486 25.684-32.526-20.323a1.998 1.998 0 0 0-2.398.211l-28.484 25.684-32.525-20.323a2 2 0 0 0-2.399.211l-28.48 25.683-32.521-20.323a1.999 1.999 0 0 0-2.399.211l-28.477 25.683-32.524-20.323a1.997 1.997 0 0 0-2.399.211l-28.481 25.684-32.521-20.323a1.999 1.999 0 0 0-2.399.211l-26.067 23.508c-.054 1.816-.106 3.661-.158 5.53l27.785-25.057 32.521 20.323a2 2 0 0 0 2.398-.211l28.482-25.684 32.524 20.323a2.003 2.003 0 0 0 2.399-.211l28.477-25.683 32.521 20.323a2.002 2.002 0 0 0 2.399-.211l28.481-25.684 32.525 20.323a1.998 1.998 0 0 0 2.398-.211l28.484-25.684 32.525 20.323a2 2 0 0 0 2.398-.211l28.073-25.312c-.047-1.624-.094-3.232-.142-4.82a1.99 1.99 0 0 0-1.004.468zM932.424 213.7l-29.365 24.404-31.399-21.716a2 2 0 0 0-2.416.107l-29.361 24.404-31.399-21.716a2 2 0 0 0-2.416.107l-29.359 24.403-31.396-21.716a2 2 0 0 0-2.416.107l-29.354 24.403-31.399-21.716a2 2 0 0 0-2.416.107l-29.359 24.403-31.399-21.717a2.002 2.002 0 0 0-2.416.107l-28.32 23.541-.068 5.17c.148-.07.291-.153.421-.261l29.356-24.403 31.396 21.716a2.002 2.002 0 0 0 2.416-.107l29.359-24.403 31.399 21.716a2 2 0 0 0 2.416-.107l29.354-24.403 31.396 21.716a2 2 0 0 0 2.416-.107l29.359-24.403 31.399 21.716a2 2 0 0 0 2.416-.107l29.361-24.404 31.399 21.716a2 2 0 0 0 2.416-.107l29.365-24.404 1.258.87-.073-4.913-.159-.11a1.997 1.997 0 0 0-2.412.107zM932.382 281.972l-30.259 23.083-30.267-23.067a2 2 0 0 0-2.425.001l-30.255 23.083-30.267-23.067a2 2 0 0 0-2.425.001l-30.253 23.083-30.261-23.067a2 2 0 0 0-2.426 0l-30.249 23.083-30.266-23.067a2 2 0 0 0-2.425.001l-30.253 23.083-30.262-23.067a2.001 2.001 0 0 0-2.426.001l-29.86 22.788c-.004 1.574-.009 3.154-.012 4.75.297-.057.587-.157.838-.349l30.251-23.083 30.263 23.067a2 2 0 0 0 2.425-.001l30.253-23.083 30.266 23.067a2 2 0 0 0 2.425-.001l30.249-23.083 30.261 23.067a2.001 2.001 0 0 0 2.426-.001l30.253-23.083 30.267 23.067a1.998 1.998 0 0 0 2.425-.001l30.255-23.083 30.267 23.067a2.001 2.001 0 0 0 2.425 0l30.259-23.083 2.104 1.603c-.007-1.695-.016-3.372-.024-5.047l-.869-.663a2.006 2.006 0 0 0-2.428.001zM932.383 351.262l-31.224 21.64-29.068-24.453a2.002 2.002 0 0 0-2.427-.113l-31.221 21.64-29.068-24.453a2.003 2.003 0 0 0-2.427-.113l-31.218 21.641-29.064-24.453a2 2 0 0 0-2.427-.113l-31.214 21.64-29.067-24.452a2.002 2.002 0 0 0-2.427-.113l-31.218 21.64-29.066-24.453a2.002 2.002 0 0 0-2.427-.113l-30.926 21.44.032 4.652c.246-.055.485-.143.701-.293l31.215-21.641 29.066 24.453a2 2 0 0 0 2.427.113l31.218-21.64 29.067 24.452a2 2 0 0 0 2.427.113l31.214-21.64 29.064 24.453a2 2 0 0 0 2.427.113l31.218-21.641 29.068 24.453a2 2 0 0 0 2.427.113l31.221-21.64 29.068 24.453a2 2 0 0 0 2.427.113l31.224-21.64 2.31 1.943c.007-1.726.013-3.464.018-5.211l-.924-.777a2 2 0 0 0-2.426-.113zM932.318 418.592l-32.072 20.317-27.995-25.641a2 2 0 0 0-2.421-.215l-32.068 20.317-27.995-25.642a2.001 2.001 0 0 0-2.421-.215l-32.066 20.318-27.991-25.641a2.002 2.002 0 0 0-2.421-.215l-32.062 20.318-27.996-25.638a2 2 0 0 0-2.421-.215l-32.066 20.318-27.992-25.642a2.001 2.001 0 0 0-2.421-.215l-31.376 19.882.088 4.665c.023-.013.049-.016.071-.03l32.064-20.318 27.992 25.642a2 2 0 0 0 2.421.215l32.066-20.318 27.995 25.642a2.003 2.003 0 0 0 2.421.215l32.062-20.318 27.991 25.641c.665.61 1.656.697 2.421.215l32.066-20.318 27.995 25.642c.666.61 1.656.697 2.421.215l32.068-20.317 27.995 25.641a2.003 2.003 0 0 0 2.421.215l32.072-20.317 1.986 1.819c.024-1.772.047-3.56.069-5.36l-.482-.442a1.988 1.988 0 0 0-2.419-.22zM932.254 485.946l-32.921 18.959-26.928-26.794a2.003 2.003 0 0 0-2.409-.315l-32.918 18.959-26.927-26.794a2 2 0 0 0-2.409-.315l-32.916 18.959-26.922-26.793a2.003 2.003 0 0 0-2.409-.315l-32.911 18.959-26.927-26.793a2.002 2.002 0 0 0-2.409-.315l-32.916 18.959-26.924-26.794a2.004 2.004 0 0 0-2.409-.315l-31.1 17.916c.053 1.527.107 3.036.162 4.523l31.609-18.209 26.924 26.794a2.002 2.002 0 0 0 2.409.315l32.916-18.959 26.927 26.793a2.004 2.004 0 0 0 2.409.315l32.911-18.959 26.922 26.793a2 2 0 0 0 2.409.315l32.916-18.959 26.927 26.794a2.003 2.003 0 0 0 2.409.315l32.918-18.959 26.928 26.794a2 2 0 0 0 2.409.315l32.921-18.959.919.915c.046-1.731.092-3.482.137-5.253a1.983 1.983 0 0 0-1.727.108zM872.62 545.725a2.003 2.003 0 0 0-2.387-.427l-33.882 17.383-25.754-28.05a2 2 0 0 0-2.387-.427l-33.881 17.384-25.75-28.049a2 2 0 0 0-2.387-.427l-33.876 17.383-25.753-28.049a2.002 2.002 0 0 0-2.387-.427l-33.88 17.384-25.752-28.05a2.002 2.002 0 0 0-2.387-.427l-29.734 15.257c.094 1.487.188 2.937.283 4.351l29.922-15.354 25.752 28.05a2.004 2.004 0 0 0 2.387.427l33.88-17.384 25.753 28.05a2.004 2.004 0 0 0 2.387.427l33.876-17.383 25.75 28.048a2.003 2.003 0 0 0 2.387.427l33.881-17.384 25.754 28.05a2.003 2.003 0 0 0 2.387.427l33.882-17.383 25.754 28.05a2.003 2.003 0 0 0 2.387.427l32.377-16.608c.076-1.505.152-3.047.228-4.612l-33.076 16.966-25.754-28.05zM872.887 609.131a2.003 2.003 0 0 0-2.371-.475L842.177 622.4c2.477.31 4.925.613 7.312.9l21.407-10.382 12.448 14.078c2.009.196 3.95.38 5.831.555l-16.288-18.42zM810.865 596.713a2.003 2.003 0 0 0-2.371-.475l-33.643 16.315c2.297.384 4.578.762 6.838 1.13l27.185-13.183 17.552 19.85c2.042.276 4.061.545 6.053.807l-21.614-24.444zM748.847 584.295a2.002 2.002 0 0 0-2.371-.475l-34.352 16.662-25.293-28.604a2.002 2.002 0 0 0-2.371-.475l-32.209 15.62c1.946.504 3.94 1.015 6.001 1.536l26.588-12.894 21.11 23.874c3.921.827 7.956 1.663 12.118 2.506l28.788-13.963 20.513 23.201c2.109.363 4.204.719 6.284 1.068l-24.806-28.056zM624.813 559.46a2.005 2.005 0 0 0-2.371-.475l-20.786 10.082a22.456 22.456 0 0 0 3.252 2.869l17.914-8.689 18.441 20.856c2.238.611 4.572 1.237 7 1.878l-23.45-26.521z" fill="#FF3A00"/><path d="M939.029 630.981a3.191 3.191 0 0 1-2.61-3.38c2.905-38.27 8.87-142.878 8.87-300.27 0-169.37-4.702-250.277-7.505-283.43C936.149 24.574 920.628 10 901.68 10c-.826 0-1.661.029-2.481.086-25.918 1.801-81.725 7.255-164.279 23.547-73.14 14.435-108.158 24.421-124.657 30.258-12.973 4.588-22.434 16.555-24.104 30.486-2.947 24.591-7.891 87.166-7.891 229.968 0 112.827 3.082 200.454 5.83 237.281a3.19 3.19 0 0 1-3.759 3.375l-3.68-.673a3.185 3.185 0 0 1-2.61-2.894c-2.745-36.644-5.781-125.172-5.781-237.088 0-143.321 4.988-206.346 7.961-231.158 2.119-17.677 14.169-32.877 30.698-38.724 16.812-5.947 52.327-16.09 126.057-30.641C816.074 7.425 872.353 1.928 898.505.111a46.025 46.025 0 0 1 3.176-.11c24.188 0 43.993 18.511 46.069 43.058 2.815 33.311 7.54 114.536 7.54 284.273 0 158.247-5.988 262.883-8.927 301.413a3.188 3.188 0 0 1-3.758 2.89l-3.576-.654z" fill="#FF3A00"/><path d="M753.033 393.477c23.48 0 42.514-32.782 42.514-73.221 0-40.439-19.034-73.221-42.514-73.221-23.48 0-42.514 32.782-42.514 73.221 0 40.439 19.034 73.221 42.514 73.221z" fill="#FF3A00"/><path d="M751.675 380.827c18.761 0 33.97-27.119 33.97-60.571s-15.209-60.571-33.97-60.571-33.97 27.119-33.97 60.571 15.209 60.571 33.97 60.571zM23.992 559.912l-.151-3.066c.05 1.035.1 2.057.151 3.066zM23.793 555.838l-.152-3.218c.05 1.087.101 2.16.152 3.218zM23.192 542.517a1892.41 1892.41 0 0 1-.146-3.503l.146 3.503zM23.606 551.874zM20.264 433.565zM22.825 533.516c-.063-1.611-.126-3.246-.188-4.906.063 1.66.125 3.294.188 4.906zM23.005 538.001zM49.277 628.913zM42.148 627.683zM47.379 628.815zM51.296 628.844zM20.169 426.995zM43.852 628.199zM45.722 628.604z" fill="#04294F"/><path d="M360.967 197.913c-3.299 6.465-7.124 13.702-11.259 21.617-4.118 7.925-8.721 16.431-13.512 25.471-4.798 9.037-9.991 18.492-15.29 28.314-5.297 9.823-10.929 19.885-16.565 30.158a1671.767 1671.767 0 0 1-6.682 12.069c-1.59-5.881-5.568-11.571-7.514-17.262.385-.685.769-1.376 1.154-2.059 5.751-10.209 11.326-20.303 16.875-29.986 5.546-9.684 10.837-19.085 15.981-27.929 5.15-8.84 9.947-17.239 14.505-24.919 4.541-7.689 8.67-14.757 12.42-20.971 3.72-6.231 6.979-11.654 9.7-16.1a828.075 828.075 0 0 1 4.167-6.817c-1.694-41.555-3.883-65.399-5.447-78.191a22.4 22.4 0 0 0-14.899-18.443c-14.889-5.163-46.166-14.037-110.486-26.88 1.481.296 2.949.59 4.395.881a296.724 296.724 0 0 1-5.075 11.631c-4.609 9.91-9.719 19.543-15.135 29.007-5.395 9.476-11.044 18.811-17.022 27.965a388.228 388.228 0 0 1-9.237 13.582c-3.187 4.468-6.456 8.89-9.992 13.166a7.258 7.258 0 0 1-10.218.968c-2.364-1.955-3.165-5.108-2.27-7.858 1.732-5.271 3.729-10.395 5.809-15.474a387.419 387.419 0 0 1 6.564-15.057c4.556-9.939 9.441-19.696 14.579-29.313 5.117-9.629 10.541-19.089 16.466-28.272a328.134 328.134 0 0 1 3.153-4.749C149.32 29.613 100.115 23.605 69.057 20.801c-.786 2.515-1.761 4.925-2.799 7.301-1.484 3.313-3.169 6.515-4.976 9.649a148.332 148.332 0 0 1-5.731 9.233c-2.035 3.009-4.181 5.956-6.614 8.746a2.918 2.918 0 0 1-4.996-2.756c1.062-3.545 2.411-6.933 3.871-10.259a148.304 148.304 0 0 1 4.754-9.772c1.688-3.2 3.498-6.333 5.509-9.355a94.234 94.234 0 0 1 2.502-3.513c-3.445-.278-6.62-.513-9.495-.709-12.228-.833-22.855 8.274-23.908 20.485-1.728 20.029-4.056 56.102-5.692 116.416.164-6.055.336-11.869.512-17.444.819-1.533 1.629-3.072 2.454-4.602 7.335-13.648 14.976-27.127 23.119-40.329 4.088-6.592 8.286-13.124 12.655-19.56C64.6 67.9 69.098 61.534 74.004 55.393a7.236 7.236 0 0 1 10.169-1.137c2.458 1.963 3.29 5.214 2.319 8.027-2.578 7.425-5.565 14.625-8.672 21.758-3.115 7.129-6.402 14.163-9.798 21.137-6.826 13.929-14.154 27.581-21.788 41.064-7.613 13.495-15.479 26.849-23.675 40.023-.613.985-1.231 1.967-1.847 2.951-.732 37.175-1.202 81.829-1.202 135.276a8900.113 8900.113 0 0 0 .02 18.786 448.393 448.393 0 0 1 3.739-7.101c2.904-5.406 5.932-10.744 9.159-15.972a216.193 216.193 0 0 1 5.023-7.741c1.739-2.545 3.509-5.072 5.463-7.499a2.896 2.896 0 0 1 4.995 2.755c-1.011 2.947-2.205 5.792-3.43 8.62a216.325 216.325 0 0 1-3.869 8.378c-2.701 5.518-5.602 10.926-8.626 16.266a408.987 408.987 0 0 1-9.389 15.845 433.606 433.606 0 0 1-3.006 4.732 7126.104 7126.104 0 0 0 .338 45.62l3.993-7.538 13.382-24.881c4.534-8.486 9.267-17.037 13.949-25.616 4.705-8.565 9.347-17.166 14.062-25.552 4.705-8.392 9.25-16.697 13.802-24.65 4.55-7.954 8.878-15.682 13.108-22.94 4.237-7.254 8.17-14.153 11.932-20.45 3.744-6.306 7.143-12.104 10.246-17.194 3.073-5.106 5.768-9.549 8.024-13.188 4.476-7.297 7.124-11.417 7.124-11.417a4.287 4.287 0 1 1 7.492 4.133s-2.073 4.437-5.859 12.115c-1.875 3.849-4.197 8.498-6.877 13.821-2.651 5.339-5.744 11.306-9.082 17.836-3.32 6.539-7.059 13.545-10.936 20.999-3.884 7.449-8.113 15.232-12.416 23.322-4.3 8.092-8.902 16.366-13.492 24.821-4.579 8.461-9.379 16.975-14.117 25.523-4.76 8.535-9.47 17.099-14.231 25.459l-13.912 24.59-13.155 22.914-2.697 4.633c.571 38.057 1.417 69.258 2.368 94.672a372.9 372.9 0 0 1 9.928-20.137c4.184-7.938 8.675-15.706 13.667-23.197 2.513-3.737 5.135-7.413 7.929-10.994 2.806-3.575 5.718-7.091 9.056-10.373a7.44 7.44 0 0 1 10.523.09c1.814 1.845 2.459 4.444 1.964 6.8-.996 4.574-2.418 8.912-3.946 13.192-1.539 4.274-3.251 8.452-5.072 12.571-3.675 8.218-7.852 16.16-12.336 23.932-4.462 7.784-9.178 15.428-14.223 22.891a263.832 263.832 0 0 1-7.837 11.045c-2.562 3.412-5.207 6.78-8.07 10.027a1525.82 1525.82 0 0 1-.191-3.752c1.071 21.366 2.172 36.846 3.103 47.701.673 7.846 5.307 14.401 11.766 17.869a22.932 22.932 0 0 1-1.479-.865 1185.09 1185.09 0 0 1 3.542-7.121 2723.431 2723.431 0 0 1 11.348-22.391l6.277-12.18 6.618-12.685c4.527-8.593 9.2-17.476 14.03-26.456 4.792-9.002 9.76-18.091 14.694-27.198 4.999-9.072 9.943-18.174 14.935-27.065 2.473-4.458 4.95-8.868 7.425-13.21 2.461-4.349 4.895-8.644 7.331-12.845a1862.354 1862.354 0 0 1 16.588-28.312l.054-.095c4.829-8.171-3.234-18.413.265-21 3.143-2.324 6.817 2.167 7.644 7.887v.001l.052-.084c.271 1.373.664 2.685 1.269 3.893 2.897 5.786 9.087 9.192 14.414 12.809l-.015.03c4.742 3.219 8.781 12.263 9.44 21.259.892 12.174-10.521 12.023-9.659 1.181.756-9.516-4.031-14.045-7.742-6.848-.014.028-.026.045-.04.072a1899.954 1899.954 0 0 1-10.985 20.976 1401.846 1401.846 0 0 1-6.981 13.038 1301.941 1301.941 0 0 1-7.239 13.312c-4.876 8.955-9.955 17.982-14.981 27.04-5.089 9.021-10.146 18.062-15.222 26.907-5.038 8.865-10.075 17.546-14.946 25.949l-7.224 12.35-6.978 11.792a2711.192 2711.192 0 0 1-12.929 21.517l-.213.349-1.779.153c17.272-1.475 42.122-3.973 72.359-8.056-5.371.725-10.571 1.401-15.59 2.029a705.334 705.334 0 0 1 3.915-8.295 931.03 931.03 0 0 1 14.986-29.826c5.151-9.859 10.487-19.619 16.126-29.217 5.684-9.574 11.529-19.062 18.132-28.145a4.32 4.32 0 0 1 7.548 4.032c-3.88 10.538-8.517 20.671-13.316 30.718-4.844 10.023-9.99 19.884-15.322 29.647a929.017 929.017 0 0 1-16.463 29.037l-.012.02a1657.732 1657.732 0 0 0 82.853-13.332c71.575-13.396 113.258-25.535 132.609-31.933a22.417 22.417 0 0 0 15.247-18.731c2.915-25.442 8.023-90.616 8.023-234.885 0-55.57-.758-98.96-1.857-132.68a2182.877 2182.877 0 0 1-4.681 9.112zm-249.904-49.158c-1.114 4.787-2.654 9.339-4.299 13.832-1.657 4.487-3.487 8.879-5.425 13.211-3.911 8.645-8.323 17.013-13.042 25.213-4.698 8.211-9.649 16.282-14.93 24.171a292.708 292.708 0 0 1-8.19 11.685c-2.838 3.836-5.759 7.626-8.945 11.269a7.3 7.3 0 0 1-10.299.689 7.306 7.306 0 0 1-2.189-7.578c1.383-4.639 3.031-9.13 4.763-13.577a293.328 293.328 0 0 1 5.518-13.16c3.858-8.674 8.046-17.167 12.486-25.519 4.42-8.364 9.146-16.56 14.374-24.478 2.631-3.95 5.37-7.84 8.283-11.634 2.924-3.788 5.953-7.518 9.409-11.013a7.41 7.41 0 0 1 10.48-.059 7.427 7.427 0 0 1 2.006 6.948zM92.362 390.498a36.031 36.031 0 0 1-1.264 4.317c-1.019 2.781-2.339 5.396-3.843 7.909a65.26 65.26 0 0 1-4.975 7.284c-1.84 2.328-3.851 4.561-6.299 6.554a4.613 4.613 0 0 1-7.492-4.134c.381-3.133 1.197-6.025 2.185-8.823a65.26 65.26 0 0 1 3.509-8.093c1.324-2.612 2.833-5.123 4.641-7.468a35.88 35.88 0 0 1 2.978-3.371c1.091-1.07 2.245-2.105 3.654-2.999a4.88 4.88 0 0 1 7.493 4.134c-.003 1.669-.264 3.196-.587 4.69zm230.352 62.477c.231-2.047.753-3.935 1.389-5.759a41.555 41.555 0 0 1 2.271-5.272c.86-1.7 1.843-3.333 3.026-4.855 1.213-1.506 2.532-2.953 4.353-4.123a3.243 3.243 0 0 1 4.996 2.756c-.019 2.165-.539 4.052-1.166 5.881-.657 1.813-1.514 3.515-2.494 5.149a41.569 41.569 0 0 1-3.248 4.733c-1.204 1.511-2.522 2.958-4.131 4.246a3.087 3.087 0 0 1-4.996-2.756zm-134.615-6.244c-4.047-2.665-5.639-7.688-7.178-12.545-1.063-3.354-2.162-6.821-3.992-9.258-.708-.942-1.78-1.882-3.372-2.957a3.003 3.003 0 0 1-.807-4.166 3.003 3.003 0 0 1 4.166-.807c2.16 1.46 3.688 2.834 4.81 4.325 2.444 3.255 3.7 7.218 4.915 11.05 1.279 4.038 2.487 7.852 4.758 9.346 3.233 2.129 7.836 1.133 12.707.076 2.86-.619 5.818-1.26 8.644-1.26 2.826 0 5.783.641 8.644 1.26 4.872 1.055 9.472 2.054 12.706-.075 2.271-1.494 3.479-5.308 4.759-9.345 1.215-3.832 2.471-7.796 4.916-11.049 1.982-2.639 4.932-4.505 8.301-6.499a2.998 2.998 0 0 1 4.109 1.053 2.998 2.998 0 0 1-1.053 4.109c-2.808 1.663-5.239 3.183-6.561 4.94-1.831 2.438-2.931 5.905-3.993 9.259-1.54 4.856-3.132 9.879-7.18 12.543-2.545 1.676-5.32 2.24-8.133 2.24-3.085 0-6.215-.679-9.143-1.312-2.669-.578-5.189-1.124-7.373-1.124s-4.704.546-7.373 1.124c-5.596 1.212-11.937 2.587-17.277-.928zm-7.158-146.01c-.111-.779-.223-1.555-.313-2.324a3 3 0 0 1 5.959-.706c.085.722.189 1.449.294 2.179.328 2.295.668 4.669.523 7.156-.137 2.337-.734 4.576-1.312 6.741-.607 2.275-1.182 4.425-1.182 6.489 0 2.067.574 4.218 1.183 6.494.173.646.345 1.29.504 1.932a3.002 3.002 0 0 1-2.914 3.723 3.002 3.002 0 0 1-2.91-2.279 96.761 96.761 0 0 0-.477-1.827c-.682-2.55-1.386-5.188-1.386-8.042 0-2.852.704-5.488 1.385-8.037.523-1.961 1.019-3.814 1.119-5.542.11-1.885-.173-3.863-.473-5.957zm54.481-67.098a4.001 4.001 0 0 1-5.176-2.282c-.979-2.524-1.874-4.402-3.056-5.359-2.697-2.184-6.599-1.983-10.73-1.771-1.221.062-2.482.127-3.72.127a4 4 0 0 1 0-8c1.032 0 2.138-.057 3.309-.117 4.941-.254 11.095-.57 16.176 3.543 2.841 2.3 4.318 5.688 5.48 8.683a4 4 0 0 1-2.283 5.176zm.103 149.695c-.848 1.261-1.653 2.488-2.186 3.643-.751 1.632-1.318 3.376-1.866 5.063-.996 3.064-1.937 5.959-3.907 8.213-4.269 4.881-9.729 5.539-14.507 5.539-3.38 0-7.328-.303-10.986-2.549a3 3 0 0 1 3.141-5.113c2.378 1.461 5.176 1.662 7.846 1.662 4.165 0 7.458-.593 9.989-3.488 1.162-1.328 1.918-3.655 2.718-6.118.574-1.766 1.225-3.768 2.124-5.719.718-1.56 1.666-3.01 2.656-4.482a3 3 0 0 1 4.978 3.349zm-22.466-148.582c4.779 0 10.239.658 14.508 5.542.98 1.12 1.785 2.492 2.533 4.315a3 3 0 1 1-5.551 2.277c-.49-1.194-.967-2.034-1.499-2.643-2.533-2.897-5.826-3.491-9.991-3.491s-7.458.593-9.989 3.489c-1.162 1.329-1.918 3.656-2.72 6.121-.573 1.765-1.224 3.766-2.122 5.716-.794 1.722-1.885 3.339-2.939 4.902-1.405 2.082-2.858 4.235-3.557 6.578-.527 1.769-.546 3.943-.566 6.245a76.891 76.891 0 0 1-.075 3.245 3 3 0 0 1-5.992-.308c.051-.98.06-2.001.068-2.989.022-2.618.046-5.325.815-7.907.961-3.224 2.753-5.878 4.333-8.221.964-1.428 1.874-2.776 2.464-4.056.751-1.629 1.317-3.374 1.865-5.06.996-3.065 1.938-5.961 3.908-8.215 4.269-4.882 9.729-5.54 14.507-5.54zM197.381 390.47a3.002 3.002 0 0 1-3.869-1.743 27.096 27.096 0 0 0-.736-1.77c-.589-1.278-1.499-2.627-2.463-4.055-1.58-2.341-3.371-4.995-4.332-8.22a2.998 2.998 0 0 1 2.019-3.731 3.001 3.001 0 0 1 3.731 2.019c.698 2.343 2.15 4.495 3.556 6.576 1.056 1.563 2.146 3.18 2.939 4.902.312.676.604 1.38.897 2.153a3 3 0 0 1-1.742 3.869zm-17.815-11.004c-.074 2.858-.144 5.558.612 7.463 1.005 2.533 3.217 4.646 5.558 6.883 1.924 1.837 3.912 3.737 5.342 6.027 1.596 2.555 2.649 5.352 3.579 7.818 1.096 2.909 2.131 5.657 3.633 6.873 2.696 2.184 6.603 1.983 10.728 1.77 1.222-.062 2.484-.128 3.723-.128a4 4 0 0 1 0 8c-1.033 0-2.14.057-3.312.117-1.246.064-2.57.133-3.935.133-4.043 0-8.44-.599-12.239-3.675-3.188-2.582-4.66-6.49-6.084-10.27-.838-2.223-1.703-4.52-2.878-6.401-.897-1.438-2.444-2.915-4.083-4.48-2.727-2.604-5.816-5.557-7.468-9.717-1.359-3.427-1.265-7.083-1.174-10.619.07-2.697.136-5.246-.438-7.444-.386-1.477-1.269-3.085-2.081-4.464a4 4 0 1 1 6.891-4.063c1.094 1.854 2.296 4.076 2.931 6.506.859 3.294.772 6.682.695 9.671zm76.053-158.653c4.241 2.506 9.047 5.347 11.346 10.22 1.926 4.083 1.311 8.884.716 13.527-.471 3.675-.958 7.476-.052 10.415.772 2.509 3.074 5.038 5.51 7.715.533.585 1.067 1.173 1.592 1.766a3 3 0 0 1-4.496 3.973c-.505-.571-1.02-1.137-1.533-1.701-2.772-3.046-5.639-6.197-6.807-9.986-1.288-4.18-.718-8.636-.165-12.944.508-3.963.987-7.706-.191-10.205-1.512-3.205-5.305-5.446-8.972-7.614-3.265-1.93-6.641-3.925-8.792-6.789-2.204-2.933-3.48-6.574-4.504-9.757a3 3 0 0 1 5.712-1.836c.913 2.842 1.943 5.8 3.588 7.989 1.434 1.909 4.161 3.52 7.048 5.227zm-15.323 172.471c2.114-2.029 4.088-4.042 5.005-6.357.757-1.905.687-4.604.613-7.462-.077-2.989-.165-6.377.694-9.67.781-2.994 2.384-5.627 3.935-8.173 1.572-2.582 3.058-5.021 3.445-7.439.337-2.104-.256-4.728-.884-7.505-.7-3.097-1.424-6.3-1.164-9.707.245-3.217 1.419-6.172 2.555-9.03 1.09-2.742 2.119-5.333 2.119-7.684 0-2.352-1.029-4.943-2.119-7.686-1.136-2.858-2.31-5.814-2.555-9.032-.261-3.407.464-6.611 1.164-9.709.627-2.777 1.22-5.401.883-7.503-.388-2.419-1.873-4.856-3.444-7.437-1.551-2.546-3.154-5.178-3.936-8.173-.858-3.292-.771-6.68-.694-9.668.074-2.858.144-5.559-.612-7.464-.8-2.018-2.372-3.799-4.487-5.854a4 4 0 0 1 5.576-5.738c2.468 2.399 4.945 5.106 6.348 8.642 1.358 3.426 1.265 7.083 1.173 10.621-.069 2.698-.135 5.246.438 7.443.484 1.857 1.72 3.884 3.027 6.031 1.816 2.981 3.875 6.361 4.511 10.332.582 3.627-.211 7.138-.979 10.534-.596 2.637-1.159 5.128-.99 7.336.153 2.005 1.057 4.28 2.014 6.688 1.258 3.167 2.684 6.757 2.684 10.639 0 3.882-1.426 7.471-2.685 10.638-.956 2.408-1.859 4.682-2.013 6.685-.168 2.208.395 4.698.991 7.335.768 3.396 1.562 6.907.979 10.535-.636 3.971-2.695 7.352-4.512 10.334-1.307 2.146-2.542 4.175-3.026 6.031-.573 2.198-.507 4.746-.438 7.443.091 3.536.186 7.193-1.174 10.619-1.509 3.805-4.236 6.621-6.902 9.179a3.985 3.985 0 0 1-2.769 1.114 4.003 4.003 0 0 1-2.771-6.888zm79.614-183.562c-.846 3.665-2.194 7.052-3.649 10.381-1.484 3.313-3.169 6.515-4.976 9.649a148.332 148.332 0 0 1-5.731 9.233c-2.035 3.009-4.181 5.956-6.614 8.746a2.918 2.918 0 0 1-4.995-2.756c1.062-3.545 2.411-6.933 3.871-10.259a148.304 148.304 0 0 1 4.754-9.772c1.688-3.2 3.498-6.333 5.509-9.355 2.04-3.006 4.187-5.953 6.836-8.623a2.966 2.966 0 0 1 4.995 2.756zm-33.196-104.747c.231-2.047.753-3.935 1.389-5.759a41.555 41.555 0 0 1 2.271-5.272c.86-1.7 1.843-3.333 3.026-4.855 1.213-1.506 2.532-2.953 4.353-4.123a3.243 3.243 0 0 1 4.996 2.756c-.019 2.165-.539 4.052-1.166 5.881-.657 1.813-1.514 3.515-2.494 5.149a41.569 41.569 0 0 1-3.248 4.733c-1.204 1.511-2.522 2.958-4.131 4.246a3.087 3.087 0 0 1-4.996-2.756zm-1.249 82.311c1.118-3.304 2.403-6.515 3.728-9.705a232.394 232.394 0 0 1 4.165-9.464 354.34 354.34 0 0 1 9.217-18.438c3.227-6.061 6.637-12.02 10.349-17.814 3.756-5.769 7.672-11.45 12.34-16.715a4.386 4.386 0 0 1 7.493 4.134c-1.965 6.757-4.682 13.099-7.559 19.353-2.922 6.229-6.144 12.293-9.55 18.254a354.768 354.768 0 0 1-10.683 17.63 232.502 232.502 0 0 1-5.785 8.57c-1.991 2.822-4.023 5.621-6.222 8.329a4.347 4.347 0 0 1-6.115.635 4.359 4.359 0 0 1-1.378-4.769zm-62.723-22.17a881.96 881.96 0 0 1 2.409-3.71c.18-.285.366-.574.566-.868a921.237 921.237 0 0 1 9.74-14.649 615.349 615.349 0 0 1 7.732-11.165c2.153-3.09 3.908-5.482 5.097-7.116l1.845-2.494a7.178 7.178 0 0 1 12.35 7.135l-1.239 2.844c-.822 1.847-2.017 4.562-3.619 7.97a614.326 614.326 0 0 1-5.809 12.276 1162.74 1162.74 0 0 1-2.893 5.907l-.015.035c-6.831 14.155-3.092 9.864 4.185 18.898 7.277 9.033-3.517 13.303-6.026 5.775-4.273-12.819-20.79-11.339-40.901-5.768-21.725 6.019-22.989-10.292-5.535-10.033 15.304.226 19.56-1.806 22.113-5.037zm-87.95-60.41c-2.315 3.189-4.801 6.283-7.723 9.136a4.469 4.469 0 0 1-6.32-.075c-1.078-1.104-1.463-2.653-1.173-4.059.856-3.994 2.147-7.747 3.61-11.405a115.962 115.962 0 0 1 4.933-10.675c1.799-3.473 3.782-6.845 6.066-10.05 2.328-3.181 4.816-6.274 8.057-8.952a4.6 4.6 0 0 1 6.477.616 4.623 4.623 0 0 1 1.016 3.518c-.537 4.169-1.827 7.924-3.276 11.589-1.494 3.642-3.288 7.117-5.267 10.491a116.197 116.197 0 0 1-6.4 9.866zm-8.958 281.636c.389-4.361.697-7.74.884-10.299h.001c1-12.605.088-16.829 1.695-21.384 2.647-7.502-3.697-9.184-4.029 0-.272 7.549 1.817 19.149-7.488 17.861a7.153 7.153 0 0 1-1.687-.871c-2.88-2.024-3.81-5.788-2.375-8.872l1.304-2.807c.873-1.817 2.116-4.504 3.766-7.885.279-.565.57-1.159.867-1.766 2.568-5.205 3.397-18.21.997-33.603-3.859-24.741 13.051-21.563 8.499-12.215-2.643 5.427-2.476 18.354.923 24.904v.001l.054-.106c2.555 5.904 6.457 11.661 7.008 17.47.249 2.628-.121 5.329-.725 8.045l.047.011c-.664 3.562-3.014 17.579-.043 27.179.539 1.742 1.252 3.34 2.183 4.702 8.634 12.628-13.602 18.94-11.881-.365zm31.853-7.118a4.979 4.979 0 0 1-3.362 1.301 4.983 4.983 0 0 1-3.7-1.637c-3.029-3.331-6.8-7.478-7.821-12.894-.944-4.998.834-9.757 2.553-14.359 1.272-3.405 2.474-6.622 2.246-9.158-.201-2.253-1.952-5.175-3.497-7.751a4.999 4.999 0 0 1 1.718-6.859 4.997 4.997 0 0 1 6.858 1.718c1.994 3.325 4.475 7.464 4.882 12 .43 4.799-1.307 9.448-2.839 13.55-1.239 3.317-2.521 6.748-2.095 9.006.497 2.637 3.099 5.497 5.394 8.021a5 5 0 0 1-.337 7.062zm1.255-111.882l-.669.737c-2.646 2.909-5.146 5.656-5.644 8.296-.339 1.796.401 4.285 1.171 6.483a5.001 5.001 0 0 1-9.439 3.303c-1.206-3.448-2.335-7.527-1.558-11.641 1.023-5.42 4.769-9.537 8.072-13.169l.652-.718a4.997 4.997 0 0 1 7.062-.352 4.998 4.998 0 0 1 .353 7.061zm1.307-24.629a4 4 0 0 1-3.994-3.841c-.134-3.365.304-5.991 1.376-8.266 2.43-5.151 7.377-8.076 11.742-10.656 2.798-1.654 5.441-3.217 6.757-4.967 1.729-2.301 2.802-5.687 3.84-8.96 1.592-5.023 3.237-10.218 7.582-13.078 5.687-3.745 12.249-2.324 18.037-1.07 2.303.499 4.479.97 6.39 1.079a4 4 0 0 1 3.767 4.22c-.125 2.207-2.032 3.903-4.22 3.767-2.538-.144-5.127-.705-7.631-1.248-4.66-1.009-9.063-1.963-11.943-.067-1.975 1.3-3.131 4.949-4.355 8.812-1.183 3.73-2.522 7.959-5.069 11.35-2.271 3.022-5.734 5.069-9.083 7.049-3.7 2.188-7.195 4.253-8.577 7.181-.502 1.065-.698 2.506-.617 4.536a4.001 4.001 0 0 1-4.002 4.159zm1.465 68.863c.29-.778.598-1.554.905-2.327.928-2.335 1.805-4.542 1.946-6.394.157-2.057-.391-4.476-.97-7.038-.752-3.325-1.604-7.094-.993-10.911.668-4.166 2.781-7.635 4.646-10.696 1.269-2.083 2.467-4.049 2.914-5.764.537-2.062.474-4.541.405-7.166-.094-3.637-.19-7.397 1.244-11.014 1.731-4.366 4.907-7.4 7.709-10.077 1.591-1.521 3.095-2.957 3.925-4.287.646-1.032 1.24-2.262 1.932-3.987a4.996 4.996 0 0 1 6.5-2.783 4.999 4.999 0 0 1 2.783 6.5c-.92 2.296-1.763 4.014-2.733 5.567-1.495 2.395-3.53 4.339-5.498 6.22-2.261 2.16-4.396 4.201-5.322 6.535-.681 1.715-.613 4.315-.542 7.067.079 3.055.168 6.518-.727 9.948-.818 3.137-2.461 5.834-4.049 8.442-1.521 2.495-2.955 4.851-3.312 7.076-.306 1.912.267 4.443.873 7.123.684 3.023 1.458 6.449 1.187 10.006-.258 3.37-1.461 6.397-2.624 9.325-.28.706-.562 1.415-.827 2.125a5.004 5.004 0 0 1-4.687 3.256 4.999 4.999 0 0 1-4.685-6.746zm1.682 41.645c-.057-2.851.568-5.617 1.174-8.293.147-.652.295-1.306.433-1.961a4 4 0 1 1 7.83 1.638c-.146.697-.303 1.394-.46 2.087-.522 2.311-1.016 4.492-.979 6.37a4 4 0 0 1-3.92 4.078l-.081.001a3.998 3.998 0 0 1-3.997-3.92zm22.476 147.658c-1.934-1.166-2.608-3.632-1.602-5.614l7.451-14.584 4.999-9.633.1-.008c2.502-3.575 8.328-6.933 15.857-5.807 8.427 1.261 17.485 1.147 22.874-3.669 3.826-3.419 9.665.479 8.101 4.246-.42 1.01-1.372 2.009-3.04 2.857-.874.444-1.935.848-3.227 1.188-2.123.558-4.32.965-6.531 1.293-11.282 1.676-22.917 1.257-26.831 7.825v.001l-3.818 6.425-8.456 14.024a4.28 4.28 0 0 1-5.877 1.456zm22.682 62.106c-2.035 3.009-4.181 5.956-6.614 8.746a2.918 2.918 0 0 1-4.995-2.756c1.062-3.545 2.411-6.933 3.871-10.259a148.304 148.304 0 0 1 4.754-9.772c1.688-3.2 3.498-6.333 5.509-9.355 2.04-3.006 4.187-5.953 6.836-8.623a2.966 2.966 0 0 1 4.995 2.756c-.846 3.665-2.194 7.052-3.649 10.381-1.484 3.313-3.169 6.515-4.976 9.649a148.332 148.332 0 0 1-5.731 9.233zm24.028 26.618c-.657 1.813-1.514 3.515-2.494 5.149a41.569 41.569 0 0 1-3.248 4.733c-1.204 1.511-2.522 2.958-4.131 4.246a3.087 3.087 0 0 1-4.995-2.756c.231-2.047.753-3.935 1.389-5.759a41.555 41.555 0 0 1 2.271-5.272c.86-1.7 1.843-3.333 3.026-4.855 1.213-1.506 2.532-2.953 4.353-4.123a3.243 3.243 0 0 1 4.996 2.756c-.02 2.165-.54 4.052-1.167 5.881zm64.569-122.897c-4.178 9.13-8.858 17.983-13.845 26.667-4.965 8.696-10.184 17.251-15.732 25.626a328.227 328.227 0 0 1-8.592 12.413c-2.972 4.078-6.026 8.11-9.347 11.996a7.28 7.28 0 0 1-10.265.805 7.288 7.288 0 0 1-2.223-7.695c1.516-4.881 3.299-9.615 5.164-14.304a327.502 327.502 0 0 1 5.919-13.887c4.126-9.159 8.581-18.136 13.289-26.974 4.687-8.849 9.681-17.529 15.176-25.933 2.764-4.192 5.638-8.325 8.684-12.362 3.058-4.031 6.221-8.003 9.81-11.74a7.382 7.382 0 0 1 10.437-.211 7.397 7.397 0 0 1 2.051 7.101c-1.247 5.029-2.921 9.823-4.7 14.56-1.79 4.729-3.754 9.363-5.826 13.938zm47.715 33.506c-1.408 5.749-3.57 11.082-5.891 16.328-2.365 5.221-5.031 10.276-7.882 15.229a246.004 246.004 0 0 1-9.014 14.604c-3.186 4.768-6.544 9.441-10.338 13.874a4.369 4.369 0 0 1-7.493-4.134c1.727-5.573 3.89-10.906 6.224-16.143a246.556 246.556 0 0 1 7.548-15.413c2.671-5.052 5.525-10.003 8.68-14.788 3.199-4.761 6.559-9.433 10.671-13.69a4.435 4.435 0 1 1 7.495 4.133zM20.084 420.582zM65.056 20.45zM218.385 42.895c1.56.302 3.096.601 4.622.899-1.526-.298-3.062-.598-4.622-.899zM224.138 44.014zM54.619 628.57l-.982.082.982-.082zM365.135 174.222zM364.949 169.525l.177 4.445c-.059-1.503-.117-2.986-.177-4.445zM20.717 189.215zM19.588 361.369zM20.866 181.962zM21.006 175.591zM21.32 162.577zM60.668 20.084z" fill="#04294F"/><path d="M286.843 192.055a4.347 4.347 0 0 0 6.115-.635c2.198-2.708 4.23-5.507 6.222-8.329a233.765 233.765 0 0 0 5.785-8.57 355.53 355.53 0 0 0 10.683-17.63c3.406-5.962 6.629-12.025 9.55-18.254 2.877-6.254 5.595-12.596 7.559-19.353a4.386 4.386 0 0 0-7.493-4.134c-4.668 5.265-8.584 10.946-12.34 16.715-3.712 5.793-7.122 11.753-10.349 17.814a355.133 355.133 0 0 0-9.217 18.438 231.785 231.785 0 0 0-4.165 9.464c-1.325 3.189-2.61 6.401-3.728 9.705a4.359 4.359 0 0 0 1.378 4.769zM291.709 107.731c1.609-1.287 2.927-2.735 4.131-4.246a41.569 41.569 0 0 0 3.248-4.733c.98-1.634 1.837-3.336 2.494-5.149.627-1.829 1.148-3.717 1.166-5.881a3.242 3.242 0 0 0-4.996-2.756c-1.821 1.17-3.141 2.617-4.353 4.123-1.183 1.522-2.166 3.155-3.026 4.855a41.412 41.412 0 0 0-2.271 5.272c-.636 1.824-1.158 3.711-1.389 5.759a3.087 3.087 0 0 0 4.996 2.756zM327.709 455.731c1.609-1.287 2.927-2.735 4.131-4.246a41.48 41.48 0 0 0 3.248-4.733c.98-1.634 1.837-3.336 2.494-5.149.627-1.829 1.148-3.717 1.166-5.881a3.242 3.242 0 0 0-4.996-2.756c-1.821 1.17-3.141 2.617-4.353 4.123-1.183 1.522-2.166 3.155-3.026 4.855a41.35 41.35 0 0 0-2.271 5.272c-.636 1.824-1.158 3.711-1.389 5.759-.086.784.125 1.61.657 2.275a3.088 3.088 0 0 0 4.339.481zM228.753 580.966c-1.821 1.17-3.141 2.617-4.353 4.123-1.183 1.522-2.166 3.155-3.026 4.855a41.35 41.35 0 0 0-2.271 5.272c-.636 1.824-1.158 3.711-1.389 5.759a3.086 3.086 0 0 0 4.995 2.756c1.609-1.287 2.927-2.735 4.131-4.246a41.48 41.48 0 0 0 3.248-4.733c.98-1.634 1.837-3.336 2.494-5.149.627-1.829 1.148-3.717 1.166-5.881a3.242 3.242 0 0 0-4.995-2.756zM314.915 206.966c-2.649 2.67-4.796 5.617-6.836 8.623-2.011 3.022-3.821 6.155-5.509 9.355a148.304 148.304 0 0 0-4.754 9.772c-1.46 3.326-2.809 6.713-3.871 10.259a2.924 2.924 0 0 0 .877 3.037 2.92 2.92 0 0 0 4.118-.281c2.433-2.789 4.578-5.737 6.614-8.746a148.038 148.038 0 0 0 5.731-9.233c1.807-3.134 3.492-6.336 4.976-9.649 1.455-3.329 2.803-6.717 3.649-10.381a2.966 2.966 0 0 0-4.995-2.756zM222.91 533.722a2.965 2.965 0 0 0-4.995-2.756c-2.649 2.67-4.796 5.617-6.836 8.623-2.011 3.022-3.821 6.155-5.509 9.355a148.06 148.06 0 0 0-4.754 9.772c-1.46 3.326-2.809 6.713-3.871 10.259a2.924 2.924 0 0 0 .877 3.037 2.92 2.92 0 0 0 4.118-.281c2.433-2.789 4.578-5.737 6.614-8.746a148.038 148.038 0 0 0 5.731-9.233c1.807-3.134 3.492-6.336 4.976-9.649 1.455-3.329 2.803-6.716 3.649-10.381zM52.57 32.944a148.06 148.06 0 0 0-4.754 9.772c-1.46 3.326-2.809 6.713-3.871 10.259a2.92 2.92 0 0 0 4.996 2.756c2.433-2.79 4.578-5.737 6.614-8.746a148.038 148.038 0 0 0 5.731-9.233c1.807-3.134 3.492-6.336 4.976-9.65 1.038-2.375 2.014-4.785 2.799-7.3l-.024-.002a1086.903 1086.903 0 0 0-4.723-.414 991.4 991.4 0 0 0-3.646-.303l-.087-.007a94.234 94.234 0 0 0-2.502 3.513c-2.011 3.022-3.821 6.155-5.509 9.355zM31.984 340.985c3.024-5.34 5.926-10.747 8.626-16.266a214.84 214.84 0 0 0 3.869-8.378c1.225-2.828 2.419-5.674 3.43-8.62a2.896 2.896 0 0 0-4.995-2.755c-1.953 2.426-3.724 4.954-5.463 7.499a213.466 213.466 0 0 0-5.023 7.741c-3.228 5.228-6.255 10.566-9.159 15.972a448.393 448.393 0 0 0-3.739 7.101c.006 3.024.015 6.017.024 8.984l.001.417a5959.192 5959.192 0 0 0 .034 8.884 443.448 443.448 0 0 0 3.006-4.732 409.299 409.299 0 0 0 9.389-15.847zM58.405 627.915a2663.953 2663.953 0 0 0 12.929-21.517l6.978-11.792 7.224-12.35c4.871-8.403 9.909-17.084 14.946-25.949 5.076-8.845 10.132-17.886 15.222-26.907 5.026-9.058 10.105-18.085 14.981-27.04 2.46-4.465 4.878-8.907 7.239-13.312 2.375-4.397 4.718-8.741 6.981-13.038a1882.99 1882.99 0 0 0 10.985-20.976c.014-.027.026-.044.04-.072 3.711-7.197 8.498-2.668 7.742 6.848-.862 10.843 10.551 10.993 9.659-1.181-.659-8.996-4.698-18.04-9.44-21.259l.015-.03c-5.327-3.617-11.518-7.023-14.414-12.809-.605-1.209-.998-2.52-1.269-3.893a2.364 2.364 0 0 1-.052.084v-.001c-.827-5.72-4.501-10.211-7.644-7.887-3.499 2.587 4.564 12.829-.265 21l-.054.095a1867.127 1867.127 0 0 0-16.588 28.312c-2.436 4.201-4.87 8.496-7.331 12.845a1306.628 1306.628 0 0 0-7.425 13.21c-4.992 8.892-9.937 17.993-14.935 27.065-4.935 9.107-9.903 18.196-14.694 27.198-4.83 8.981-9.503 17.863-14.03 26.456L58.587 583.7l-6.277 12.18a2692.256 2692.256 0 0 0-11.348 22.391 1185.09 1185.09 0 0 0-3.542 7.121c.481.307.975.595 1.479.865l.115.061c1.004.531 2.051.988 3.133 1.364l.117.042c.521.178 1.051.335 1.587.474l.223.056c.542.135 1.091.255 1.647.349l.017.002a22.26 22.26 0 0 0 1.64.209c.091.008.181.019.271.026.537.044 1.08.067 1.626.072.105.001.211-.001.316-.002.564-.003 1.132-.02 1.703-.067a682.802 682.802 0 0 0 3.323-.275 735.176 735.176 0 0 0 3.573-.305c.074-.116.144-.23.215-.348zM85.457 381.674c-1.41.894-2.563 1.929-3.654 2.999a36.133 36.133 0 0 0-2.978 3.371c-1.809 2.345-3.317 4.856-4.641 7.468a65.26 65.26 0 0 0-3.509 8.093c-.988 2.798-1.805 5.69-2.185 8.823a4.613 4.613 0 0 0 7.492 4.134c2.447-1.993 4.459-4.226 6.299-6.554a65.352 65.352 0 0 0 4.975-7.284c1.504-2.513 2.824-5.128 3.843-7.909a36.031 36.031 0 0 0 1.264-4.317c.323-1.493.583-3.021.588-4.69a4.88 4.88 0 0 0-7.494-4.134zM32.291 554.413a264.492 264.492 0 0 0 7.837-11.045c5.045-7.463 9.761-15.107 14.223-22.891 4.484-7.772 8.66-15.714 12.336-23.932 1.821-4.118 3.533-8.297 5.072-12.571 1.527-4.28 2.95-8.618 3.946-13.192.495-2.356-.15-4.955-1.964-6.8a7.44 7.44 0 0 0-10.523-.09c-3.338 3.281-6.249 6.798-9.056 10.373-2.794 3.581-5.416 7.258-7.929 10.994-4.992 7.492-9.483 15.26-13.667 23.197a372.9 372.9 0 0 0-9.928 20.137v.015c.062 1.66.125 3.295.188 4.906l.014.341c.055 1.401.11 2.781.166 4.145l.042 1.012c.048 1.182.097 2.349.146 3.503l.04.944c.124 2.89.248 5.695.374 8.413l.035.746.152 3.218a2371.816 2371.816 0 0 0 .237 4.849c.064 1.27.127 2.523.191 3.752 2.861-3.244 5.506-6.611 8.068-10.024zM196.515 75.485c-5.138 9.617-10.023 19.375-14.579 29.313a387.419 387.419 0 0 0-6.564 15.057c-2.08 5.078-4.078 10.203-5.809 15.474-.895 2.75-.094 5.903 2.27 7.858a7.258 7.258 0 0 0 10.218-.968c3.535-4.276 6.805-8.698 9.992-13.166a388.228 388.228 0 0 0 9.237-13.582c5.978-9.154 11.627-18.49 17.022-27.965 5.417-9.464 10.527-19.097 15.135-29.007a296.724 296.724 0 0 0 5.075-11.631c-1.446-.291-2.914-.586-4.395-.881l-.938-.187c-2.944-.587-5.958-1.182-9.041-1.785l-1.131-.221a2681.46 2681.46 0 0 0-4.622-.899l-.036-.007c-.746-.144-1.473-.281-2.214-.424a328.134 328.134 0 0 0-3.153 4.749c-5.926 9.183-11.35 18.643-16.467 28.272zM36.121 406.375l13.912-24.59c4.761-8.36 9.471-16.924 14.231-25.459 4.737-8.549 9.538-17.062 14.117-25.523 4.59-8.455 9.192-16.729 13.492-24.821 4.302-8.09 8.531-15.873 12.416-23.322 3.877-7.454 7.616-14.46 10.936-20.999 3.338-6.53 6.431-12.498 9.082-17.836a1214.49 1214.49 0 0 0 6.877-13.821c3.786-7.678 5.859-12.115 5.859-12.115a4.287 4.287 0 0 0-7.492-4.133s-2.648 4.12-7.124 11.417a1222.275 1222.275 0 0 0-8.024 13.188c-3.103 5.09-6.501 10.889-10.246 17.194-3.761 6.296-7.694 13.195-11.932 20.45-4.23 7.258-8.559 14.986-13.108 22.94-4.552 7.953-9.097 16.258-13.802 24.65-4.716 8.386-9.357 16.987-14.062 25.552-4.682 8.579-9.415 17.13-13.949 25.616l-13.382 24.881-3.993 7.538c.025 2.312.05 4.601.077 6.869v.026c.026 2.19.052 4.357.08 6.505l.005.369a4878.168 4878.168 0 0 0 .089 6.665l.086 5.949.005.357 2.697-4.633c4.18-7.285 8.59-14.967 13.153-22.914zM146.458 84.349c1.45-3.666 2.739-7.42 3.276-11.589a4.623 4.623 0 0 0-1.016-3.518 4.6 4.6 0 0 0-6.477-.616c-3.241 2.678-5.729 5.771-8.057 8.952-2.284 3.206-4.267 6.577-6.066 10.05a115.698 115.698 0 0 0-4.933 10.675c-1.463 3.659-2.754 7.412-3.61 11.405-.29 1.406.094 2.954 1.173 4.059a4.469 4.469 0 0 0 6.32.075c2.922-2.854 5.408-5.948 7.723-9.136a115.941 115.941 0 0 0 6.399-9.866c1.98-3.374 3.774-6.85 5.268-10.491zM98.575 141.865c-3.456 3.495-6.485 7.225-9.409 11.013-2.912 3.795-5.652 7.684-8.283 11.634-5.228 7.919-9.954 16.114-14.374 24.478-4.441 8.353-8.628 16.845-12.486 25.519a294.502 294.502 0 0 0-5.518 13.16c-1.731 4.446-3.38 8.938-4.763 13.577a7.308 7.308 0 0 0 2.189 7.578 7.299 7.299 0 0 0 10.299-.689c3.187-3.643 6.108-7.433 8.945-11.269a293.434 293.434 0 0 0 8.19-11.685c5.28-7.89 10.232-15.961 14.93-24.171 4.719-8.199 9.131-16.568 13.042-25.213 1.939-4.332 3.768-8.724 5.425-13.211 1.645-4.494 3.185-9.045 4.299-13.832a7.427 7.427 0 0 0-2.007-6.949 7.41 7.41 0 0 0-10.479.06zM46.239 146.242c7.634-13.483 14.962-27.135 21.788-41.064 3.396-6.974 6.683-14.008 9.798-21.137 3.107-7.133 6.093-14.333 8.672-21.758.971-2.813.139-6.063-2.319-8.027a7.236 7.236 0 0 0-10.169 1.137c-4.906 6.14-9.404 12.507-13.782 18.939-4.37 6.437-8.567 12.968-12.655 19.56-8.143 13.202-15.784 26.681-23.119 40.329-.825 1.53-1.635 3.068-2.454 4.602a3747.684 3747.684 0 0 0-.682 23.893c-.107 4.179-.21 8.469-.31 12.874v.025c-.047 2.088-.094 4.206-.139 6.346l-.015.696c-.046 2.161-.091 4.343-.134 6.557v.001c.616-.983 1.234-1.966 1.847-2.951 8.193-13.172 16.06-26.527 23.673-40.022zM351.081 192.417c-3.75 6.214-7.879 13.281-12.42 20.971-4.558 7.68-9.355 16.079-14.505 24.919-5.144 8.844-10.435 18.245-15.981 27.929-5.548 9.683-11.124 19.777-16.875 29.986-.385.683-.769 1.374-1.154 2.059 1.946 5.691 5.924 11.381 7.514 17.262 2.25-4.033 4.487-8.058 6.682-12.069 5.636-10.272 11.268-20.335 16.565-30.158 5.299-9.822 10.492-19.277 15.29-28.314 4.791-9.04 9.394-17.546 13.512-25.471 4.135-7.915 7.959-15.152 11.259-21.617a2659.99 2659.99 0 0 0 4.687-9.114v-.008a2342.376 2342.376 0 0 0-.705-19.266l-.001-.025a828.075 828.075 0 0 0-4.167 6.817c-2.722 4.445-5.981 9.868-9.701 16.099zM145.251 591.305c5.332-9.762 10.478-19.623 15.322-29.647 4.799-10.047 9.437-20.18 13.316-30.718a4.32 4.32 0 0 0-7.548-4.032c-6.603 9.083-12.448 18.571-18.132 28.145-5.639 9.598-10.975 19.358-16.126 29.217a931.03 931.03 0 0 0-14.986 29.826 705.334 705.334 0 0 0-3.915 8.295c5.019-.628 10.219-1.304 15.59-2.029l.005-.001.012-.02a929.816 929.816 0 0 0 16.462-29.036zM305.626 431.107a7.382 7.382 0 0 0-10.437.211c-3.589 3.737-6.752 7.71-9.81 11.74-3.046 4.037-5.919 8.169-8.684 12.362-5.495 8.403-10.489 17.083-15.176 25.933-4.708 8.838-9.163 17.815-13.289 26.974a328.056 328.056 0 0 0-5.919 13.887c-1.865 4.688-3.647 9.423-5.164 14.304a7.288 7.288 0 0 0 2.223 7.695 7.28 7.28 0 0 0 10.265-.805c3.32-3.886 6.375-7.918 9.347-11.996a327.422 327.422 0 0 0 8.592-12.413c5.548-8.374 10.767-16.93 15.732-25.626 4.986-8.684 9.666-17.537 13.845-26.667 2.073-4.574 4.036-9.209 5.827-13.938 1.779-4.736 3.453-9.53 4.7-14.56a7.395 7.395 0 0 0-2.052-7.101zM337.373 496.078c-4.112 4.257-7.472 8.929-10.671 13.69-3.155 4.785-6.01 9.736-8.68 14.788a246.556 246.556 0 0 0-7.548 15.413c-2.334 5.238-4.497 10.57-6.224 16.143a4.368 4.368 0 0 0 7.493 4.134c3.794-4.433 7.151-9.106 10.338-13.874a246.328 246.328 0 0 0 9.014-14.604c2.85-4.953 5.516-10.008 7.882-15.229 2.321-5.245 4.482-10.579 5.891-16.328a4.44 4.44 0 0 0-1.226-4.242 4.435 4.435 0 0 0-6.269.109zM135.531 382.004c-2.97-9.6-.621-23.617.043-27.179l-.047-.011c.604-2.716.974-5.417.725-8.045-.551-5.809-4.453-11.566-7.008-17.47l-.054.106v-.001c-3.399-6.55-3.566-19.477-.923-24.904 4.552-9.348-12.358-12.526-8.499 12.215 2.401 15.393 1.571 28.398-.997 33.603-.297.607-.588 1.201-.867 1.766-1.649 3.381-2.893 6.067-3.766 7.885l-1.304 2.807c-1.435 3.084-.505 6.848 2.375 8.872a7.153 7.153 0 0 0 1.687.871c9.304 1.288 7.215-10.312 7.488-17.861.331-9.184 6.676-7.502 4.029 0-1.607 4.555-.695 8.779-1.695 21.384h-.001c-.186 2.559-.495 5.938-.884 10.299-1.721 19.305 20.515 12.993 11.88.365-.931-1.362-1.643-2.96-2.182-4.702zM204.024 478.974c3.914-6.568 15.549-6.149 26.832-7.825 2.211-.328 4.408-.736 6.531-1.293 1.292-.34 2.353-.744 3.227-1.188 1.667-.848 2.62-1.847 3.04-2.857 1.564-3.767-4.275-7.665-8.101-4.246-5.389 4.816-14.447 4.93-22.874 3.669-7.529-1.127-13.355 2.232-15.857 5.807l-.1.008-4.999 9.633-7.451 14.584c-1.006 1.982-.332 4.448 1.602 5.614a4.281 4.281 0 0 0 5.877-1.456l8.456-14.024c1.163-1.96 2.442-4.113 3.817-6.426z" fill="#00AEE0"/><path d="M379.06 93.187c-2.119-17.677-14.169-32.877-30.698-38.724-16.812-5.947-52.327-16.09-126.057-30.641C139.215 7.424 82.936 1.927 56.785.11A46.025 46.025 0 0 0 53.609 0C29.421 0 9.616 18.511 7.54 43.058 4.725 76.369 0 157.594 0 327.331c0 158.247 5.988 262.883 8.927 301.413a3.188 3.188 0 0 0 3.759 2.89l3.574-.654a3.19 3.19 0 0 0 2.61-3.38C15.965 589.33 10 484.722 10 327.33c0-169.37 4.702-250.277 7.505-283.43C19.14 24.573 34.661 9.999 53.609 9.999c.826 0 1.661.029 2.481.086 25.918 1.801 81.725 7.255 164.279 23.547 73.14 14.435 108.158 24.421 124.657 30.258 12.973 4.588 22.434 16.555 24.104 30.486 2.947 24.591 7.891 87.166 7.891 229.968 0 112.827-3.082 200.454-5.83 237.281A3.19 3.19 0 0 0 374.95 565l3.68-.673a3.186 3.186 0 0 0 2.61-2.894c2.745-36.644 5.781-125.172 5.781-237.088 0-143.321-4.988-206.346-7.961-231.158z" fill="#04294F"/><path d="M198.552 240.276c-1.971 2.254-2.912 5.15-3.908 8.215-.548 1.687-1.114 3.431-1.865 5.06-.59 1.28-1.5 2.628-2.464 4.056-1.58 2.342-3.372 4.997-4.333 8.221-.77 2.582-.793 5.289-.815 7.907-.009.988-.018 2.009-.068 2.989a3 3 0 0 0 2.842 3.15c.053.002.104.004.157.004a3 3 0 0 0 2.993-2.846c.057-1.108.066-2.194.075-3.245.021-2.302.039-4.477.566-6.245.698-2.343 2.151-4.496 3.557-6.578 1.055-1.563 2.146-3.18 2.939-4.902.898-1.951 1.549-3.951 2.122-5.716.802-2.464 1.558-4.792 2.72-6.121 2.531-2.896 5.824-3.489 9.989-3.489 4.165 0 7.458.594 9.991 3.491.532.609 1.009 1.449 1.499 2.643a3 3 0 1 0 5.551-2.277c-.748-1.823-1.553-3.195-2.533-4.315-4.269-4.884-9.729-5.542-14.508-5.542-4.778 0-10.238.658-14.507 5.54zM180.294 312.219c-.681 2.549-1.385 5.185-1.385 8.037 0 2.854.704 5.492 1.386 8.042.163.611.326 1.221.477 1.827a3.002 3.002 0 0 0 3.634 2.19 3 3 0 0 0 2.19-3.634c-.159-.643-.331-1.286-.504-1.932-.608-2.276-1.183-4.427-1.183-6.494 0-2.064.574-4.214 1.182-6.489.578-2.165 1.176-4.404 1.312-6.741.145-2.486-.195-4.86-.523-7.156-.104-.73-.209-1.458-.294-2.179a3 3 0 1 0-5.959.706c.091.77.202 1.545.313 2.324.3 2.094.583 4.072.473 5.956-.1 1.729-.595 3.582-1.119 5.543zM195.288 379.546c-1.405-2.081-2.857-4.233-3.556-6.576a3 3 0 0 0-5.75 1.712c.961 3.225 2.752 5.879 4.332 8.22.964 1.428 1.874 2.776 2.463 4.055.252.548.493 1.126.736 1.77a3.002 3.002 0 0 0 3.869 1.743 3 3 0 0 0 1.743-3.868 33.378 33.378 0 0 0-.897-2.153c-.794-1.723-1.885-3.339-2.94-4.903zM234.71 379.154a3 3 0 0 0-4.164.814c-.99 1.473-1.938 2.923-2.656 4.482-.899 1.951-1.55 3.953-2.124 5.719-.8 2.463-1.556 4.79-2.718 6.118-2.531 2.896-5.824 3.488-9.989 3.488-2.67 0-5.468-.201-7.846-1.662a3.001 3.001 0 0 0-3.141 5.113c3.658 2.246 7.606 2.549 10.986 2.549 4.778 0 10.238-.658 14.507-5.539 1.971-2.254 2.911-5.148 3.907-8.213.548-1.688 1.115-3.432 1.866-5.063.532-1.154 1.338-2.382 2.186-3.643a2.999 2.999 0 0 0-.814-4.163zM237.705 228.447c-1.162-2.995-2.64-6.383-5.48-8.683-5.081-4.113-11.234-3.797-16.176-3.543-1.171.061-2.276.117-3.309.117a4 4 0 0 0 0 8c1.237 0 2.499-.065 3.72-.127 4.132-.212 8.033-.413 10.73 1.771 1.182.957 2.076 2.834 3.056 5.359a4.002 4.002 0 0 0 5.176 2.282 4 4 0 0 0 2.283-5.176z" fill="#00AEE0"/><path d="M166.399 318.323a5.005 5.005 0 0 0 4.687-3.256c.265-.711.547-1.419.827-2.125 1.163-2.928 2.366-5.955 2.624-9.325.271-3.558-.503-6.983-1.187-10.006-.606-2.68-1.179-5.211-.873-7.123.357-2.225 1.792-4.582 3.312-7.076 1.588-2.608 3.23-5.305 4.049-8.442.895-3.43.806-6.893.727-9.948-.071-2.752-.139-5.353.542-7.067.926-2.334 3.062-4.375 5.322-6.535 1.968-1.88 4.003-3.825 5.498-6.22.971-1.553 1.813-3.271 2.733-5.567a5 5 0 1 0-9.283-3.717c-.691 1.726-1.286 2.955-1.932 3.987-.83 1.33-2.334 2.767-3.925 4.287-2.802 2.677-5.978 5.711-7.709 10.077-1.435 3.616-1.338 7.376-1.244 11.014.068 2.625.132 5.104-.405 7.166-.447 1.715-1.646 3.682-2.914 5.764-1.864 3.061-3.978 6.53-4.646 10.696-.611 3.817.241 7.586.993 10.911.579 2.562 1.127 4.981.97 7.038-.142 1.853-1.019 4.059-1.946 6.394-.308.773-.615 1.549-.905 2.327a5 5 0 0 0 4.685 6.746zM167.393 357.142l.081-.001a4 4 0 0 0 3.92-4.078c-.037-1.878.456-4.06.979-6.37.157-.693.314-1.39.46-2.087a4 4 0 1 0-7.83-1.638 129.12 129.12 0 0 1-.433 1.961c-.605 2.676-1.23 5.442-1.174 8.293a4 4 0 0 0 3.997 3.92zM175.94 363.289a3.999 3.999 0 1 0-6.891 4.063c.812 1.379 1.695 2.987 2.081 4.464.573 2.198.508 4.747.438 7.444-.091 3.536-.186 7.192 1.174 10.619 1.651 4.16 4.741 7.112 7.468 9.717 1.639 1.565 3.186 3.043 4.083 4.48 1.175 1.882 2.04 4.179 2.878 6.401 1.424 3.779 2.896 7.688 6.084 10.27 3.799 3.076 8.196 3.675 12.239 3.675 1.364 0 2.688-.068 3.935-.133 1.172-.061 2.278-.117 3.312-.117a4 4 0 0 0 0-8c-1.238 0-2.501.065-3.723.128-4.125.214-8.031.414-10.728-1.77-1.502-1.216-2.537-3.964-3.633-6.873-.93-2.467-1.983-5.264-3.579-7.818-1.43-2.29-3.418-4.19-5.342-6.027-2.341-2.236-4.553-4.35-5.558-6.883-.756-1.905-.687-4.604-.612-7.463.077-2.989.164-6.377-.695-9.671-.635-2.43-1.837-4.652-2.931-6.506zM240.18 398.94a3.989 3.989 0 0 0 2.887 1.23c.996 0 1.993-.37 2.769-1.114 2.666-2.558 5.394-5.374 6.902-9.179 1.359-3.426 1.265-7.083 1.174-10.619-.069-2.697-.136-5.245.438-7.443.484-1.856 1.72-3.885 3.026-6.031 1.816-2.982 3.876-6.363 4.512-10.334.583-3.628-.211-7.14-.979-10.535-.597-2.637-1.159-5.127-.991-7.335.153-2.003 1.057-4.276 2.013-6.685 1.259-3.167 2.685-6.756 2.685-10.638 0-3.882-1.426-7.472-2.684-10.639-.957-2.409-1.86-4.684-2.014-6.688-.169-2.208.395-4.699.99-7.336.768-3.396 1.561-6.907.979-10.534-.636-3.971-2.694-7.35-4.511-10.332-1.308-2.146-2.543-4.174-3.027-6.031-.572-2.197-.507-4.745-.438-7.443.092-3.537.186-7.195-1.173-10.621-1.402-3.536-3.88-6.243-6.348-8.642a4.001 4.001 0 0 0-5.576 5.738c2.115 2.055 3.688 3.837 4.487 5.854.756 1.905.687 4.606.612 7.464-.077 2.989-.164 6.376.694 9.668.781 2.995 2.385 5.627 3.936 8.173 1.571 2.581 3.057 5.018 3.444 7.437.337 2.103-.256 4.726-.883 7.503-.7 3.098-1.425 6.302-1.164 9.709.245 3.218 1.419 6.174 2.555 9.032 1.09 2.743 2.119 5.334 2.119 7.686 0 2.351-1.029 4.942-2.119 7.684-1.136 2.858-2.31 5.813-2.555 9.03-.26 3.407.464 6.61 1.164 9.707.628 2.777 1.221 5.401.884 7.505-.388 2.419-1.873 4.857-3.445 7.439-1.551 2.546-3.153 5.179-3.935 8.173-.859 3.293-.771 6.681-.694 9.67.073 2.857.144 5.557-.613 7.462-.917 2.315-2.891 4.328-5.005 6.357a4.003 4.003 0 0 0-.116 5.658zM164.249 238.554c-.081-2.03.115-3.471.617-4.536 1.382-2.927 4.877-4.993 8.577-7.181 3.349-1.979 6.812-4.026 9.083-7.049 2.547-3.391 3.887-7.619 5.069-11.35 1.225-3.863 2.381-7.513 4.355-8.812 2.88-1.896 7.283-.942 11.943.067 2.504.542 5.093 1.104 7.631 1.248 2.188.136 4.095-1.56 4.22-3.767a3.999 3.999 0 0 0-3.767-4.22c-1.911-.108-4.087-.58-6.39-1.079-5.788-1.254-12.351-2.675-18.037 1.07-4.345 2.859-5.99 8.054-7.582 13.078-1.038 3.274-2.11 6.66-3.84 8.96-1.315 1.75-3.959 3.313-6.757 4.967-4.365 2.58-9.312 5.504-11.742 10.656-1.072 2.274-1.51 4.901-1.376 8.266a4 4 0 0 0 7.996-.318zM151.528 260.632l-.652.718c-3.304 3.632-7.049 7.749-8.072 13.169-.777 4.114.352 8.193 1.558 11.641a4.992 4.992 0 0 0 6.371 3.068 5 5 0 0 0 3.068-6.371c-.77-2.198-1.51-4.687-1.171-6.483.498-2.64 2.998-5.387 5.644-8.296l.669-.737a5 5 0 0 0-.352-7.062 5 5 0 0 0-7.063.353zM152.629 364.14c-.427-2.258.855-5.688 2.095-9.006 1.532-4.102 3.269-8.751 2.839-13.55-.407-4.536-2.888-8.675-4.882-12a4.997 4.997 0 0 0-6.858-1.718 4.999 4.999 0 0 0-1.718 6.859c1.545 2.576 3.296 5.498 3.497 7.751.228 2.536-.974 5.753-2.246 9.158-1.719 4.603-3.497 9.361-2.553 14.359 1.021 5.416 4.792 9.562 7.821 12.894a4.983 4.983 0 0 0 3.7 1.637 4.999 4.999 0 0 0 3.698-8.363c-2.294-2.524-4.896-5.384-5.393-8.021z" fill="#00AEE0"/><path d="M212.75 446.535c2.184 0 4.704.546 7.373 1.124 2.928.634 6.058 1.312 9.143 1.312 2.812 0 5.588-.564 8.133-2.24 4.048-2.664 5.64-7.687 7.18-12.543 1.062-3.354 2.162-6.821 3.993-9.259 1.321-1.758 3.753-3.277 6.561-4.94a2.999 2.999 0 1 0-3.056-5.162c-3.369 1.994-6.318 3.86-8.301 6.499-2.445 3.253-3.701 7.217-4.916 11.049-1.279 4.037-2.488 7.851-4.759 9.345-3.234 2.129-7.834 1.13-12.706.075-2.86-.619-5.817-1.26-8.644-1.26-2.825 0-5.783.641-8.644 1.26-4.871 1.057-9.474 2.053-12.707-.076-2.27-1.494-3.479-5.308-4.758-9.346-1.215-3.832-2.471-7.795-4.915-11.05-1.121-1.491-2.649-2.865-4.81-4.325a3.002 3.002 0 0 0-3.359 4.973c1.592 1.075 2.664 2.015 3.372 2.957 1.83 2.437 2.929 5.904 3.992 9.258 1.539 4.857 3.131 9.88 7.178 12.545 5.34 3.516 11.681 2.141 17.277.929 2.668-.579 5.189-1.125 7.373-1.125zM248.571 215.585c-1.645-2.188-2.675-5.146-3.588-7.989a3 3 0 0 0-5.712 1.836c1.023 3.183 2.3 6.824 4.504 9.757 2.151 2.863 5.527 4.859 8.792 6.789 3.667 2.168 7.46 4.409 8.972 7.614 1.179 2.5.699 6.242.191 10.205-.553 4.309-1.123 8.765.165 12.944 1.168 3.79 4.034 6.94 6.807 9.986a153.7 153.7 0 0 1 1.533 1.701 2.994 2.994 0 0 0 2.249 1.013 3 3 0 0 0 2.247-4.986c-.524-.593-1.059-1.18-1.592-1.766-2.436-2.677-4.737-5.206-5.51-7.715-.906-2.939-.419-6.739.052-10.415.595-4.643 1.21-9.444-.716-13.527-2.299-4.873-7.104-7.713-11.346-10.22-2.887-1.706-5.614-3.317-7.048-5.227zM200.628 170.152c-17.454-.258-16.19 16.052 5.535 10.033 20.112-5.572 36.628-7.052 40.901 5.768 2.509 7.528 13.303 3.258 6.026-5.775-7.277-9.033-11.016-4.743-4.185-18.898l.015-.035a1121.28 1121.28 0 0 0 2.893-5.907 614.326 614.326 0 0 0 5.809-12.276c1.602-3.409 2.797-6.123 3.619-7.97l1.239-2.844a7.177 7.177 0 0 0-12.35-7.135l-1.845 2.494c-1.189 1.635-2.944 4.026-5.097 7.116a615.349 615.349 0 0 0-7.732 11.165 923.539 923.539 0 0 0-9.74 14.649c-.2.294-.386.582-.566.868a881.96 881.96 0 0 0-2.409 3.71c-2.552 3.232-6.808 5.264-22.113 5.037zM559.735 364.164s-70.827-76.677-89.989-62.254c-19.163 14.422-52.045 50.332-76.31 89.022l106.782 51.686c3.696-4.087 7.643-8.744 11.678-13.701l.001-.002c9.27-10.999 31.971-22.57 56.47-23.32 4.997-28.501-8.632-41.431-8.632-41.431z" fill="#00AEE0"/><path d="M551.279 409.076c0 .001 5.714-1.251 0 0z" fill="#FFB400"/><path d="M279.67 348.964c4.63-19.231 11.31-35.65 17.81-45.24 3.877-5.731 7.696-9.006 10.98-8.989a5.88 5.88 0 0 1 1.55.119v-.01c-36-10.42-68.315-26.76-92.625-41.49-.02-.01-.148.13-.148.13-.71-.43-1.527-1.14-2.218-1.14h-.009c-.64-1-1.3-.54-1.97-.54-10.12-.02-18.4 29.755-18.48 66.585-.07 33.641 6.7 61.433 15.59 66.022.03.029.07.022.1.031.15.08.31.142.46.201.05.03.11.055.16.065 23.46 10.819 46.93 19.457 70.34 25.897-3.207-1.115-5.288-5.783-6.211-12.881a53.257 53.257 0 0 1-.169-1.451c-1.22-11.499.35-28.669 4.84-47.309z" fill="#FF3A00"/><path d="M284.445 398.953l.006.021c-5.5-1.319-4.999-23.075 1.151-48.605 5.964-24.766 15.005-43.952 20.571-43.888.172-.001.34.026.505.062l-.018-.012.061.019.009-.017c3.19.92 6.4 1.781 9.61 2.601-.88-8.14-3.16-13.4-6.8-14.28a4.638 4.638 0 0 0-1.08-.119c-3.284-.017-7.103 3.258-10.98 8.989-6.5 9.59-13.18 26.01-17.81 45.24-4.49 18.64-6.06 35.81-4.84 47.31.051.494.108.979.169 1.451.923 7.097 3.004 11.764 6.211 12.879.14.05.29-.01.44.029 3.57.861 7.88-2.289 12.279-9.289h-.001c-3.18-1-6.333-1.519-9.483-2.391zM332.403 361.225c2.32-22.271 8.26-39.092 13.25-38.572l.01-.03c2.34.36 4.62.68 6.85.96-1.52-4.76-6.694-8.67-9.224-8.929-2.41-.25-4.91 1.9-7.28 5.85-4.69 7.82-8.84 22.729-10.65 40.09-1.75 16.81-.88 31.83 1.88 40.59.095.303.192.599.292.887 1.494 4.32 3.498 6.92 5.898 7.163 2.46.261 7.884-1.036 10.293-5.146-2.36-.29-4.73-.61-7.1-.95-4.699-1.44-6.479-20.243-4.219-41.913z" fill="#04294F"/><path d="M325.36 360.594c1.81-17.36 5.82-32.269 10.51-40.09 2.37-3.95 5.14-6.1 7.14-5.85v-.01c-9-1.4-17.92-3.25-26.81-5.51-3.189-.814-6.31-1.67-9.479-2.583l-.061-.017.018.015.006.005a2.297 2.297 0 0 0-.511-.061c-5.566-.064-14.607 19.134-20.571 43.901-6.15 25.53-6.651 47.311-1.151 48.63l-.006-.07c3.15.871 6.303 1.391 9.483 2.391h.001c13.019 3 26.2 5.93 39.499 7.789-2.4-.242-4.403-2.792-5.897-7.112-.1-.288-.197-.56-.292-.862-2.759-8.761-3.629-23.756-1.879-40.566z" fill="#fff"/><path d="M567.948 406.69l-.631 2.472.631-2.472zM567.954 406.665l-.006.024.006-.024zM567.317 409.162c-.006.024-.007.025 0 0z" fill="#FFB400"/><path d="M568.066 398.937c-.496-2.91-1.645-5.68-3.477-8.006-.36-.457-.757-.874-1.156-1.287a19.432 19.432 0 0 0-.851-3.264l.008.008-.02-.044a17.453 17.453 0 0 0-1.492-3.106c-12.487-24.033-54.163-64.591-77.86-84.753a333.134 333.134 0 0 0-3.148-3.092c-3.928-3.799-7.639-6.41-11.177-8.048l-.006-.003c-.564-.346-.908-.48-1.086-.457-14.873-6.109-26.683 4.935-38.629 16.853-15.051 15.016-42.687 21.502-42.687 21.502l-.017.031c-9.352.371-21.067.073-35.049-1.717-2.23-.28-3.51-.6-5.85-.96l-.01.03c-4.99-.52-10.92 17.11-13.24 39.38-2.26 21.67-.27 39.74 4.43 41.18 2.37.34 4.74.66 7.1.95 3.6.44 6.19.83 9.77 1.15 10.3.93 17.79.31 26.41.31 22.979 0 39.705-2.664 48.719-4.566 12.385 5.385 19.226 18.808 32.599 27.283l-.007.003c.072.045.142.086.214.13.218.137.441.27.663.404 22.688 13.893 37.258 14.662 42.164 14.316.696.025 1.389.018 2.075-.032a13.228 13.228 0 0 0 3.438-.793c4.26-1.605 7.48-5.383 8.364-9.852.461-2.328.323-4.841-.19-7.302a53.638 53.638 0 0 0 3.964 1.672c2.353.751 4.945 1.66 7.45 1.66 6.069.103 11.414-4.402 12.057-10.506.091-.862.077-1.744-.002-2.627 3.186 2.2 7.049 3.224 10.916 3.232 7.261.015 13.693-4.87 15.5-11.952.448-.896.37-2.432.401-3.414a21.485 21.485 0 0 0-.288-4.313z" fill="#FFB400"/><path d="M206.778 363.935c-.307 0-.618-.07-.91-.221a95.282 95.282 0 0 1-1.808-.943 2 2 0 0 1 1.9-3.52c.011.006.61.329 1.731.904a1.999 1.999 0 0 1 .867 2.691 1.995 1.995 0 0 1-1.78 1.089zM258.007 384.726c-.196 0-.396-.029-.592-.091a302.214 302.214 0 0 1-3.541-1.119 2 2 0 0 1 1.229-3.807c1.153.373 2.318.741 3.494 1.105a1.998 1.998 0 0 1 1.319 2.501 1.999 1.999 0 0 1-1.909 1.411zm-10.512-3.468a2.01 2.01 0 0 1-.661-.113 338.374 338.374 0 0 1-3.496-1.246 1.999 1.999 0 1 1 1.364-3.76c1.136.411 2.288.822 3.455 1.23a2 2 0 0 1-.662 3.889zm-10.386-3.832a1.99 1.99 0 0 1-.724-.137 365.104 365.104 0 0 1-3.452-1.359 2 2 0 1 1 1.485-3.715c1.115.446 2.253.895 3.415 1.346a2 2 0 0 1-.724 3.865zm-10.257-4.166c-.262 0-.527-.052-.783-.161a378.082 378.082 0 0 1-3.405-1.468 2 2 0 1 1 1.602-3.666c1.085.475 2.211.959 3.372 1.454a2 2 0 0 1-.786 3.841zm-10.119-4.49c-.281 0-.567-.06-.839-.185a325.666 325.666 0 0 1-3.362-1.581 2 2 0 0 1 1.725-3.609c1.023.489 2.131 1.011 3.317 1.56a2 2 0 0 1-.841 3.815zM267.011 387.345c-.174 0-.35-.023-.525-.071-.652-.177-1.301-.356-1.946-.537a2.001 2.001 0 0 1 1.08-3.852c.636.179 1.274.354 1.915.529a2 2 0 0 1-.524 3.931zM265.26 357.345c0 7.44-6.032 13.474-13.473 13.474-7.442 0-13.475-6.033-13.475-13.474 0-7.442 6.032-13.476 13.475-13.476 7.442 0 13.473 6.034 13.473 13.476z" fill="#04294F"/><path d="M259.627 357.345c0 6.015-4.876 10.891-10.892 10.891-6.016 0-10.892-4.876-10.892-10.891 0-6.017 4.876-10.893 10.892-10.893 6.016 0 10.892 4.876 10.892 10.893z" fill="#FFB400"/><path d="M248.735 364.869c-4.149 0-7.525-3.375-7.525-7.524 0-4.15 3.376-7.526 7.525-7.526 4.149 0 7.525 3.376 7.525 7.526 0 4.149-3.376 7.524-7.525 7.524zm0-11.05a3.53 3.53 0 0 0-3.525 3.526 3.528 3.528 0 0 0 3.525 3.524 3.528 3.528 0 0 0 3.525-3.524 3.53 3.53 0 0 0-3.525-3.526zM537.322 405.762c-1.259-.55-2.329-1.281-3.371-2.037a27.307 27.307 0 0 1-2.88-2.506c-.901-.892-1.739-1.844-2.458-2.909-.705-1.079-1.349-2.216-1.708-3.625a.565.565 0 0 1 .713-.681c1.391.425 2.497 1.121 3.542 1.875 1.031.768 1.943 1.649 2.792 2.591a27.202 27.202 0 0 1 2.37 2.994c.707 1.077 1.387 2.18 1.879 3.463a.657.657 0 0 1-.879.835zM515.322 423.762c-1.259-.55-2.329-1.281-3.371-2.037a27.307 27.307 0 0 1-2.88-2.506c-.901-.892-1.739-1.844-2.458-2.909-.705-1.079-1.349-2.216-1.708-3.625a.565.565 0 0 1 .713-.681c1.391.425 2.497 1.121 3.542 1.875 1.031.768 1.943 1.649 2.792 2.591a27.202 27.202 0 0 1 2.37 2.994c.707 1.077 1.387 2.18 1.879 3.463a.657.657 0 0 1-.879.835z" fill="#04294F"/><path d="M750.991 373.168c16.045 0 29.052-23.69 29.052-52.912 0-29.223-13.007-52.912-29.052-52.912s-29.052 23.689-29.052 52.912c0 29.222 13.007 52.912 29.052 52.912z" fill="#00AEE0"/><path d="M750.21 276.878c-11.032 0-20.257 14.431-22.597 33.753-43.666 36.791-123.435 30.823-124.278 30.752l-.649 7.974c.455.037 5.934.468 14.655.468 9.321 0 22.346-.491 36.899-2.48a225.563 225.563 0 0 0 18.881-3.39l-.008.005c8.659-2.107 10.108 10.538 2.643 11.993-38.306 8-71.375 4.339-71.868 4.282l-1.761 14.896c1.033.122 9.607 1.086 22.753 1.086 7.11 0 15.562-.286 24.873-1.136l.065-.003c13.816-.911 14.935 10.851 12.191 29.601-2.195 14.996 15.115 13.134 12.167 0-3.667-16.333-3.279-32.264 9.141-34.916l-.01-.005c16.575-3.832 33.974-9.804 50.426-18.997 4.201 7.948 10.03 12.875 16.476 12.875 12.801 0 23.177-19.42 23.177-43.378.001-23.959-10.375-43.38-23.176-43.38zm-61.005 74.484c-1.991.607-4.312-1.218-5.184-4.076-.871-2.858.037-5.668 2.029-6.275 1.991-.607 4.312 1.218 5.184 4.076.87 2.859-.037 5.668-2.029 6.275zm18.579-4.901c-6.173 2.19-10.799-9.218-4.504-12.039l.089-.043c8.255-3.518 16.301-7.849 23.676-13.177.061 5.347.638 10.454 1.644 15.157-6.787 3.945-13.808 7.287-20.905 10.102z" fill="#fff"/><path d="M750.21 334.019c4.061 0 7.354-6.162 7.354-13.763s-3.293-13.763-7.354-13.763c-4.062 0-7.354 6.162-7.354 13.763s3.292 13.763 7.354 13.763z" fill="#FF3A00"/><path d="M745.043 354.38c1.702 0 3.082-2.582 3.082-5.768s-1.38-5.768-3.082-5.768-3.082 2.582-3.082 5.768 1.38 5.768 3.082 5.768zM760.51 307.307c1.702 0 3.082-2.582 3.082-5.768s-1.38-5.768-3.082-5.768-3.082 2.582-3.082 5.768 1.38 5.768 3.082 5.768zM752.843 345.37c.989 0 1.791-1.5 1.791-3.351s-.802-3.351-1.791-3.351c-.989 0-1.791 1.5-1.791 3.351s.802 3.351 1.791 3.351zM766.988 315.413c.989 0 1.791-1.5 1.791-3.351s-.802-3.351-1.791-3.351c-.989 0-1.791 1.5-1.791 3.351s.802 3.351 1.791 3.351zM745.043 292.913c.989 0 1.791-1.5 1.791-3.351s-.802-3.351-1.791-3.351c-.989 0-1.791 1.5-1.791 3.351s.802 3.351 1.791 3.351z" fill="#FFB400"/><path d="M441.283 410.087c-4.829-4.707-9.872-8.692-16.528-10.448 5.484 3.525 11.021 6.964 16.528 10.448zM479 434.951l.044-.007-.07-.011a.203.203 0 0 0 .026.018zM481.589 434.461a47.872 47.872 0 0 0 3.493-.885 31.288 31.288 0 0 1-1.45-1.74c-.692.866-1.368 1.745-2.043 2.625zM630.006 361.004c-2.319-22.271-8.25-39.9-13.239-39.38l-.011-.03c-2.34.36-4.619.68-6.85.96-17.127 2.193-31.225 2.332-41.786 1.77-7.855-2.258-27.441-8.789-39.267-20.586-12.23-12.201-24.319-23.469-39.696-16.367l-.019-.029c-.078.048-.153.097-.231.146-2.693 1.276-5.487 3.113-8.4 5.611-24.918 18.029-34.177 38.43-24.05 49.492 10.697 11.685 36.473-3.071 50.407-22.656 21.507 20.569 45.298 46.146 54.214 63.305a17.319 17.319 0 0 1 1.492 3.106l.02.044-.008-.008c.118.326.205.662.305.994 1.819 2.319 2.766 5.271 3.486 8.184.228.381.402.797.498 1.248.549 2.59 1.052 5.05 1.135 7.484.032.362.081.724.099 1.087 3.545.138 7.274.217 11.191.217 8.619 0 18.109-.38 28.41-1.31a333.687 333.687 0 0 0 17.87-2.1c4.701-1.442 6.691-19.512 4.43-41.182z" fill="#00AEE0"/><path d="M468.177 320.511c9.333 6.708-4.167 16.583-7.792 13.958-4.943-3.58 1.105-18.764 7.792-13.958z" fill="#FF3A00"/><path d="M390.078 406.69l.631 2.472-.631-2.472zM390.709 409.162c.006.025.006.024 0 0zM390.072 406.665l.006.024-.006-.024zM468.039 440.279s1.363 5.717 0 0z" fill="#00AEE0"/><path d="M499.414 422.141c-3.149-3.734-7.71-5.463-12.526-5.256a22.04 22.04 0 0 0-6.508 1.272c.335-2.184.351-4.378-.135-6.423-1.035-4.357-4.379-7.955-8.653-9.296-3.231-1.014-6.874-.638-10.257.334 1.022-2.327 1.845-4.739 2.402-7.223.487-2.174.865-4.441.466-6.659a11.453 11.453 0 0 0-2.983-5.861c-3.294-3.446-7.761-4-12.21-2.97-5.778 1.338-11.202 4.127-15.877 7.745a47.481 47.481 0 0 0-8.991 9.121c-.381-2.632-1.356-5.146-3.086-7.332-2.963-3.744-7.409-5.765-12.15-5.754-5.909.013-11.762 2.384-15.469 7.092-1.832 2.326-2.98 5.096-3.477 8.006a21.57 21.57 0 0 0-.288 4.315c.031.982-.047 2.518.401 3.414 1.808 7.082 8.239 11.967 15.5 11.952 3.876-.008 7.746-1.037 10.936-3.247-.041.51-.081 1.019-.086 1.526.101 6.068 4.918 11.221 11.005 11.604 2.4.15 4.923-.488 7.196-1.194a39.696 39.696 0 0 0 5.485-2.177c-.312 1.987-.877 6.234-.514 6.234.129 1.173.417 2.327.853 3.424 1.679 4.231 5.512 7.387 9.996 8.192 5.016.901 10.832-.947 15.154-3.399a28.162 28.162 0 0 0 2.161-1.375c.06.967.157 2.076.281 2.076a15.782 15.782 0 0 0 5.814 8.886c3.045 2.296 6.612 3.19 10.385 3.038 9.265-.374 16.726-6.974 18.335-16.09.875-4.971.163-10.035-3.16-13.975zM439.6 431.42l.003.028-.003-.028zM439.639 431.766l.125 1.13-.125-1.13z" fill="#00AEE0"/><path d="M439.604 431.448l.035.317a19.426 19.426 0 0 1-.035-.317zM439.594 431.363l.006.057-.006-.057zM439.816 433.375l.018.159-.018-.159zM439.763 432.896l.017.157-.017-.157zM439.834 433.534c.095.865.066.597 0 0zM439.812 433.333l.005.043-.005-.043zM439.781 433.053l.031.28-.031-.28z" fill="#00AEE0"/><path d="M455.902 388.875c5.226 4.894-1.892 19.136-10.834 10.165-8.219-8.245 5.071-15.563 10.834-10.165zM472.004 410.719c4.43 4.148-1.604 16.22-9.183 8.616-6.966-6.989 4.299-13.192 9.183-8.616zM494.004 425.719c4.43 4.148-1.604 16.22-9.184 8.616-6.965-6.989 4.299-13.192 9.184-8.616zM404.41 405.435c7.167 4.333 5.667 13.166-3.833 7.333s-2.672-11.266 3.833-7.333z" fill="#FF3A00"/><path d="M504.475 429.447c-.158-1.775-.594-3.573-1.379-5.237a15.248 15.248 0 0 0-3.192-4.461c-2.624-2.586-6.219-4.11-9.761-4.343a18.41 18.41 0 0 0-7.605 1.111c.024-.412.056-.823.056-1.241.001-1.261-.112-2.547-.414-3.819a14.512 14.512 0 0 0-1.437-3.631c-1.256-2.279-3.153-4.157-5.375-5.425-2.21-1.284-4.82-1.879-7.26-1.782-1.396.04-2.745.267-4.05.608a39.45 39.45 0 0 0 1.388-4.334c.477-1.876.911-3.816.913-5.981a13.144 13.144 0 0 0-1.592-6.298 12.903 12.903 0 0 0-4.388-4.765c-1.851-1.19-4.012-1.864-6.124-2.009-2.112-.16-4.198.164-6.1.698-1.881.516-3.721 1.158-5.478 1.971-3.53 1.587-6.787 3.684-9.698 6.142-2.819 2.36-5.209 4.966-7.538 7.67-.625-2.45-1.803-4.812-3.513-6.728a17.115 17.115 0 0 0-3.764-3.194 17.556 17.556 0 0 0-4.54-1.919 18.292 18.292 0 0 0-4.855-.588c-1.586.04-3.168.235-4.714.59-3.096.691-6.051 2.089-8.517 4.109-2.468 2.003-4.401 4.688-5.469 7.629-1.086 2.937-1.368 6.074-1.002 9.053a.608.608 0 0 0 1.211-.039c.18-2.845.83-5.609 2.058-8.039 1.211-2.437 3.02-4.476 5.189-6.014 2.166-1.538 4.692-2.534 7.301-3.042a19.978 19.978 0 0 1 3.973-.343c1.295-.008 2.569.17 3.801.499a13.811 13.811 0 0 1 6.409 3.907c1.69 1.888 2.895 4.201 3.363 6.792.537 2.561.424 5.362-.104 8.033-.553 2.68-1.69 5.264-3.333 7.601l-.004.005a.497.497 0 0 0 .728.664c2.311-1.957 4.063-4.622 5.105-7.553 1.025-2.942 1.455-6.086 1.082-9.296-.03-.245-.075-.489-.116-.733a.593.593 0 0 0 .224-.139l.004-.004a93.482 93.482 0 0 1 4.011-3.832c1.376-1.224 2.745-2.479 4.23-3.469a45.603 45.603 0 0 1 4.69-2.774 40.715 40.715 0 0 1 4.936-2.188c1.686-.61 3.395-1.132 5.132-1.502a15.344 15.344 0 0 1 4.972-.341c1.599.164 3.079.701 4.34 1.563a9.926 9.926 0 0 1 3.034 3.438 9.156 9.156 0 0 1 1.079 4.432c-.021 1.569-.364 3.305-.767 5.04-.403 1.719-.958 3.404-1.602 5.058a40.7 40.7 0 0 1-2.215 4.862c-3.365 6.326-8.104 11.99-13.879 16.589a.494.494 0 0 0 .53.831c3.386-1.706 6.495-4.001 9.257-6.656a44.342 44.342 0 0 0 7.202-8.997 45.344 45.344 0 0 0 2.346-4.505c1.617-.174 3.218-.219 4.756-.035 2.096.226 3.993.945 5.627 2.084a11.955 11.955 0 0 1 3.809 4.417c.431.87.744 1.788.926 2.731.212.94.288 1.932.273 2.938-.036 2.015-.439 4.084-1.035 6.115-.599 2.027-1.365 4.068-2.334 5.968-1.882 3.859-4.561 7.337-7.795 10.475l-.004.004a.499.499 0 0 0 .567.805c4.207-2.062 7.753-5.502 10.301-9.564 1.241-2.064 2.284-4.212 3.031-6.519.431-1.311.752-2.673.962-4.068 2.533-.307 5.055-.307 7.374.171 1.434.283 2.786.794 4.045 1.427 1.237.679 2.375 1.509 3.349 2.511 1.986 1.992 3.258 4.529 3.887 7.369.631 2.848.636 5.961.301 9.149a.505.505 0 0 0 .931.324c.905-1.442 1.479-3.081 1.863-4.751.393-1.68.499-3.444.387-5.225z" fill="#04294F"/><path d="M435.322 419.667c-1.084-.383-2.009-.919-2.871-1.513a18.091 18.091 0 0 1-2.38-1.982c-.735-.717-1.406-1.494-1.958-2.385-.538-.905-1.015-1.867-1.208-3.101a.601.601 0 0 1 .713-.681c1.224.25 2.163.771 3.042 1.351.864.593 1.61 1.3 2.292 2.067a18.037 18.037 0 0 1 1.87 2.47c.554.889 1.046 1.838 1.379 2.939a.68.68 0 0 1-.879.835zM427.072 422.31a4.262 4.262 0 0 1-1.747-.335 4.286 4.286 0 0 1-1.255-.804 2.92 2.92 0 0 1-.833-1.207c-.163-.512-.265-1.082-.083-1.923a.882.882 0 0 1 .713-.681c.849-.143 1.413-.014 1.917.173.489.201.86.514 1.167.889a4.306 4.306 0 0 1 .998 3.051.894.894 0 0 1-.877.837zM452.072 437.31a4.262 4.262 0 0 1-1.747-.335 4.286 4.286 0 0 1-1.255-.804 2.92 2.92 0 0 1-.833-1.207c-.163-.512-.265-1.082-.083-1.923a.882.882 0 0 1 .713-.681c.849-.143 1.413-.014 1.917.173.489.201.86.514 1.167.889a4.306 4.306 0 0 1 .998 3.051.894.894 0 0 1-.877.837zM569.105 402.186c-.071-1.156-.261-2.289-.478-3.415-.446-2.25-1.167-4.421-1.972-6.548-.805-2.13-1.777-4.184-2.796-6.209l-3.18-5.953c-4.406-7.929-9.888-15.133-15.537-22.116a367.6 367.6 0 0 0-17.834-20.194 554.444 554.444 0 0 0-18.051-18.24l5.041-11.508a.615.615 0 0 0-1.074-.589l-.026.038-7.372 11.03a1.929 1.929 0 0 0-.477.5l-.011.018c-2.542 3.92-5.777 7.544-9.208 10.88-3.464 3.319-7.18 6.393-11.162 9.012-3.973 2.604-8.255 4.786-12.71 5.871-2.219.538-4.481.763-6.648.501-2.166-.255-4.217-1.018-5.984-2.275a13.411 13.411 0 0 1-2.419-2.198c-.721-.813-1.358-1.698-1.836-2.669a11.973 11.973 0 0 1-1.104-3.063c-.258-1.067-.355-2.183-.362-3.306-.008-2.254.424-4.545 1.127-6.775.7-2.234 1.669-4.412 2.809-6.509 2.304-4.188 5.195-8.106 8.415-11.744 3.238-3.628 6.792-6.991 10.506-10.185l.006-.005a.493.493 0 0 0-.617-.769c-1.983 1.472-3.948 2.977-5.833 4.587a99.102 99.102 0 0 0-5.456 5.064c-3.483 3.544-6.738 7.387-9.325 11.738-1.294 2.171-2.43 4.461-3.299 6.888-.882 2.419-1.435 5.005-1.513 7.671-.032 1.331.048 2.684.324 4.018a15.292 15.292 0 0 0 1.277 3.891c.575 1.251 1.35 2.406 2.228 3.455a16.866 16.866 0 0 0 2.978 2.801c2.21 1.644 4.89 2.693 7.6 3.055 2.716.376 5.428.134 7.99-.437 5.135-1.194 9.743-3.569 13.997-6.301 4.255-2.755 8.171-5.95 11.78-9.457 2.933-2.877 5.691-5.929 8.137-9.308.134-.068.259-.149.375-.246 5.832 5.617 11.607 11.293 17.233 17.112 6.186 6.415 12.28 12.92 18.039 19.7 5.781 6.755 11.314 13.737 15.936 21.265l3.373 5.752c1.067 1.928 2.09 3.885 2.946 5.908.866 2.018 1.611 4.087 2.162 6.198.262 1.056.501 2.123.623 3.197.125 1.05.194 2.199.057 3.134l-.012.08a.605.605 0 0 0 1.19.206c.254-1.271.209-2.38.147-3.551zM551.28 409.076c0 .001 5.713-1.251 0 0zM429.05 288.661c1.841-3.411 4.371-6.337 7.299-8.893 1.474-1.263 3.054-2.428 4.76-3.411a27.172 27.172 0 0 1 5.397-2.472c1.896-.615 3.862-1.071 5.866-1.23 2.001-.143 4.019-.077 5.98.27 3.915.732 7.582 2.37 10.574 4.768a.502.502 0 0 1-.457.872l-.008-.003c-3.578-1.083-7.048-1.959-10.53-2.141-3.469-.191-6.9.202-10.196 1.251a31.342 31.342 0 0 0-4.833 1.963 43.415 43.415 0 0 0-4.56 2.717c-2.946 2.008-5.739 4.396-8.294 6.995l-.03.03a.608.608 0 0 1-.968-.716zM454.385 264.886c2.49-.842 5.156-1.182 7.842-1.094a22.55 22.55 0 0 1 7.919 1.718 21.017 21.017 0 0 1 6.769 4.48c1.901 1.914 3.457 4.131 4.427 6.605a.51.51 0 0 1-.783.593l-.012-.009c-2.071-1.574-3.925-3.139-5.895-4.492-1.949-1.366-3.952-2.565-6.081-3.52-2.129-.95-4.376-1.646-6.719-2.133-2.346-.491-4.778-.729-7.312-.946l-.01-.001a.618.618 0 0 1-.145-1.201zM527.833 285.949a51.587 51.587 0 0 0 4.135 5.02c1.47 1.57 3.018 3.038 4.615 4.456.832.674 1.622 1.393 2.482 2.038l1.253 1.018c.434.32.857.657 1.283.995.414.357.852.68 1.289 1.011.44.325.858.695 1.293 1.043.873.692 1.772 1.36 2.616 2.196l.026.026a.513.513 0 0 1-.432.873c-2.351-.327-4.587-1.109-6.682-2.178-2.107-1.055-4.018-2.478-5.783-4.055-1.732-1.618-3.295-3.432-4.558-5.446-1.251-2.024-2.289-4.168-2.684-6.602a.613.613 0 0 1 1.102-.457l.045.062zM444.406 446.267a72.28 72.28 0 0 0 9.412 6.56c.832.463 1.64.961 2.485 1.394.851.422 1.68.877 2.52 1.31 1.729.772 3.434 1.577 5.202 2.239 3.533 1.303 7.128 2.454 10.844 3.191 1.84.492 3.724.713 5.617 1.062.946.194 1.902.277 2.863.386.962.13 1.93.255 2.909.433l.042.008a.498.498 0 0 1 .013.976c-3.905.815-7.983 1.084-12.001.608-2.02-.176-4.003-.597-5.981-1.054-.99-.224-1.941-.582-2.911-.878l-1.442-.483-1.406-.577c-3.779-1.468-7.325-3.498-10.56-5.897-3.229-2.415-6.184-5.164-8.525-8.49a.609.609 0 0 1 .882-.82l.037.032zM522.428 443.654a84.79 84.79 0 0 0 8.609-3.687c2.781-1.378 5.493-2.856 8.075-4.541 2.582-1.677 5.12-3.422 7.554-5.337 1.279-.89 2.434-1.925 3.69-2.878.631-.475 1.224-.991 1.83-1.502.623-.497 1.245-1 1.913-1.475l.029-.021a.502.502 0 0 1 .734.644c-1.538 2.899-3.537 5.553-5.871 7.875-2.298 2.369-4.974 4.346-7.779 6.076l-2.141 1.239-2.218 1.095a42.587 42.587 0 0 1-4.579 1.844c-3.123 1.041-6.327 1.797-9.671 1.866a.61.61 0 0 1-.222-1.183l.047-.015zM537.493 448.418c.594-.874 1.256-1.56 1.942-2.186a18.72 18.72 0 0 1 2.151-1.675c.744-.505 1.52-.952 2.385-1.287.877-.319 1.794-.589 2.959-.582h.006a.619.619 0 0 1 .593.784c-.314 1.136-.903 1.959-1.558 2.696-.667.722-1.447 1.294-2.283 1.771-.833.481-1.721.873-2.659 1.155-.939.279-1.925.458-2.998.41a.691.691 0 0 1-.543-1.078l.005-.008zM497.812 297.624c.373.794.829 1.575 1.672 2.29a.645.645 0 0 0 .972-.165c.562-.953.736-1.839.827-2.712.072-.87-.019-1.712-.196-2.539a12.37 12.37 0 0 0-.771-2.442c-.351-.798-.787-1.582-1.44-2.329a.711.711 0 0 0-1.196.202c-.371.92-.525 1.804-.594 2.673-.066.869-.035 1.721.075 2.56.105.839.297 1.664.651 2.462z" fill="#04294F"/><path d="M487.796 298.428c.223.484.522.926.966 1.29.461.354.996.668 1.876.793.352.05.71-.133.865-.472a3.729 3.729 0 0 0 .349-2.007c-.065-.57-.275-1.061-.561-1.51a5.137 5.137 0 0 0-1.073-1.231 4.705 4.705 0 0 0-1.669-.906l-.019-.006a.847.847 0 0 0-1.045.586 4.721 4.721 0 0 0-.143 1.894 5.13 5.13 0 0 0 .454 1.569z" fill="#04294F"/></svg>