<svg width="883" height="831" fill="none" xmlns="http://www.w3.org/2000/svg"><path d="M545.489 431.751a28.857 28.857 0 0 0-1.171-2.252c-7.964-13.827-25.629-18.58-39.456-10.616-84.338 37.663-206.011 36.462-255.871 33.493-23.674-1.409-33.002-7.285-35.12-13.777l.492-7.911c2.116-5.283 7.221-9.92 11.244-11.709 7.31-3.25-81.346-6.087-100.132-12.274-23.794 35.16-29.18 75.787-28.969 113.218l.005.353c-.169 25.904 4.198 51.584 11.926 75.508a389.675 389.675 0 0 1-9.746 9.06c-16.396 14.023-47.597 33.033-80.699 50.205 24.99-11.31 69.95 9.267 106.055 50.14 39.882 45.148 53.859 97.961 31.218 117.961-.296.261-.599.511-.904.759 23.221-15.129 79.878-59.906 99.113-81.949-28.215-14.87-23.092-26.671-17.941-23.418s15.441 8.774 31.666 9.321l-13.408 13.771a557.815 557.815 0 0 0 5.318-5.336l4.6-4.719c1.186-1.233 2.367-2.507 3.547-3.776 59.542-2.153 140.304-31.393 164.112-98.008 28.344-15.46 54.328-44.486 45.213-98.247l34.413-51.463-.001-.002c7.421-2.986 15.027-6.705 22.707-11.129 13.087-7.536 18.046-23.765 11.789-37.203zM95.875 607.184s10.531-9.446 12.631-11.452c3.818 10.286 8.106 20.438 11.625 26.872 3.519 6.434-9.439 7.91-24.256-15.42zM15.257 656.462l.001.001.018-.011-.019.01z" fill="#FFB400"/><path d="M124.048 705.188c-36.106-40.873-81.065-61.45-106.055-50.14a29.399 29.399 0 0 0-2.735 1.415 28.137 28.137 0 0 0-4.419 3.192c-22.64 20-8.664 72.813 31.218 117.961 35.823 40.553 80.357 61.121 105.46 50.395h.001a28.731 28.731 0 0 0 7.748-4.861c22.64-20.001 8.664-72.814-31.218-117.962zM72.04 751.13c-10.713-12.128-14.468-26.315-8.386-31.687 6.082-5.372 19.697.104 30.41 12.232 10.713 12.128 14.468 26.315 8.386 31.687-6.08 5.372-19.697-.104-30.41-12.232z" fill="#FF3A00"/><path d="M102.413 763.405c6.082-5.372 2.329-19.559-8.383-31.688-10.713-12.128-24.328-17.605-30.41-12.233-6.083 5.373-2.33 19.56 8.383 31.688 10.713 12.129 24.328 17.606 30.41 12.233z" fill="#fff"/><path d="M108.507 595.732c-2.1 2.006-12.632 11.452-12.632 11.452 14.817 23.331 27.776 21.854 24.257 15.419-3.519-6.435-7.807-16.586-11.625-26.871zM235.534 718.542c-5.151-3.253-10.274 8.547 17.941 23.418l.317-.325 13.408-13.771c-16.226-.548-26.515-6.069-31.666-9.322z" fill="#FF3A00"/><path d="M741.193 245.443c-1.194-23.637 6.234-57.164 44.215-76.908l-65.949-45.328c-50.098 23.191-69.376 57.661-65.124 105.322 4.241 47.651-26.027 49.168-37.404 46.524-45.745-64.893-139.514-85.01-216.552-8.747l82.7 57.065a128.864 128.864 0 0 1 3.241-3.533c2.5-2.638 5.128-5.15 7.812-7.603 2.703-2.431 5.486-4.779 8.379-6.991a88.69 88.69 0 0 1 9.032-6.162 1.022 1.022 0 0 1 1.226 1.619l-.012.012c-2.619 2.493-5.308 4.86-7.964 7.275l-7.98 7.215-8.015 7.194a596.95 596.95 0 0 1-3.121 2.766l24.252 16.734c5.826-7.838 12.64-15.672 20.038-22.993.218-.22.426-.439.644-.649a68.832 68.832 0 0 1 2.729-2.621c.06-.052.109-.105.159-.147 34.018-32.133 78.574-52.371 97.199-14.727 1.962 3.97 4.032 9.321 6.484 15.213v.01c8.196 19.729 20.557 45.404 46.959 44.756 3.839-.39 7.824-1.028 11.935-1.914.02-.001.03-.011.051-.012 3.345-.957 6.884-2.275 10.615-4.017 52.72-24.554 35.645-85.727 34.451-109.353zm-295.527 10.861c-1.947 1.343-3.868 2.732-5.818 4.098-1.936 1.376-3.898 2.766-5.896 4.076l-.028.018a1.028 1.028 0 0 1-1.378-1.487c1.53-1.986 3.248-3.727 5.068-5.382 1.813-1.659 3.755-3.169 5.758-4.6a53.308 53.308 0 0 1 6.341-3.815c2.202-1.125 4.526-2.054 6.935-2.688a1.027 1.027 0 0 1 .828 1.853l-.018.012-5.95 3.908c-1.949 1.334-3.921 2.624-5.842 4.007zm86.855 32.643l-.017.015c-.902.799-1.844 1.438-2.794 2.062a43.692 43.692 0 0 1-5.978 3.213c-1.058.447-2.134.875-3.322 1.151l-.007.002a1.077 1.077 0 0 1-1.093-1.712c.763-.977 1.658-1.773 2.593-2.512a21.97 21.97 0 0 1 2.988-1.943 20.7 20.7 0 0 1 3.284-1.434c1.145-.371 2.328-.666 3.583-.719a1.076 1.076 0 0 1 .763 1.877zm10.997-26.64l-.029.004c-2.488.364-4.944.792-7.358 1.414a72.47 72.47 0 0 0-7.119 2.245c-4.655 1.768-9.153 3.967-13.475 6.496-4.331 2.518-8.497 5.345-12.537 8.363a177.544 177.544 0 0 0-5.965 4.675c-.982.799-1.952 1.612-2.918 2.433l-1.444 1.239-.725.621-.364.315-.192.166-.125.108a1.713 1.713 0 0 1-.428.272 1.017 1.017 0 1 1-.695-1.911.504.504 0 0 0-.248.113c-.03.024.034-.043.046-.06l.147-.173.311-.366.632-.736 1.301-1.444c.874-.958 1.788-1.876 2.698-2.8a97.863 97.863 0 0 1 5.754-5.242c3.966-3.359 8.24-6.367 12.739-9.029a87.87 87.87 0 0 1 6.975-3.607c2.395-1.068 4.846-2.028 7.357-2.81 2.508-.795 5.086-1.373 7.679-1.809 2.606-.385 5.24-.573 7.862-.506a1.02 1.02 0 1 1 .121 2.029zm15.657-25.758a1.015 1.015 0 0 1-1.151.746l-.015-.003a132.793 132.793 0 0 0-26.224-1.853 126.975 126.975 0 0 0-25.943 3.516c-8.504 2.031-16.795 4.952-24.768 8.588-7.96 3.664-15.621 8.025-22.829 13.102l-.009.006a1.017 1.017 0 0 1-1.24-1.61c6.869-5.777 14.472-10.709 22.542-14.712a120.691 120.691 0 0 1 25.365-9.261c8.779-2.101 17.805-3.226 26.83-3.197a105.75 105.75 0 0 1 26.713 3.436c.545.143.871.698.729 1.242zm85.976 54.136a1.072 1.072 0 0 1-.767.637c-1.406.291-2.82.322-4.216.229a23.143 23.143 0 0 1-4.131-.653 24.37 24.37 0 0 1-3.939-1.357c-1.271-.562-2.499-1.227-3.623-2.101a1.061 1.061 0 0 1 .721-1.895l.017.001c1.383.101 2.689.341 3.979.605 1.289.264 2.558.551 3.817.867 1.26.31 2.508.656 3.763 1.016 1.255.361 2.511.742 3.785 1.262l.015.006c.541.223.801.841.579 1.383zm77.764 16.531l.005-.022c1.505-6.144 2.549-12.334 3.049-18.572.484-6.24.41-12.512-.058-18.796-.411-6.289-1.218-12.594-1.655-19.02-.448-6.399-.499-13.043 1.116-19.431a1.017 1.017 0 0 1 1.996.378l-.003.026c-.79 6.183-.246 12.427.446 18.702.736 6.276 1.634 12.625 2.091 19.067.44 6.437.436 12.972-.387 19.427-.781 6.457-2.385 12.797-4.658 18.842a1.02 1.02 0 1 1-1.942-.601zm-10.831-95.21a31.474 31.474 0 0 1 1.765-5.18 29.997 29.997 0 0 1 2.659-4.799c1.029-1.514 2.2-2.938 3.585-4.16a1.042 1.042 0 0 1 1.653 1.179l-.004.01c-.677 1.64-1.416 3.189-2.135 4.739l-2.101 4.648-2.044 4.69c-.679 1.578-1.354 3.169-2.159 4.761l-.004.007a1.042 1.042 0 0 1-1.972-.485c.028-1.837.32-3.641.757-5.41zm-12.359 102.486c2.619-2.986 4.621-6.52 6.144-10.286 1.517-3.779 2.531-7.795 3.333-11.917l.003-.018a1.021 1.021 0 0 1 2.021.194c.001 4.341-.631 8.733-2.003 12.955-1.355 4.222-3.518 8.262-6.483 11.696-2.975 3.415-6.759 6.171-10.955 7.844-4.184 1.707-8.706 2.349-13.075 2.082a1.02 1.02 0 0 1-.071-2.031l.008-.001c4.123-.541 8.108-1.549 11.705-3.311 3.592-1.754 6.79-4.193 9.373-7.207zm-1.783-55.889c.178 3.143.133 6.318-.291 9.46-.411 3.138-1.16 6.25-2.398 9.162a1.025 1.025 0 0 1-1.959-.54l.002-.012c.413-2.992.698-5.946.806-8.913a87.966 87.966 0 0 0-.151-8.906c-.171-2.974-.507-5.948-.874-8.935l-1.216-9.021a1.024 1.024 0 0 1 1.964-.522c1.185 2.882 2.081 5.874 2.766 8.923a60.262 60.262 0 0 1 1.351 9.304zm-22.355-73.874c.65-2.868 1.57-5.701 2.839-8.362.291-.68.605-1.348.964-1.991l1.036-1.955c.76-1.261 1.51-2.532 2.342-3.746 1.666-2.427 3.471-4.757 5.488-6.895 2.009-2.152 4.142-4.146 6.604-5.867a1.023 1.023 0 0 1 1.383 1.48l-.034.042a289.063 289.063 0 0 0-5.23 6.641c-1.696 2.244-3.348 4.513-4.9 6.841-1.595 2.301-3.066 4.68-4.485 7.092-1.458 2.4-2.701 4.901-4.09 7.399l-.024.043a1.023 1.023 0 0 1-1.893-.722zm-15.575 106.575l.012-.004a31.806 31.806 0 0 0 6.295-2.823c1.977-1.156 3.757-2.603 5.365-4.198 1.619-1.589 2.997-3.406 4.177-5.336a30.069 30.069 0 0 0 2.875-6.149c1.507-4.293 2.115-8.888 2.067-13.475-.018-2.311-.239-4.561-.565-6.907a162.511 162.511 0 0 1-.834-7.216c-.917-9.638-1.056-19.449.403-29.115 1.399-9.654 4.458-19.122 9.262-27.579a1.018 1.018 0 0 1 1.803.939c-4.059 8.565-6.526 17.753-7.606 27.098a115.303 115.303 0 0 0-.727 14.109c.069 4.721.346 9.446.816 14.162l.385 3.535.45 3.531c.32 2.403.552 4.933.551 7.418.034 4.991-.785 10.03-2.561 14.753-1.776 4.712-4.615 9.088-8.387 12.464-3.766 3.377-8.407 5.702-13.244 6.754a1.018 1.018 0 0 1-.537-1.961zm45.22 38.453c-2.406 3.407-5.848 6.103-9.67 7.881-3.827 1.807-8.031 2.695-12.205 2.88-4.183.152-8.35-.382-12.317-1.492a45.424 45.424 0 0 1-11.242-4.815 1.02 1.02 0 0 1 .861-1.839l.02.007c3.714 1.296 7.42 2.429 11.183 3.181 3.759.738 7.565 1.136 11.332.963 3.764-.137 7.483-.846 10.97-2.167a29.377 29.377 0 0 0 9.524-5.92l.016-.015a1.02 1.02 0 0 1 1.528 1.336z" fill="#00AEE0"/><path d="M637.183 315.984v-.01c-2.452-5.891-4.523-11.243-6.484-15.213-18.625-37.645-63.182-17.406-97.199 14.727 10.924-9.872 20.598-12.129 30.055-9.922a134.189 134.189 0 0 1 4.76-2.964c6.306-3.715 12.874-7.107 20.172-9.141 1.836-.496 3.79-.8 5.56-1.042 1.826-.247 3.688-.471 5.591-.541 3.781-.13 7.839.303 11.469 2.06 3.644 1.705 6.59 4.589 8.656 7.79 2.097 3.212 3.481 6.726 4.487 10.273a1.018 1.018 0 0 1-1.903.707l-.011-.027c-.749-1.618-1.48-3.231-2.339-4.759a38.893 38.893 0 0 0-2.841-4.341c-1.047-1.348-2.194-2.587-3.468-3.637a18.146 18.146 0 0 0-4.152-2.558c-2.98-1.285-6.322-1.672-9.747-1.516-1.715.067-3.457.238-5.219.462-1.819.227-3.446.48-5.119.885-3.347.848-6.663 2.104-9.912 3.521-3.258 1.41-6.442 3.034-9.591 4.734-.786.425-1.56.877-2.341 1.316 15.535 5.647 30.883 22.22 50.674 35.619-.236-.329-.479-.654-.713-.985-1.112-1.714-2.231-3.423-3.196-5.223-1.973-3.582-3.643-7.286-4.711-11.311a1.018 1.018 0 0 1 1.894-.716l.029.061c1.724 3.453 3.72 6.876 5.843 10.135 2.138 3.263 4.408 6.435 6.915 9.41a96.848 96.848 0 0 0 4.573 5.184c15.221 8.431 33.075 14.043 55.228 11.781-26.403.645-38.763-25.03-46.96-44.759zm-3.383 22.385a1.096 1.096 0 0 1-.825.183c-1.108-.201-2.114-.649-3.06-1.2a12.439 12.439 0 0 1-2.574-2.043 12.207 12.207 0 0 1-1.96-2.662c-.516-.979-.921-2.023-1.05-3.153a1.089 1.089 0 0 1 1.768-.969l.034.028c.809.661 1.473 1.34 2.143 1.997l1.938 1.977 1.924 2.019c.638.704 1.294 1.413 1.904 2.276l.02.026c.348.492.23 1.173-.262 1.521z" fill="#04294F"/><path d="M558.448 235.308a105.75 105.75 0 0 0-26.713-3.436c-9.025-.029-18.051 1.096-26.83 3.197a120.747 120.747 0 0 0-25.365 9.261c-8.07 4.003-15.673 8.934-22.542 14.712a1.017 1.017 0 0 0 1.24 1.61l.009-.006c7.209-5.077 14.869-9.438 22.829-13.102 7.973-3.635 16.263-6.557 24.768-8.588a126.965 126.965 0 0 1 25.943-3.516c8.745-.256 17.528.369 26.224 1.853l.015.003a1.017 1.017 0 0 0 .422-1.988zM531.759 287.071c-1.255.053-2.438.347-3.583.719a20.7 20.7 0 0 0-3.284 1.434 21.97 21.97 0 0 0-2.988 1.943c-.935.739-1.829 1.535-2.593 2.512a1.077 1.077 0 0 0 1.093 1.712l.007-.002c1.188-.276 2.264-.704 3.322-1.151a44.127 44.127 0 0 0 5.978-3.213c.95-.623 1.892-1.262 2.794-2.062l.017-.015a1.076 1.076 0 0 0-.763-1.877zM496.813 315.203l7.98-7.215c2.656-2.415 5.345-4.782 7.964-7.275l.012-.012a1.021 1.021 0 0 0-1.226-1.619 88.853 88.853 0 0 0-9.032 6.162c-2.893 2.212-5.676 4.56-8.379 6.991-2.684 2.453-5.312 4.964-7.812 7.603a125.874 125.874 0 0 0-3.241 3.533 84.134 84.134 0 0 0-3.904 4.727 1.022 1.022 0 0 0 1.468 1.403l.012-.01a248.713 248.713 0 0 0 5.021-4.328 596.95 596.95 0 0 0 3.121-2.766l8.016-7.194zM457.477 248.378a1.027 1.027 0 0 0-.828-1.853c-2.409.634-4.732 1.563-6.935 2.688a53.175 53.175 0 0 0-6.341 3.815c-2.004 1.431-3.946 2.941-5.758 4.6-1.821 1.655-3.538 3.395-5.068 5.382a1.028 1.028 0 0 0 1.378 1.487l.028-.018c1.998-1.309 3.959-2.7 5.896-4.076 1.95-1.366 3.87-2.755 5.818-4.098 1.921-1.383 3.894-2.673 5.843-4.007l5.95-3.908.017-.012zM543.396 260.28c-2.622-.067-5.255.12-7.861.506-2.594.436-5.172 1.014-7.68 1.809-2.511.783-4.962 1.742-7.357 2.81a87.517 87.517 0 0 0-6.974 3.607c-4.499 2.661-8.773 5.669-12.739 9.029a97.198 97.198 0 0 0-5.754 5.242c-.911.924-1.824 1.842-2.698 2.8l-1.301 1.444-.633.736-.31.366-.148.173c-.012.017-.075.084-.045.06a.508.508 0 0 1 .248-.113 1.017 1.017 0 0 0 .695 1.911c.149-.066.299-.161.427-.272l.125-.108.193-.166.364-.315.725-.621 1.444-1.239c.966-.821 1.937-1.635 2.918-2.433a176.258 176.258 0 0 1 5.965-4.675c4.041-3.018 8.207-5.845 12.537-8.363 4.322-2.529 8.818-4.728 13.474-6.496a72.488 72.488 0 0 1 7.12-2.245c2.414-.622 4.869-1.05 7.357-1.414l.03-.004c.482-.07.858-.479.87-.982a1.018 1.018 0 0 0-.992-1.047z" fill="#fff"/><path d="M493.899 206.019c-15.346 1.257-30.441 5.379-44.18 12.09-.461.228-.69.774-.508 1.267.195.527.78.796 1.307.602a184.756 184.756 0 0 1 21.565-6.503c7.295-1.686 14.691-2.892 22.136-3.47 7.442-.616 14.93-.605 22.383-.03a154.174 154.174 0 0 1 22.215 3.447 1.025 1.025 0 0 0 1.196-.663 1.018 1.018 0 0 0-.636-1.291 108.155 108.155 0 0 0-22.426-5.044c-7.639-.909-15.377-1.006-23.052-.405zM491.2 197.405l.005.001c1.091.301 2.155.409 3.213.483a27.85 27.85 0 0 0 3.152-.001 27.258 27.258 0 0 0 3.132-.352c1.043-.191 2.088-.421 3.138-.845l.009-.004a1.09 1.09 0 0 0-.032-2.029c-1.075-.4-2.156-.581-3.236-.7a20.6 20.6 0 0 0-3.237-.063 20.882 20.882 0 0 0-3.208.432c-1.06.242-2.113.542-3.136 1.058a1.093 1.093 0 0 0-.559.683 1.085 1.085 0 0 0 .759 1.337zM406.85 226.176c3.837-2.245 7.639-4.491 11.488-6.646 3.854-2.143 7.729-4.234 11.673-6.189 3.927-1.988 7.92-3.842 11.944-5.639 4.031-1.786 8.108-3.474 12.212-5.179a1.022 1.022 0 0 0-.603-1.941c-4.403.94-8.72 2.257-12.947 3.812-4.233 1.544-8.362 3.368-12.398 5.373-4.02 2.037-7.95 4.254-11.722 6.715-3.777 2.449-7.422 5.104-10.83 8.042a1.02 1.02 0 0 0 1.183 1.652zM758.198 216.006a1.022 1.022 0 0 0-1.364.477c-1.723 3.575-2.863 7.425-3.601 11.321-.753 3.9-1.069 7.86-1.149 11.797-.044 3.94.143 7.862.555 11.746.399 3.885.977 7.735 1.771 11.547a1.023 1.023 0 0 0 2.022-.204c.017-3.886-.133-7.74-.239-11.575-.094-3.836-.192-7.652-.111-11.448.045-3.797.265-7.573.679-11.323a90.99 90.99 0 0 1 1.986-11.171 1.03 1.03 0 0 0-.549-1.167zM757.456 307.74a1.018 1.018 0 0 0-1.185.817l-.001.008c-1.28 6.975-3.079 13.809-5.712 20.262-2.649 6.437-6.18 12.481-10.747 17.652-4.524 5.207-10.075 9.481-16.178 12.802-6.119 3.314-12.737 5.732-19.55 7.676l-.035.01a1.017 1.017 0 0 0 .457 1.979c7.119-1.232 14.193-3.242 20.781-6.509 1.61-.88 3.269-1.687 4.832-2.66 1.523-1.036 3.069-2.046 4.575-3.113a277.116 277.116 0 0 0 4.245-3.569c1.292-1.323 2.613-2.623 3.876-3.974 4.884-5.578 8.586-12.116 11.072-19.004 2.524-6.887 3.865-14.105 4.402-21.3a1.025 1.025 0 0 0-.832-1.077zM782.164 206.899l.005-.017a1.07 1.07 0 0 0-1.64-1.191c-1.067.751-1.951 1.667-2.762 2.637a20.86 20.86 0 0 0-2.121 3.129 20.979 20.979 0 0 0-1.534 3.457c-.394 1.203-.704 2.438-.776 3.742a1.07 1.07 0 0 0 1.884.752l.008-.01c.818-.961 1.472-1.962 2.117-2.961a63.985 63.985 0 0 0 1.797-3.038 60.936 60.936 0 0 0 1.633-3.131c.509-1.075 1.01-2.162 1.389-3.369zM768.161 280.223a1.094 1.094 0 0 0-2.001.202l-.016.05c-.569 1.811-.565 3.529-.42 5.239.132 1.705.279 3.408.346 5.112.15 3.408.159 6.815-.051 10.206-.38 6.783-1.604 13.505-3.983 19.91a1.018 1.018 0 0 0 1.85.841c3.39-6.29 5.119-13.389 5.831-20.46.33-3.547.454-7.111.304-10.656-.219-3.531-.026-7.131-1.86-10.444zM756.313 355.225l-4.22 4.057a84.271 84.271 0 0 1-8.843 7.259l-4.809 3.332a1.036 1.036 0 0 0 .804 1.867c2.037-.438 3.991-1.197 5.846-2.151a29.49 29.49 0 0 0 9.634-7.899c1.299-1.631 2.427-3.396 3.257-5.306a1.036 1.036 0 0 0-1.669-1.159zM788.051 218.188a1.018 1.018 0 0 0-1.439.031c-1.891 1.975-3.127 4.213-4.164 6.59-1.028 2.37-1.701 4.868-2.18 7.389-.396 2.534-.62 5.093-.508 7.639 0 1.273.195 2.537.315 3.795.199 1.253.448 2.496.755 3.721a1.025 1.025 0 0 0 2.014-.139l.008-.074c.132-1.228.146-2.435.22-3.637l.126-1.796c.037-.597.053-1.193.13-1.785.064-.593.12-1.184.159-1.775.04-.592.146-1.176.216-1.762.108-1.178.323-2.337.506-3.5a64.35 64.35 0 0 1 1.587-6.857c.663-2.228 1.478-4.513 2.424-6.564l.054-.116a1.022 1.022 0 0 0-.223-1.16zM671.222 367.023l-.017-.006c-1.373-.459-2.707-.795-4.023-1.142a180.562 180.562 0 0 1-3.885-1.072c-1.28-.374-2.553-.76-3.833-1.18-1.281-.421-2.563-.872-3.941-1.272l-.023-.007a1.053 1.053 0 0 0-1.076 1.717c1.023 1.139 2.253 2.052 3.57 2.806a19.148 19.148 0 0 0 4.186 1.776 19.75 19.75 0 0 0 4.464.759c1.504.084 3.014.003 4.49-.354.338-.084.634-.336.753-.691a1.052 1.052 0 0 0-.665-1.334zM634.042 336.822c-.61-.863-1.267-1.572-1.905-2.276l-1.923-2.019-1.939-1.977c-.67-.658-1.333-1.336-2.142-1.997l-.034-.028a1.089 1.089 0 0 0-1.768.969c.129 1.13.533 2.174 1.05 3.153a12.199 12.199 0 0 0 1.96 2.662 12.439 12.439 0 0 0 2.574 2.043c.946.551 1.952.999 3.06 1.2a1.091 1.091 0 0 0 1.086-1.704l-.019-.026zM579.537 300.736c3.249-1.417 6.565-2.673 9.912-3.521 1.673-.405 3.3-.657 5.119-.885 1.762-.224 3.504-.395 5.219-.462 3.425-.156 6.769.231 9.748 1.516a18.132 18.132 0 0 1 4.151 2.558c1.274 1.05 2.421 2.289 3.468 3.637a38.893 38.893 0 0 1 2.841 4.341c.86 1.528 1.59 3.141 2.339 4.759l.012.027a1.018 1.018 0 0 0 1.902-.707c-1.007-3.546-2.39-7.061-4.487-10.273-2.067-3.201-5.013-6.085-8.656-7.79-3.63-1.756-7.688-2.189-11.469-2.06-1.903.07-3.765.294-5.591.541-1.77.241-3.724.546-5.56 1.042-7.298 2.035-13.866 5.427-20.172 9.141a143.381 143.381 0 0 0-9.19 5.966c-2.997 2.078-5.909 4.266-8.766 6.518a1.018 1.018 0 0 0 1.193 1.646l.005-.003c5.254-3.499 10.582-6.868 16.05-9.943.78-.439 1.554-.89 2.341-1.316 3.151-1.698 6.333-3.322 9.591-4.732zM536.662 325.772c-1.476.749-2.83 1.652-4.141 2.609a53.086 53.086 0 0 0-3.793 3.038 53.77 53.77 0 0 0-3.506 3.365c-1.12 1.174-2.193 2.398-3.132 3.762a1.041 1.041 0 0 0 1.332 1.518l.047-.024c1.483-.759 2.832-1.658 4.134-2.607a53.054 53.054 0 0 0 7.231-6.335c1.111-1.166 2.178-2.386 3.124-3.76l.033-.047a1.043 1.043 0 0 0-1.329-1.519zM617.425 334.366c-2.123-3.26-4.118-6.682-5.842-10.135l-.03-.061a1.018 1.018 0 0 0-1.894.716c1.068 4.025 2.738 7.729 4.711 11.311.966 1.8 2.084 3.509 3.196 5.223.233.331.476.656.713.985.955 1.331 1.929 2.647 2.974 3.911l.978 1.181 1.034 1.134c.699.746 1.355 1.532 2.091 2.243 1.489 1.403 2.917 2.869 4.538 4.122 3.102 2.66 6.573 4.864 10.152 6.769a1.02 1.02 0 0 0 1.131-1.682l-.04-.033c-3.043-2.536-6.096-4.966-8.869-7.717a87.44 87.44 0 0 1-3.354-3.373 96.848 96.848 0 0 1-4.573-5.184c-2.507-2.975-4.777-6.148-6.916-9.41zM563.228 320.352c-2.448.771-4.693 1.949-6.842 3.227-2.161 1.271-4.177 2.728-6.152 4.229-1.953 1.53-3.847 3.124-5.64 4.83-1.801 1.7-3.527 3.465-5.094 5.428a1.03 1.03 0 0 0 1.362 1.508l.007-.005c4.133-2.664 7.966-5.662 11.811-8.598l5.713-4.442c1.908-1.463 3.803-2.926 5.736-4.355l.02-.014a1.03 1.03 0 0 0-.921-1.808zM654.424 159.12l4.623-4.696c1.542-1.53 3.082-3.045 4.69-4.487 1.583-1.469 3.231-2.866 4.893-4.267 1.671-1.392 3.38-2.752 5.083-4.203l.007-.005a1.033 1.033 0 0 0-1.019-1.757c-2.173.776-4.224 1.844-6.168 3.079-1.954 1.226-3.776 2.656-5.493 4.202-1.692 1.572-3.282 3.259-4.677 5.098-1.403 1.829-2.648 3.78-3.609 5.879l-.004.007c-.174.383-.102.85.215 1.163a1.033 1.033 0 0 0 1.459-.013zM643.542 179.277a1.072 1.072 0 0 0-1.482.324c-.696 1.085-1.174 2.237-1.583 3.407a24.5 24.5 0 0 0-.917 3.579 25.192 25.192 0 0 0-.386 3.671c-.025 1.236.016 2.478.278 3.737a1.073 1.073 0 0 0 2.016.246l.002-.005c.549-1.143.909-2.297 1.239-3.453a40.21 40.21 0 0 0 .787-3.488c.212-1.169.374-2.346.481-3.539.096-1.196.163-2.4.054-3.661l-.001-.013a1.07 1.07 0 0 0-.488-.805zM615.191 260.64c4.859.368 9.83.459 14.853-.856 2.493-.66 5.025-1.791 7.115-3.642.546-.431.989-.971 1.466-1.474.414-.55.871-1.08 1.214-1.67.763-1.146 1.306-2.379 1.793-3.609 1.738-4.996 1.985-9.991 2.072-14.869.048-4.889-.201-9.721-.63-14.545a1.02 1.02 0 0 0-2.032.011c-.39 4.82-.571 9.638-.903 14.388-.191 2.371-.363 4.731-.715 7.03-.327 2.297-.783 4.547-1.542 6.599-.754 2.042-1.806 3.882-3.331 5.253-1.471 1.435-3.429 2.385-5.534 3.117-4.265 1.413-9.063 1.803-13.818 2.233l-.022.002a1.02 1.02 0 0 0 .014 2.032zM639.286 162.78l.007-.008c.915-1.042 1.687-2.121 2.436-3.205a99.51 99.51 0 0 0 4.21-6.62c.664-1.136 1.312-2.29 1.87-3.559l.008-.018a1.06 1.06 0 0 0-1.543-1.315c-1.213.773-2.254 1.731-3.2 2.765a23.997 23.997 0 0 0-4.479 7.055c-.534 1.294-.961 2.639-1.155 4.062a1.058 1.058 0 0 0 1.846.843zM626.384 234.483a1.018 1.018 0 0 0 1.347-.506c1.629-3.589 2.263-7.436 2.706-11.194.398-3.775.572-7.536.66-11.281.108-3.746.103-7.478.131-11.205l.011-5.585c.083-1.839-.032-3.667-.869-5.548l-.019-.042a1.11 1.11 0 0 0-2.012-.033c-.898 1.846-1.075 3.746-1.053 5.633l.065 5.598.199 11.161c.042 3.709.081 7.407-.084 11.067-.168 3.651-.526 7.288-1.618 10.666l-.01.029c-.159.487.07 1.024.546 1.24z" fill="#00AEE0"/><path d="M711.9 218.361c.514.26 1.141.054 1.4-.46l.004-.007c.805-1.592 1.48-3.184 2.159-4.761l2.044-4.69 2.101-4.648c.718-1.55 1.457-3.099 2.135-4.739l.004-.01a1.043 1.043 0 0 0-1.653-1.179c-1.386 1.221-2.556 2.645-3.585 4.16a29.962 29.962 0 0 0-2.659 4.799 31.474 31.474 0 0 0-1.765 5.18c-.438 1.769-.729 3.573-.756 5.409-.005.386.204.76.571.946zM723.546 308.41a1.016 1.016 0 0 0 1.31-.594c2.273-6.045 3.877-12.385 4.658-18.842.822-6.454.827-12.99.387-19.427-.457-6.442-1.355-12.79-2.091-19.067-.692-6.275-1.236-12.519-.446-18.702l.003-.026a1.016 1.016 0 0 0-1.996-.378c-1.615 6.388-1.563 13.032-1.116 19.431.438 6.426 1.245 12.73 1.655 19.02.468 6.284.542 12.557.058 18.796-.5 6.238-1.544 12.429-3.049 18.572l-.005.022a1.022 1.022 0 0 0 .632 1.195zM703.704 328.42l-.016.015a29.388 29.388 0 0 1-9.524 5.92c-3.487 1.321-7.206 2.031-10.97 2.167-3.767.174-7.573-.224-11.332-.963-3.763-.752-7.469-1.885-11.183-3.181l-.02-.007a1.022 1.022 0 0 0-.861 1.839 45.424 45.424 0 0 0 11.242 4.815c3.967 1.11 8.134 1.644 12.317 1.492 4.174-.185 8.378-1.074 12.205-2.88 3.822-1.778 7.264-4.474 9.67-7.881a1.02 1.02 0 0 0-1.528-1.336zM660.549 293.264c4.837-1.053 9.478-3.377 13.244-6.754 3.772-3.375 6.611-7.751 8.387-12.464 1.776-4.723 2.595-9.762 2.561-14.753.001-2.485-.231-5.015-.551-7.418l-.45-3.531-.385-3.535a167.48 167.48 0 0 1-.816-14.162c-.04-4.72.191-9.434.727-14.109 1.08-9.345 3.547-18.533 7.606-27.098a1.022 1.022 0 0 0-.416-1.321 1.018 1.018 0 0 0-1.387.382c-4.803 8.457-7.863 17.924-9.262 27.579-1.459 9.666-1.32 19.477-.403 29.115.226 2.414.501 4.819.834 7.216.326 2.346.547 4.596.565 6.907.048 4.587-.56 9.182-2.067 13.475a30.069 30.069 0 0 1-2.875 6.149c-1.18 1.93-2.558 3.747-4.177 5.336-1.608 1.595-3.388 3.043-5.365 4.198a31.806 31.806 0 0 1-6.295 2.823l-.012.004a1.018 1.018 0 0 0 .537 1.961zM644.571 289.303l-.014-.006c-1.274-.52-2.531-.901-3.786-1.262a102.16 102.16 0 0 0-3.763-1.016 87.236 87.236 0 0 0-3.817-.867c-1.289-.264-2.595-.504-3.979-.605l-.017-.001a1.06 1.06 0 0 0-.721 1.895c1.124.874 2.352 1.539 3.623 2.101a24.285 24.285 0 0 0 3.94 1.357c1.349.343 2.733.558 4.13.653 1.396.093 2.81.062 4.216-.229a1.06 1.06 0 0 0 .188-2.02zM678.649 325.011l-.008.001a1.02 1.02 0 0 0 .071 2.031c4.368.268 8.891-.375 13.075-2.082 4.196-1.673 7.98-4.43 10.955-7.844 2.965-3.434 5.128-7.474 6.483-11.696 1.371-4.222 2.004-8.613 2.003-12.955a1.02 1.02 0 0 0-2.021-.194l-.003.018c-.802 4.122-1.816 8.138-3.333 11.917-1.523 3.766-3.526 7.299-6.144 10.286-2.583 3.014-5.781 5.453-9.371 7.208-3.599 1.761-7.584 2.769-11.707 3.31zM676.087 185.85a1.022 1.022 0 0 0 1.391-.397l.024-.043c1.389-2.498 2.633-4.999 4.09-7.399 1.419-2.412 2.89-4.791 4.485-7.092 1.552-2.329 3.204-4.597 4.9-6.841a289.063 289.063 0 0 1 5.23-6.641l.034-.042a1.023 1.023 0 0 0-1.383-1.48c-2.462 1.721-4.595 3.715-6.604 5.867-2.017 2.138-3.822 4.468-5.488 6.895-.832 1.214-1.582 2.485-2.342 3.746l-1.036 1.955a21.356 21.356 0 0 0-.964 1.991c-1.269 2.66-2.188 5.494-2.839 8.362-.096.43.096.893.502 1.119zM692.739 239.746a1.024 1.024 0 0 0-.878 1.152l1.216 9.021c.368 2.987.704 5.961.874 8.935.207 2.972.245 5.941.151 8.906-.107 2.967-.392 5.921-.806 8.913l-.002.012a1.025 1.025 0 0 0 1.959.54c1.238-2.912 1.987-6.025 2.398-9.162.425-3.142.47-6.317.291-9.46a60.262 60.262 0 0 0-1.351-9.304c-.684-3.049-1.581-6.04-2.766-8.923a1.03 1.03 0 0 0-1.086-.63z" fill="#fff"/><path d="M880.763 4.442l-.008.017a7.788 7.788 0 0 1 .647 5.603c-3.817 14.874-11.952 42.833-28.184 86.087-19.838 52.863-35.711 83.719-42.087 95.32-1.823 3.317-5.722 4.87-9.336 3.745-9.538-2.968-29.983-11.323-61.883-34.173l-.003.003s-1.134 18.11-11.64 22.736h-.002c-2.513 1.127-5.551.671-7.611-1.226l-.004-.001-.014-.018c-12.314-10.326-15.867-42.91-16.833-49.701v-.003c-23.397-19.564-34.158-31.261-39.094-37.909-2.486-3.349-1.906-7.935 1.056-10.598-7.873 6.332-4.635 17.515-.737 22.328 4.531 6.102 13.97 16.459 33.581 33.247l-.006-.004c3.057 24.048 8.145 46.112 26.495 51.591.898.268 1.763.412 2.599.45l-.003.029c.393-.011.788-.031 1.183-.05.042-.003.086-.002.128-.005 8.108-.416 16.613-2.715 25.834-9.132 23.628 15.407 39.282 21.68 47.274 24.167 3.614 1.125 7.513-.428 9.336-3.745 6.376-11.601 22.249-42.456 42.087-95.32 16.232-43.254 24.367-71.213 28.184-86.087 1.241-4.722 2.145-11.972-.959-17.351z" fill="#04294F"/><path d="M664.708 94.923c4.936 6.648 15.697 18.345 39.094 37.909l.002.002 150.68-111.289c2.25-1.662 4.996 1.304 3.165 3.42l-117.74 136.077c31.9 22.851 52.345 31.205 61.883 34.173 3.614 1.125 7.513-.428 9.336-3.745 6.376-11.601 22.249-42.456 42.087-95.32 16.232-43.254 24.367-71.213 28.184-86.087a7.788 7.788 0 0 0-.647-5.603c-1.648-3.149-5.348-5.094-9.225-3.975-17.979 5.19-53.897 16.386-102.277 35.539-53.67 21.247-88.326 39.584-102.049 47.272a8.019 8.019 0 0 0-1.437 1.029c-2.961 2.663-3.542 7.249-1.056 10.598z" fill="#FFB400"/><path d="M857.652 24.964c1.831-2.116-.915-5.082-3.165-3.42l-150.681 111.29-.002-.002v.003c.966 6.79 4.519 39.375 16.833 49.701a.22.22 0 0 1 .014.018l.004.001c2.06 1.897 5.099 2.353 7.611 1.226h.002c10.506-4.626 11.64-22.736 11.64-22.736l.003-.003L857.652 24.964z" fill="#FF3A00"/><path d="M517.392 348.992a17.384 17.384 0 0 1 .204 16.907c-8.015 14.844-28.753 48.519-80.519 115.496-58.061 75.129-99.792 116.32-116.706 131.952-5.169 4.778-12.711 5.998-19.106 3.031-13.796-6.387-40.25-20.912-75.885-50.903-33.711-28.366-49.627-48.264-56.815-59.158-3.243-4.922-3.71-11.096-1.419-16.404-9.183 19.812-2.047 37.791 4.104 46.342 7.188 10.894 23.115 30.792 56.815 59.158 35.646 29.991 62.089 44.516 75.885 50.903 6.395 2.967 13.937 1.746 19.116-3.031 16.903-15.632 64.953-60.199 123.014-135.329 51.766-66.977 68.38-95.197 76.405-110.042 5.014-8.919 6.468-31.246-5.093-48.922zM211.11 567.025a1.207 1.207 0 0 1-1.599.043 187.298 187.298 0 0 1-11.425-10.395c-3.681-3.604-7.197-7.375-10.621-11.227-3.396-3.877-6.69-7.848-9.792-11.975-3.12-4.112-6.022-8.407-8.589-12.925a1.158 1.158 0 0 1 1.929-1.273l.021.028a349.205 349.205 0 0 0 9.477 11.925 490.064 490.064 0 0 0 9.952 11.572 622.784 622.784 0 0 0 10.252 11.327l10.448 11.19.004.005c.457.486.431 1.25-.057 1.705zm20.63 15.12l-.529 2.996c-.249 1.414-1.907 2.068-3.047 1.197-4.473-3.415-9.705-8.546-12.023-10.877a1.913 1.913 0 0 1-.12-2.563l1.349-1.649a1.912 1.912 0 0 1 2.777-.2 187.612 187.612 0 0 0 6.113 5.366 186.03 186.03 0 0 0 4.775 3.889c.557.438.828 1.143.705 1.841zm142.748-2.686c-4.671 5.243-9.471 10.37-14.285 15.485a960.127 960.127 0 0 1-14.74 15.061c-4.96 4.977-10.058 9.814-15.163 14.64l-3.844 3.601-1.925 1.794a22.695 22.695 0 0 1-2.254 1.83c-3.196 2.237-7.088 3.502-11.001 3.471a19.287 19.287 0 0 1-5.768-.893 21.275 21.275 0 0 1-2.688-1.066l-2.404-1.167c-3.184-1.579-6.281-3.277-9.362-5.002A312.973 312.973 0 0 1 273 616.211a427.438 427.438 0 0 1-17.378-11.989c-5.665-4.172-11.266-8.428-16.716-12.871a1.158 1.158 0 0 1-.166-1.628 1.164 1.164 0 0 1 1.585-.199c5.641 4.139 11.305 8.239 17.084 12.171 5.757 3.962 11.581 7.824 17.506 11.519 5.933 3.68 11.912 7.283 18 10.665 3.048 1.678 6.115 3.329 9.224 4.843l2.335 1.113c.766.35 1.444.625 2.202.855 1.484.456 3.037.683 4.589.674 3.103-.021 6.204-.961 8.761-2.738a18.643 18.643 0 0 0 1.835-1.471l1.934-1.778 3.856-3.564c5.137-4.753 10.183-9.6 15.243-14.434a953.181 953.181 0 0 0 15.006-14.687c4.993-4.908 9.895-9.909 14.83-14.882a1.205 1.205 0 0 1 1.758 1.649zm145.598-189.304c-2.656 5.294-5.55 10.464-8.621 15.518-3.051 5.068-6.273 10.024-9.568 14.927-6.638 9.772-13.593 19.318-21.046 28.479a1.16 1.16 0 0 1-1.63.168 1.166 1.166 0 0 1-.242-1.527c6.386-9.911 13.055-19.596 19.602-29.355a1677.91 1677.91 0 0 0 19.41-29.401 1.206 1.206 0 0 1 2.095 1.191z" fill="#04294F"/><path d="M168.565 506.316c7.188 10.894 23.104 30.792 56.815 59.158 35.636 29.991 62.089 44.516 75.885 50.903 6.395 2.967 13.937 1.746 19.106-3.031 16.914-15.632 58.645-56.822 116.706-131.952 51.766-66.977 72.505-100.651 80.519-115.496a17.384 17.384 0 0 0-.204-16.907.595.595 0 0 0-.034-.074 52.135 52.135 0 0 0-1.701-2.422c-8.183-9.766-25.447-26.989-60.247-50.998-34.713-23.948-54.785-32.867-65.163-36.174-5.443-1.732-11.385-.641-15.905 2.869-12.869 10.009-45.77 38.042-108.102 105.392-60.89 65.794-87.663 103.863-97.814 119.898-.389.62-.735 1.249-1.038 1.898a5.926 5.926 0 0 0-.242.53c-2.291 5.31-1.824 11.483 1.419 16.406zm51.523 30.669a1.644 1.644 0 0 1-2.334-.017c-3.882-3.956-6.5-6.891-7.863-8.469a1.636 1.636 0 0 1 .208-2.337l3.663-2.992a1.632 1.632 0 0 1 2.266.185c1.283 1.47 3.767 4.231 7.433 7.959a1.643 1.643 0 0 1-.008 2.312l-3.365 3.359zm14.296 6.989l-3.115 3.603a1.643 1.643 0 0 1-2.347.139 304.225 304.225 0 0 1-4.511-4.2 1.637 1.637 0 0 1-.024-2.345l3.371-3.366a1.64 1.64 0 0 1 2.29-.026 298.04 298.04 0 0 0 4.197 3.908c.656.601.721 1.615.139 2.287zm27.901 22.89l-3 3.663a1.647 1.647 0 0 1-2.252.276 369.786 369.786 0 0 1-21.141-16.902 1.636 1.636 0 0 1-.162-2.31l3.11-3.598a1.635 1.635 0 0 1 2.31-.169 361.894 361.894 0 0 0 20.837 16.681c.752.56.891 1.634.298 2.359zm12.624 8.811l-2.645 3.91a1.65 1.65 0 0 1-2.292.434 401.97 401.97 0 0 1-5.382-3.74 1.636 1.636 0 0 1-.314-2.376l2.998-3.662a1.632 1.632 0 0 1 2.208-.302 383.265 383.265 0 0 0 4.985 3.462c.747.509.948 1.526.442 2.274zm190.59-255.734c2.637-2.783 6.842-3.098 9.376-.699 1.265 1.198 1.921 2.864 1.848 4.69-.069 1.725-.792 3.397-2.035 4.71-1.242 1.312-2.873 2.125-4.592 2.288a6.61 6.61 0 0 1-.641.031c-1.575 0-3.028-.563-4.144-1.62-1.265-1.198-1.921-2.864-1.848-4.69.07-1.724.793-3.397 2.036-4.71zm-36.501-25.228a2.148 2.148 0 0 1 1.94-.415c2.659.749 5.103 1.848 7.473 3.064a64.874 64.874 0 0 1 6.812 4.106 63.953 63.953 0 0 1 6.266 4.898c1.981 1.781 3.878 3.674 5.522 5.895a2.129 2.129 0 0 1-2.387 3.284l-.018-.006c-2.596-.887-4.962-2.072-7.266-3.338a80.855 80.855 0 0 1-6.655-4.147 82.724 82.724 0 0 1-6.241-4.747c-2.003-1.703-3.953-3.49-5.71-5.594l-.004-.004a2.126 2.126 0 0 1 .268-2.996zM193.961 477.301c10.345-16.35 23.466-36.719 82.913-100.945 62.748-67.8 84.763-84.414 95.78-92.984.241-.188.537-.292.815-.3a1.1 1.1 0 0 1 .386.054c7.997 2.549 26.532 10.356 60.94 34.099 34.604 23.876 57.091 43.413 63.541 51.122.343.418.402 1.015.137 1.503-7.354 13.609-19.297 30.505-70.98 97.383-58.072 75.13-87.502 104.66-102.707 118.718a1.413 1.413 0 0 1-.919.378 1.204 1.204 0 0 1-.58-.123c-12.065-5.58-40.783-22.436-75.598-51.745-33.252-27.983-47.956-46.921-53.751-55.716-.28-.421-.274-.987.023-1.444z" fill="#FF3A00"/><path d="M515.657 346.496a51.628 51.628 0 0 1 1.702 2.422 16.989 16.989 0 0 0-1.702-2.422z" fill="#04294F"/><path d="M247.687 534.46c34.816 29.308 63.534 46.165 75.598 51.745.184.091.377.129.58.123.192-.005.575-.058.919-.378 15.205-14.057 44.637-43.588 102.708-118.718 51.683-66.879 63.626-83.775 70.979-97.383a1.357 1.357 0 0 0-.137-1.503c-6.449-7.709-28.936-27.246-63.54-51.122-34.408-23.742-52.944-31.55-60.941-34.099a1.149 1.149 0 0 0-.386-.054 1.417 1.417 0 0 0-.815.3c-11.017 8.569-33.032 25.184-95.78 92.984-59.448 64.227-72.568 84.595-82.913 100.945-.297.457-.303 1.023-.025 1.443 5.797 8.796 20.501 27.734 53.753 55.717zm44.604-44.165a3.434 3.434 0 0 1-.274.254l-25.209 20.595a1.019 1.019 0 0 1-1.381-1.492l22.482-23.542a3.029 3.029 0 1 1 4.382 4.185zm19.213 23.312a1.024 1.024 0 0 1-2.02.234l-3.95-16.664a3.045 3.045 0 1 1 6.009-.695l-.039 17.125zm133.283-145.81a1.021 1.021 0 0 1 .21 2.022l-18.614 3.945a3.043 3.043 0 1 1-.623-6.017l19.027.05zm-40.211-13.414c.08-.09.177-.185.265-.263l24.537-21.391a1.018 1.018 0 0 1 1.429 1.447l-21.717 24.25a3.03 3.03 0 1 1-4.514-4.043zm-18.958-23.739c.483-.014.898.309 1.019.755l4.481 16.529a3.045 3.045 0 1 1-5.983.887l-.509-17.118a1.023 1.023 0 0 1 .992-1.053zM344.186 354.5c44.941-4.547 84.511 22.794 88.384 61.065 3.873 38.271-29.411 72.992-74.351 77.539-44.94 4.557-84.511-22.784-88.385-61.055-3.885-38.28 29.411-72.991 74.352-77.549zm-86.413 122.294l18.614-3.945a3.042 3.042 0 1 1 .622 6.017l-19.028-.05a1.021 1.021 0 0 1-.208-2.022z" fill="#fff"/><path d="M358.219 493.105c44.941-4.547 78.226-39.268 74.352-77.539-3.874-38.271-43.444-65.612-88.384-61.065-44.94 4.558-78.237 39.268-74.352 77.55 3.873 38.27 43.443 65.611 88.384 61.054zm-62.145-79.516c7.481-4.232 22.489-12.194 40.545-18.818 17.729-6.509 34.933-10.706 44.056-12.717 3.611-.793 6.999 1.989 6.939 5.676-.104 7.15-.981 19.674-4.726 37.501-4.35 20.728-10.931 34.465-14.476 40.822-1.354 2.441-4.274 3.514-6.906 2.592-5.718-2.024-16.256-6.106-27.318-12.151 1.61-2.095 3.187-4.2 4.764-6.316a903.525 903.525 0 0 0 13.527-18.766c4.443-6.318 8.854-12.656 13.177-19.088 4.334-6.4 8.58-12.894 12.739-19.471a1.92 1.92 0 0 0-.069-2.135 1.915 1.915 0 0 0-2.661-.43 759.697 759.697 0 0 0-18.649 13.927c-6.143 4.697-12.21 9.478-18.243 14.29a1078.592 1078.592 0 0 0-17.915 14.569 1008.024 1008.024 0 0 0-8.783 7.408l-.532.463c-8.699-7.53-14.265-14.601-17.392-19.174-1.883-2.757-.981-6.532 1.923-8.182z" fill="#00AEE0"/><path d="M311.54 440.946l.532-.463c2.903-2.472 5.837-4.956 8.783-7.408a1077.644 1077.644 0 0 1 17.915-14.569c6.034-4.812 12.1-9.593 18.243-14.29a757.79 757.79 0 0 1 18.649-13.927 1.915 1.915 0 0 1 2.661.43c.466.65.468 1.494.069 2.135a741.646 741.646 0 0 1-12.739 19.471c-4.323 6.432-8.733 12.77-13.177 19.088a911.01 911.01 0 0 1-13.527 18.766 535.058 535.058 0 0 1-4.764 6.316c11.062 6.045 21.601 10.128 27.318 12.151 2.632.922 5.551-.151 6.906-2.592 3.545-6.357 10.126-20.094 14.476-40.822 3.745-17.827 4.622-30.351 4.726-37.501.06-3.688-3.328-6.469-6.939-5.676-9.123 2.011-26.327 6.209-44.056 12.717-18.057 6.624-33.065 14.587-40.545 18.818-2.904 1.65-3.805 5.424-1.925 8.183 3.129 4.572 8.695 11.643 17.394 19.173z" fill="#fff"/><path d="M428.734 297.713c1.758 2.104 3.708 3.891 5.71 5.594a83.258 83.258 0 0 0 6.241 4.747 81.399 81.399 0 0 0 6.655 4.147c2.304 1.266 4.669 2.451 7.266 3.338l.018.006a2.127 2.127 0 0 0 2.387-3.284c-1.644-2.221-3.541-4.114-5.522-5.895a63.953 63.953 0 0 0-6.266-4.898 64.771 64.771 0 0 0-6.812-4.106c-2.37-1.215-4.815-2.315-7.473-3.064a2.127 2.127 0 0 0-2.209 3.411l.005.004z" fill="#04294F"/><path d="M469.718 326.949c.755-.072 1.488-.447 2.065-1.056s.912-1.362.942-2.12c.026-.656-.187-1.233-.601-1.625-.369-.35-.866-.518-1.4-.518-.792 0-1.664.369-2.321 1.063-.577.609-.912 1.362-.942 2.12-.026.656.187 1.233.601 1.625.413.392.996.57 1.656.511z" fill="#FFB400"/><path d="M469.456 330.962c.212 0 .425-.01.641-.031 1.719-.163 3.349-.976 4.591-2.288 1.243-1.312 1.967-2.985 2.036-4.71.073-1.827-.584-3.493-1.849-4.69-2.534-2.399-6.738-2.084-9.375.699-1.243 1.312-1.967 2.985-2.036 4.71-.073 1.827.584 3.493 1.849 4.69 1.115 1.056 2.568 1.62 4.143 1.62zm-1.052-8.27c.657-.694 1.528-1.063 2.32-1.063.534 0 1.032.168 1.401.518.414.392.626.969.6 1.625-.03.758-.364 1.511-.941 2.12-.577.609-1.311.984-2.065 1.056-.66.059-1.243-.119-1.656-.511-.414-.392-.628-.969-.602-1.625.03-.757.366-1.51.943-2.12z" fill="#04294F"/><path d="M409.09 358.426l21.716-24.25a1.018 1.018 0 0 0-1.428-1.447l-24.537 21.391a3.03 3.03 0 1 0 4.249 4.306zM425.12 367.813a3.042 3.042 0 0 0 1.261 5.951l18.614-3.945a1.023 1.023 0 0 0-.209-2.022l-19.028-.05a3.253 3.253 0 0 0-.638.066zM257.982 478.815l19.028.05a3.042 3.042 0 1 0-.622-6.017l-18.614 3.945a1.023 1.023 0 0 0 .208 2.022zM385.239 349.523a3.045 3.045 0 1 0 5.878-1.594l-4.482-16.529a1.024 1.024 0 0 0-2.011.298l.509 17.118c.01.229.044.476.106.707zM287.908 486.11l-22.481 23.542a1.02 1.02 0 0 0 1.381 1.492l25.209-20.595a3.03 3.03 0 0 0 .175-4.538 3.03 3.03 0 0 0-4.284.099zM307.796 493.511a3.046 3.046 0 0 0-2.262 3.666l3.951 16.664a1.024 1.024 0 0 0 2.019-.234l.04-17.126a3.045 3.045 0 0 0-3.748-2.97z" fill="#00AEE0"/><path d="M519.659 388.598a1.205 1.205 0 0 0-1.666.364 1677.91 1677.91 0 0 1-19.41 29.401c-6.547 9.759-13.217 19.444-19.603 29.355a1.158 1.158 0 0 0 1.872 1.359c7.453-9.161 14.408-18.707 21.047-28.479 3.295-4.903 6.516-9.859 9.568-14.927 3.071-5.054 5.964-10.224 8.62-15.518a1.216 1.216 0 0 0-.428-1.555zM372.732 577.81c-4.936 4.972-9.837 9.973-14.83 14.882a957.525 957.525 0 0 1-15.006 14.687c-5.06 4.834-10.106 9.681-15.243 14.434l-3.856 3.564-1.934 1.778a18.643 18.643 0 0 1-1.835 1.471c-2.557 1.777-5.658 2.717-8.761 2.738a15.347 15.347 0 0 1-4.589-.674 17.198 17.198 0 0 1-2.202-.855l-2.335-1.113c-3.109-1.513-6.176-3.165-9.224-4.843-6.088-3.382-12.068-6.984-18-10.665-5.925-3.695-11.749-7.557-17.506-11.519-5.779-3.932-11.443-8.033-17.084-12.171a1.156 1.156 0 0 0-1.419 1.827c5.45 4.443 11.05 8.7 16.716 12.871a427.438 427.438 0 0 0 17.378 11.989 312.073 312.073 0 0 0 18.054 11.002c3.081 1.726 6.178 3.423 9.362 5.002l2.404 1.167c.824.387 1.768.782 2.688 1.066 1.862.588 3.814.89 5.768.893 3.913.031 7.806-1.234 11.001-3.471a22.695 22.695 0 0 0 2.254-1.83l1.925-1.794 3.844-3.601c5.105-4.826 10.203-9.663 15.163-14.64a960.127 960.127 0 0 0 14.74-15.061c4.814-5.115 9.614-10.242 14.285-15.485a1.209 1.209 0 0 0-.052-1.658 1.207 1.207 0 0 0-1.706.009zM226.26 576.414a185.525 185.525 0 0 1-6.113-5.366 1.912 1.912 0 0 0-2.777.2l-1.349 1.649a1.915 1.915 0 0 0 .12 2.563c2.317 2.332 7.55 7.462 12.023 10.877 1.141.871 2.798.217 3.047-1.197l.529-2.996a1.916 1.916 0 0 0-.705-1.841 187.775 187.775 0 0 1-4.775-3.889zM211.164 565.314l-10.448-11.19a619.457 619.457 0 0 1-10.252-11.327 490.064 490.064 0 0 1-9.952-11.572 349.205 349.205 0 0 1-9.477-11.925l-.021-.028a1.158 1.158 0 0 0-1.929 1.273c2.567 4.518 5.469 8.813 8.589 12.925 3.101 4.127 6.396 8.098 9.792 11.975 3.424 3.852 6.94 7.623 10.621 11.227a187.298 187.298 0 0 0 11.425 10.395 1.207 1.207 0 0 0 1.657-1.749l-.005-.004z" fill="#FF3A00"/><path d="M261.987 564.506a361.894 361.894 0 0 1-20.837-16.681 1.635 1.635 0 0 0-2.31.169l-3.11 3.598a1.636 1.636 0 0 0 .162 2.31c6.026 5.2 13.07 10.91 21.141 16.902a1.647 1.647 0 0 0 2.252-.276l3-3.663c.593-.726.454-1.8-.298-2.359zM230.048 537.779a1.64 1.64 0 0 0-2.29.026l-3.371 3.366a1.638 1.638 0 0 0 .024 2.345 315.319 315.319 0 0 0 4.511 4.2 1.642 1.642 0 0 0 2.347-.139l3.115-3.603a1.645 1.645 0 0 0-.14-2.287 303.395 303.395 0 0 1-4.196-3.908zM223.461 531.313c-3.667-3.728-6.15-6.489-7.433-7.959a1.632 1.632 0 0 0-2.266-.185l-3.663 2.992a1.637 1.637 0 0 0-.208 2.337c1.363 1.578 3.981 4.514 7.863 8.469a1.644 1.644 0 0 0 2.334.017l3.365-3.36a1.642 1.642 0 0 0 .008-2.311zM274.469 573.401a393.35 393.35 0 0 1-4.985-3.462 1.632 1.632 0 0 0-2.208.302l-2.998 3.662a1.638 1.638 0 0 0 .314 2.376 401.97 401.97 0 0 0 5.382 3.74 1.65 1.65 0 0 0 2.292-.434l2.645-3.91a1.643 1.643 0 0 0-.442-2.274z" fill="#04294F"/><path d="M330.164 366.496c-7.378-3.414-14.957-6.612-22.797-9.486-7.869-2.824-16-5.318-24.436-7.342-16.836-4.043-35.088-6.169-54.322-4.525a138.469 138.469 0 0 0-29.091 5.661 134.44 134.44 0 0 0-28.219 12.434c-9 5.253-17.334 11.66-24.846 18.748-7.513 7.098-14.172 14.908-19.97 23.083l-1.779 2.495a43.135 43.135 0 0 0-4.16 7.414c-9.519 21.714.367 47.032 22.081 56.551 12.628 5.536 26.471 4.498 37.721-1.603 8.592-12.023 28.748-37.057 28.748-37.057l.003.03c1.707-2.102 3.525-4.089 5.497-5.927 6.527-6.024 14.724-10.79 24.796-13.75 10.036-2.963 21.737-4.112 34.094-3.487 6.178.297 12.517.989 18.936 2.015 6.421 1.083 12.913 2.492 19.437 4.147l.728.19c12.09 3.076 21.802-3.887 27.23-15.618 6.126-13.243 3.59-27.847-9.651-33.973zm-57.928-.827c-.177 1.002-.252 2.014-.551 2.993-.442 1.978-1.268 3.868-2.311 5.584a1.031 1.031 0 0 1-1.905-.657l.01-.077c.227-1.881.567-3.646.69-5.452.099-.893.125-1.794.183-2.686-.005-.899.059-1.791.021-2.69a61.577 61.577 0 0 0-.284-5.409c-.172-1.801-.426-3.658-.665-5.45l-.013-.095a1.028 1.028 0 0 1 1.892-.678c1.107 1.783 1.794 3.644 2.292 5.601.498 1.947.756 3.961.776 5.984.034 1.009-.056 2.023-.135 3.032zm8.957 2.144a1.104 1.104 0 0 1-1.874-.581l-.025-.144c-.148-.84-.14-1.546-.196-2.259l-.058-2.076c-.01-.69-.006-1.388.006-2.112.03-.716.036-1.496.185-2.255l.047-.24a1.077 1.077 0 0 1 1.829-.543c.724.745 1.134 1.53 1.455 2.396.306.859.461 1.768.477 2.687.034 1.82-.5 3.755-1.846 5.127zm47.505 11.906c-1.53 6.317-7.661 10.713-15.213 8.883s-7.55-9.248-6.02-15.565c1.53-6.317 4.01-9.14 11.561-7.31 7.553 1.83 11.203 7.675 9.672 13.992z" fill="#FFB400"/><path d="M319.027 365.727c-7.552-1.829-10.031.993-11.561 7.31-1.53 6.317-1.532 13.735 6.02 15.565s13.682-2.567 15.213-8.883c1.53-6.317-2.12-12.162-9.672-13.992z" fill="#FF3A00"/><path d="M269.303 351.05a1.028 1.028 0 0 0-1.892.678l.013.095c.239 1.792.493 3.649.665 5.45.182 1.811.263 3.615.284 5.409.039.899-.026 1.791-.021 2.69-.058.892-.085 1.793-.183 2.686-.122 1.806-.463 3.572-.69 5.452l-.01.077a1.03 1.03 0 0 0 1.905.657c1.043-1.716 1.869-3.606 2.311-5.584.299-.978.374-1.99.551-2.993.079-1.008.169-2.023.135-3.034a25.177 25.177 0 0 0-.776-5.984c-.498-1.955-1.185-3.817-2.292-5.599zM281.106 357.602a1.077 1.077 0 0 0-1.829.543l-.047.24c-.149.759-.154 1.539-.185 2.255a67.877 67.877 0 0 0-.006 2.112l.058 2.076c.056.713.048 1.42.196 2.259l.025.144a1.103 1.103 0 0 0 1.874.581c1.346-1.372 1.88-3.307 1.845-5.128a8.442 8.442 0 0 0-.477-2.687c-.32-.865-.73-1.65-1.454-2.395z" fill="#04294F"/><path d="M510.264 477.206c-.062.016-.118.045-.184.05a1.027 1.027 0 0 1-1.024-.658l-.009-.025c-.96-2.526-1.873-5-2.942-7.377a50.285 50.285 0 0 1-.835-1.758l-.912-1.702c-.63-1.116-1.284-2.211-2.026-3.236-1.44-2.077-3.122-3.954-5.056-5.514a22.558 22.558 0 0 0-6.588-3.608l-.035-.012a1.012 1.012 0 0 1-.649-1.152c-5.023-.821-10.694.018-16.682 2.402-14.824 5.906-25.967 19.041-20.06 33.863.18.453.387 1.014.608 1.69-10.664-9.054-24.256-15.047-39.642-17.269-15.791-2.269-26.813 8.414-29.094 24.206-.944 6.538-.238 12.922 2.03 18.325-15.759-4.775-34.048-5.219-53.429-.991-15.59 3.401-22.362 18.716-18.96 34.307 3.401 15.589 15.686 25.55 31.277 22.149 16.708-3.647 26.961-.601 30.983 3.464 1.814 1.833 2.775 4.326 3.211 7.015.099.32.19.642.281.977l.265 1.361.152 1.369c.072.914.065 1.829.046 2.742-.08.9-.102 1.826-.275 2.71-.354 2.362-.986 4.659-1.819 6.863-1.961 14.625 7.509 28.602 22.175 31.967a28.97 28.97 0 0 0 6.487.738c10.126 0 19.485-5.372 24.672-13.933 2.45-8.09 4.315-16.325 5.177-24.643 1.029-10.042.478-20.264-2.563-29.775-2.944-9.531-8.413-18.179-15.548-25.246-7.143-7.09-15.751-12.683-24.821-17.371l-.011-.006a1.016 1.016 0 0 1 .866-1.839c9.542 4.065 18.747 9.383 26.449 16.652a64.115 64.115 0 0 1 10.158 12.183 61.486 61.486 0 0 1 6.723 14.427c1.581 5.079 2.526 10.339 2.875 15.615.274 4.55.13 9.103-.352 13.604a28.98 28.98 0 0 0 6.443.729c13.165 0 25.065-9.059 28.134-22.437 1.135-4.945 1.869-9.638 2.273-14.088a29.153 29.153 0 0 0 6.894.825c14.824 0 27.442-11.346 28.75-26.391 1.667-19.177.482-36.638-3.413-51.202zm-160.806 67.749c-8.615.514-14.596-6.831-15.026-14.038-.43-7.207 4.852-11.546 13.468-12.06 8.615-.514 11.123 6.228 11.553 13.435.43 7.206-1.379 12.148-9.995 12.663zM396.111 534a12.922 12.922 0 0 1-.959 3.801 10.135 10.135 0 0 1-2.148 3.285 1.058 1.058 0 0 1-1.808-.845l.011-.104c.125-1.199.379-2.255.51-3.345.173-1.072.309-2.134.416-3.208.114-1.071.213-2.154.287-3.258.093-1.094.141-2.254.287-3.366l.019-.147a1.048 1.048 0 0 1 1.937-.404c.723 1.203 1.086 2.418 1.324 3.703.226 1.278.259 2.589.124 3.888zm7.922-4.298c.929 2.04 1.416 4.114 1.694 6.261.279 2.137.298 4.314.07 6.471-.089 1.081-.31 2.15-.516 3.214-.309 1.046-.512 2.115-.946 3.121-.706 2.055-1.805 3.97-3.104 5.686a1.028 1.028 0 0 1-1.817-.876l.019-.073c.506-1.973 1.109-3.821 1.478-5.742.224-.945.367-1.909.545-2.859.11-.966.292-1.916.363-2.887.202-1.929.333-3.877.353-5.843.028-1.954-.029-3.974-.095-5.923l-.003-.091a1.026 1.026 0 0 1 1.959-.459zm25.889-29.093c-3.733 6.179-8.026 9.223-15.414 4.76-7.387-4.463-8.146-13.904-4.413-20.084 3.733-6.179 10.545-6.757 17.932-2.294 7.388 4.463 5.629 11.439 1.895 17.618zm23.63 26.583c-1.513 1.558-3.324 2.824-5.229 3.823a1.029 1.029 0 0 1-1.271-1.566l.049-.058c1.298-1.57 2.63-2.985 3.782-4.567.605-.759 1.145-1.571 1.71-2.355.511-.827 1.08-1.61 1.557-2.458a62.12 62.12 0 0 0 2.807-5.137c.858-1.756 1.666-3.608 2.436-5.4l.036-.083a1.027 1.027 0 0 1 1.969.418c-.028 2.242-.471 4.326-1.133 6.387a27.556 27.556 0 0 1-2.692 5.885c-.541.94-1.196 1.813-1.836 2.689-.725.815-1.364 1.696-2.185 2.422zm25.822 21.48a1.019 1.019 0 0 1-2.02-.216l.001-.022c.13-4.986-.348-9.946-1.257-14.824a84.646 84.646 0 0 0-4.034-14.302 81.072 81.072 0 0 0-6.46-13.365 73.129 73.129 0 0 0-8.963-11.9l-.006-.006a1.018 1.018 0 0 1 1.374-1.497c4.109 3.206 7.633 7.159 10.586 11.469 2.968 4.31 5.344 9.008 7.21 13.886 1.829 4.893 3.156 9.977 3.818 15.161.666 5.172.726 10.47-.249 15.616zm-1.348-61.887c-1.653-8.471 4.834-15.373 11.92-16.756 7.086-1.383 12.087 3.277 13.74 11.748 1.653 8.471-4.697 11.851-11.783 13.234-7.086 1.383-12.224.245-13.877-8.226zm26.96 36.049c-.263.888-.692 1.522-1.228 2.119a6.772 6.772 0 0 1-1.884 1.421c-1.399.721-3.13 1.028-4.71.402a1.132 1.132 0 0 1-.327-1.905l.138-.118c.565-.489 1.08-.775 1.577-1.102.501-.297.99-.57 1.494-.832a24.508 24.508 0 0 1 1.583-.734c.557-.216 1.164-.475 1.827-.586l.304-.051a1.092 1.092 0 0 1 1.226 1.386zm2-14.817c-.676 1.524-1.599 2.762-2.681 3.912a18.153 18.153 0 0 1-3.648 2.983 16.587 16.587 0 0 1-4.325 1.947c-1.512.478-3.125.65-4.701.559a1.044 1.044 0 0 1-.435-1.96l.078-.042c1.293-.693 2.547-1.214 3.746-1.877a47.198 47.198 0 0 0 3.519-2.021 65.163 65.163 0 0 0 3.412-2.263l3.397-2.443.082-.059a1.038 1.038 0 0 1 1.556 1.264z" fill="#FFB400"/><path d="M347.9 518.857c-8.615.514-13.898 4.853-13.468 12.06.43 7.207 6.411 14.552 15.026 14.038 8.615-.514 10.425-5.456 9.995-12.663-.43-7.207-2.937-13.95-11.553-13.435zM428.028 482.991c-7.387-4.463-14.199-3.886-17.932 2.294-3.733 6.179-2.974 15.621 4.413 20.084 7.387 4.463 11.681 1.419 15.414-4.76 3.733-6.179 5.492-13.155-1.895-17.618zM503.686 481.778c-1.653-8.471-6.654-13.131-13.74-11.748-7.086 1.383-13.573 8.285-11.92 16.756 1.653 8.471 6.791 9.609 13.877 8.226 7.086-1.383 13.436-4.763 11.783-13.234z" fill="#FF3A00"/><path d="M441.534 576.166c-.349-5.276-1.294-10.536-2.875-15.615a61.486 61.486 0 0 0-6.723-14.427 64.115 64.115 0 0 0-10.158-12.183c-7.702-7.268-16.907-12.586-26.449-16.652a1.017 1.017 0 0 0-.866 1.839l.011.006c9.071 4.688 17.678 10.281 24.821 17.371 7.135 7.067 12.604 15.715 15.548 25.246 3.041 9.511 3.592 19.733 2.563 29.775-.861 8.318-2.727 16.553-5.177 24.643a190.512 190.512 0 0 1-1.609 5.08c-.166.5.077 1.058.571 1.264a1.018 1.018 0 0 0 1.331-.546c3.999-9.56 7.076-19.614 8.422-30.033.096-.718.16-1.442.237-2.163.482-4.502.627-9.055.353-13.605zM475.805 517.895c-1.866-4.878-4.241-9.576-7.209-13.886-2.953-4.31-6.476-8.262-10.586-11.469a1.018 1.018 0 0 0-1.375 1.497l.006.006a73.072 73.072 0 0 1 8.963 11.9 81.077 81.077 0 0 1 6.461 13.365 84.646 84.646 0 0 1 4.034 14.302c.909 4.878 1.386 9.838 1.256 14.824l-.001.022a1.019 1.019 0 0 0 2.021.216c.975-5.146.914-10.444.248-15.616-.662-5.184-1.988-10.269-3.818-15.161zM490.652 453.366l.035.012c2.444.859 4.639 2.064 6.588 3.608 1.934 1.56 3.616 3.437 5.056 5.514.742 1.025 1.396 2.12 2.026 3.236l.912 1.702c.264.59.545 1.174.835 1.758 1.069 2.377 1.982 4.85 2.942 7.377l.009.025c.156.409.564.687 1.024.658.066-.004.122-.034.184-.05.467-.121.806-.54.774-1.039a33.35 33.35 0 0 0-1.61-8.27c-.873-2.706-2.174-5.302-3.824-7.696-1.686-2.362-3.753-4.534-6.265-6.119-2.493-1.588-5.395-2.604-8.308-2.709a1.027 1.027 0 0 0-1.004.685c-.018.051-.012.103-.022.155-.09.489.166.983.648 1.153z" fill="#04294F"/><path d="M402.073 530.162l.003.091c.066 1.949.123 3.969.095 5.923a62.142 62.142 0 0 1-.353 5.843c-.071.97-.253 1.921-.363 2.887-.178.95-.321 1.915-.545 2.859-.368 1.921-.971 3.769-1.478 5.742l-.019.073a1.03 1.03 0 0 0 1.817.876c1.298-1.715 2.398-3.631 3.104-5.686.433-1.006.637-2.075.946-3.121.206-1.065.427-2.133.516-3.214a27.51 27.51 0 0 0-.07-6.471c-.278-2.147-.764-4.221-1.694-6.261a1.026 1.026 0 0 0-1.959.459zM394.664 526.411a1.048 1.048 0 0 0-1.937.404l-.019.147c-.146 1.112-.194 2.272-.287 3.366a85.598 85.598 0 0 1-.287 3.258 53.096 53.096 0 0 1-.416 3.208c-.132 1.09-.385 2.145-.51 3.345l-.011.104a1.058 1.058 0 0 0 1.808.845 10.135 10.135 0 0 0 2.148-3.285 12.93 12.93 0 0 0 .959-3.801c.136-1.299.102-2.61-.123-3.887-.239-1.287-.603-2.502-1.325-3.704zM457.572 522.081a27.556 27.556 0 0 0 2.692-5.885c.663-2.061 1.105-4.145 1.133-6.387a1.026 1.026 0 0 0-1.969-.418l-.036.083c-.77 1.791-1.578 3.644-2.436 5.4a62.12 62.12 0 0 1-2.807 5.137c-.478.848-1.047 1.63-1.557 2.458-.565.784-1.105 1.596-1.71 2.355-1.151 1.582-2.484 2.997-3.782 4.567l-.049.058a1.029 1.029 0 0 0 1.271 1.566c1.905-.999 3.715-2.265 5.229-3.823.82-.726 1.46-1.607 2.185-2.422.64-.876 1.295-1.748 1.836-2.689zM505.431 506.754l-.082.059-3.397 2.443a65.163 65.163 0 0 1-3.412 2.263 46.702 46.702 0 0 1-3.519 2.021c-1.199.662-2.453 1.184-3.746 1.877l-.078.042a1.044 1.044 0 0 0 .435 1.96c1.576.09 3.189-.081 4.701-.559a16.573 16.573 0 0 0 4.325-1.947 18.119 18.119 0 0 0 3.648-2.983c1.082-1.15 2.005-2.388 2.681-3.912a1.039 1.039 0 0 0-1.556-1.264zM503.759 521.446l-.304.051c-.663.111-1.271.371-1.827.586a24.76 24.76 0 0 0-1.583.734c-.504.262-.992.534-1.494.832-.497.328-1.012.614-1.577 1.102l-.138.118a1.132 1.132 0 0 0 .327 1.905c1.58.626 3.311.32 4.71-.402a6.777 6.777 0 0 0 1.884-1.421c.536-.597.965-1.231 1.228-2.119a1.09 1.09 0 0 0-1.226-1.386zM380.99 587.823c.019-.913.027-1.827-.045-2.742l-.153-1.369-.264-1.361a29.11 29.11 0 0 0-.281-.977 9.386 9.386 0 0 0-.707-1.736 1.014 1.014 0 0 0-1.878.721l.033.133c.152.617.229 1.494.287 2.248l.029 1.189-.059 1.196a28.275 28.275 0 0 1-.735 4.748 43.177 43.177 0 0 1-3.373 9.148l-.513 1.121-.59 1.091-1.182 2.182c-.833 1.437-1.724 2.846-2.582 4.281l-2.784 4.203c-.973 1.38-1.953 2.76-2.872 4.206l-.031.048a1.021 1.021 0 0 0 1.558 1.293c1.27-1.184 2.48-2.435 3.696-3.686 1.163-1.296 2.258-2.661 3.359-4.021 1.055-1.399 2.025-2.867 3.003-4.331l1.317-2.301.651-1.157.577-1.203a38.825 38.825 0 0 0 1.448-3.352c.833-2.204 1.464-4.501 1.819-6.863.171-.883.192-1.809.272-2.709z" fill="#04294F"/></svg>