<svg width="762" height="559" fill="none" xmlns="http://www.w3.org/2000/svg"><path d="M353.47 44.101a30.002 30.002 0 0 0-23.89 8 31.022 31.022 0 0 0-5.15 6.49l-.1.06c-.54.92-1 1.88-1.49 2.86a27.832 27.832 0 0 0-2.19 6.75c-.16.82-.29 1.65-.38 2.5a29.846 29.846 0 0 0 1.87 14.16c5.75-3.8 27.4 11.71 27.91 19.18a29.99 29.99 0 0 0 14.95-3.87 26.121 26.121 0 0 0 6.1-4.54c.38-.37.75-.75 1.12-1.15l.21-.22a31.294 31.294 0 0 0 5-7.44c7.079-15.059.61-33.006-14.45-40.085a30.136 30.136 0 0 0-9.55-2.685l.04-.01z" fill="#FF3A00"/><path d="M340.74 102.591a29.657 29.657 0 0 0 6.26 1.35c1.036.116 2.078.173 3.12.17-.51-7.47-22.16-23-27.91-19.18a29.867 29.867 0 0 0 3.81 6.92c2.49-3.42 17.16 7.37 14.72 10.74z" fill="#04294F"/><path d="M321.25 129.411l19.49-26.82c2.44-3.37-12.23-14.16-14.75-10.74l-25.56 35.19c4.3.407 8.587.863 12.86 1.37 2.71.29 5.31.63 7.96 1z" fill="#00AEE0"/><path d="M699.22 166.431a30 30 0 0 0-22.11 9.68 27.668 27.668 0 0 0-5 7.31 29.59 29.59 0 0 0-1.31 3.19h.05a29.894 29.894 0 0 0-1.54 6.57 31.1 31.1 0 0 0-.19 3.37 29.853 29.853 0 0 0 3.39 13.88c5.31-4.4 28.51 8.68 29.82 16a29.903 29.903 0 0 0 15.22-6.07c5.43-4.87 8.07-7.38 10.69-15.92 4.374-16.027-5.072-32.565-21.099-36.939a30.042 30.042 0 0 0-7.901-1.061l-.02-.01z" fill="#FF3A00"/><path d="M672.52 210.401a29.882 29.882 0 0 0 4.54 6.47c2.13-3.68 17.88 5.47 15.82 9.08 2.084.448 4.209.672 6.34.67a26.886 26.886 0 0 0 3.12-.17c-1.34-7.41-24.51-20.41-29.82-16.05z" fill="#04294F"/><path d="M43.64 364.691c-17.14 7.89-28 20.28-31.73 36.15a13.549 13.549 0 0 1 4.9-1.35 13.37 13.37 0 0 1 9.27 2.61c5.36-17.93 22.93-26.32 40.12-30.18-1.14-4.47-2.09-9-2.8-13.72a98.905 98.905 0 0 0-19.76 6.49z" fill="#FF3A00"/><path d="M55.73 403.321zM436.76 367.371c-6.91-16-18.21-30.65-34.9-40.86a93.121 93.121 0 0 0-25-10.54c-48.36-12.78-153.17-37.68-235.17-71.86-16.08-6.7-31.29-13.75-45-21.14-11.48 16.07-20.69 35.67-27.23 59.17-7.83 28.08-9.53 53.32-6.06 76.06.71 4.68 1.66 9.25 2.8 13.72a137.93 137.93 0 0 0 9.22 25.36c-8.27-.46-16.08.39-18.94 4.56a4.85 4.85 0 0 1 6.52-1.32c6.19 3.77 13.14 7.68 20.68 11.68 17.67 9.37 38.64 19.2 61 28.81 29.5 12.7 61.37 25 91.16 35.35 33.31 11.55 64 20.63 85.85 25 67.9 13.62 109-27.94 120.24-65.25 5.66-18.89 5.01-45.21-5.17-68.74z" fill="#04294F"/><path d="M434.4 498.621a119.507 119.507 0 0 1-25 16.94c-1.65.84-3.31 1.62-5 2.38a60.01 60.01 0 0 0 14 15.87 122.738 122.738 0 0 0 35.25-23.92 125.493 125.493 0 0 1-13.65-16.55c-1.82 1.81-3.69 3.56-5.6 5.28zM209.71 183.901l-19.06-5.56a147.591 147.591 0 0 0-32.42 43.34 1431 1431 0 0 0 18.52 6.89 150.154 150.154 0 0 1 32.96-44.67z" fill="#00AEE0"/><path d="M559.27 349.301a109.03 109.03 0 0 0-3.63-30.54 129.822 129.822 0 0 0-10.18-26.46 165.377 165.377 0 0 0-15.8-24.8c-12.15-15.84-27.13-30.12-43.68-42.7a327.158 327.158 0 0 0-53.78-32.89 406.446 406.446 0 0 0-59.59-23.53 556.396 556.396 0 0 0-63-15.73 470.529 470.529 0 0 0-37-5.41l-.92-.11c-36-4.23-61.34-4-80.27-1.69a212.46 212.46 0 0 0-33.83 7.65l-.22.08a173.444 173.444 0 0 0-18.71 7.15 121.8 121.8 0 0 0-4.73 2.21 150.924 150.924 0 0 0-44.35 32.63l-1.08 1.15 2 .88a1.711 1.711 0 0 1 0-1.35c.04-.083.087-.164.14-.24l65.56 27.36s87.62 32.13 104.59 37.08c16.97 4.95 137 40.66 137 40.66s70.25 23 73.25 102.1-63.73 135.15-145 121c-81.27-14.15-235.42-83-253-94.12h-1.16a1.863 1.863 0 0 1-.09-.25c-.64-.33-1.27-.67-1.9-1 40.33 53.57 115.59 89.09 204.32 114 101.17 28.38 199.91 17.26 264.3-22.85-25.28-7.84-43.13-29.8-32.36-91.23 10.31-59.22 29.06-77 53.12-79.05z" fill="#00AEE0"/><path d="M71.88 428.041a1.81 1.81 0 0 1 2.43-.73c17.38 9.21 35.11 17.74 53 25.82 17.89 8.08 36.1 15.63 54.42 22.79 18.32 7.16 36.76 14 55.4 20.28 18.64 6.28 37.41 12.12 56.37 17.17 4.73 1.33 9.51 2.4 14.26 3.59 2.38.61 4.77 1.08 7.16 1.6 2.39.52 4.78 1.07 7.17 1.51a153.881 153.881 0 0 0 28.91 2.97c19.28.09 38.66-3.87 55.78-12.67a113.458 113.458 0 0 0 23.77-16.15 123.767 123.767 0 0 0 10.14-10.18 115.388 115.388 0 0 0 8.82-11.39 112.016 112.016 0 0 0 13-25.58 97.525 97.525 0 0 0 3.73-13.82 113.832 113.832 0 0 0 1.76-14.29c.26-4.803.26-9.617 0-14.42l-.27-3.61-.14-1.8-.21-1.79-.42-3.59-.57-3.57c-.17-1.19-.4-2.37-.65-3.55l-.72-3.54-.86-3.51-.43-1.75-.51-1.74-1-3.46-1.17-3.42c-.72-2.29-1.7-4.5-2.55-6.75a115.189 115.189 0 0 0-14.29-24.92 101.908 101.908 0 0 0-45.69-33.67c-2.26-.8-4.49-1.71-6.82-2.33-2.33-.62-4.58-1.39-7-2-4.76-1.29-9.53-2.55-14.28-3.88a2203.87 2203.87 0 0 1-56.85-16.46c-37.75-11.47-75.29-23.65-112.44-37-37.15-13.35-73.89-27.81-109.86-44.08-.41-.19-.732-.53-.9-.95l-2-.88c-1.873 2.04-3.7 4.143-5.48 6.31-3.279 3.996-2.699 9.894 1.297 13.173a9.32 9.32 0 0 0 1.183.827c3.62 2.14 7.367 4.25 11.24 6.33 13.73 7.39 28.93 14.44 45 21.14 82 34.18 186.81 59.08 235.17 71.86a93.121 93.121 0 0 1 25 10.54c16.69 10.21 28 24.89 34.9 40.86 10.18 23.53 10.83 49.85 5.13 68.75-11.25 37.31-52.34 78.87-120.24 65.25-21.85-4.38-52.54-13.46-85.85-25-29.72-10.29-61.58-22.62-91.08-35.29-22.32-9.61-43.29-19.44-61-28.81-7.54-4-14.49-7.91-20.68-11.68a4.85 4.85 0 0 0-6.52 1.32 4.786 4.786 0 0 0-.7 1.37.338.338 0 0 0 0 .11 4.73 4.73 0 0 0 .38 3.66 162.271 162.271 0 0 0 13.71 21.43c.63.34 1.26.68 1.9 1a1.792 1.792 0 0 1 .15-1.4z" fill="#FFB400"/><path d="M102.91 331.041c.262.475.6.904 1 1.27a4.82 4.82 0 0 0 6.8-.478l.01-.012.27-.31a26.192 26.192 0 0 0 3.8-6.13 35.975 35.975 0 0 0 3.09-12.6 31.077 31.077 0 0 0 0-3.48 16.173 16.173 0 0 0-.58-3.69l-.3-1a4.66 4.66 0 0 0-7.09-2.43 18.034 18.034 0 0 0-3.24 2.86 23.135 23.135 0 0 0-2.36 3.2 25.656 25.656 0 0 0-2.94 7.11 24.94 24.94 0 0 0-.72 7.73 18.16 18.16 0 0 0 2.26 7.96zM165.83 400.041c.36.17 8.9 4.15 20.55 8.17.836.292 1.715.44 2.6.44a8 8 0 0 0 2.61-15.61c-10.73-3.7-18.8-7.44-19-7.53a8.013 8.013 0 0 0-6.76 14.53z" fill="#FFB400"/><path d="M16.81 399.491a13.549 13.549 0 0 0-4.9 1.35C1.1 406.211.02 425.571.81 434.781c1.433 10.395 11.022 17.66 21.417 16.227 9.657-1.331 16.74-9.755 16.393-19.497-.69-8-4.09-23.27-12.54-29.41a13.37 13.37 0 0 0-9.27-2.61z" fill="#04294F"/><path d="M138.62 160.301s3.07-6 17.33-12.38c34.87-15.55 101.62-24.44 229.06 13.21 132.19 39.06 189.88 117.15 189.47 188.64l1.19.16a78.253 78.253 0 0 1 12.43 2.66c3.41.94 6.54 2 9.44 3.06l9.36-16.33a158.478 158.478 0 0 0-7.3-33.83 175.636 175.636 0 0 0-15.94-34.57 208.66 208.66 0 0 0-21.86-29.88c-16.1-18.37-34.63-33.71-54.23-46.74a363.805 363.805 0 0 0-61.77-32.56 437.524 437.524 0 0 0-65.56-21.14 589.644 589.644 0 0 0-59-11.17c-2.65-.36-5.3-.71-8-1-4.28-.507-8.567-.963-12.86-1.37a451.238 451.238 0 0 0-55.17-2 337.682 337.682 0 0 0-67.73 8.32c-22.54 4.95-35.43 15.7-44 29.37l.36-.17c1.56-.767 3.137-1.503 4.73-2.21l.05-.07z" fill="#FF3A00"/><path d="M677.06 216.871l-70.16 122.45-9.36 16.33a81.26 81.26 0 0 1 16.34 8.19l79-137.89c2.06-3.61-13.69-12.76-15.82-9.08z" fill="#00AEE0"/><path d="M605.55 515.491a57.893 57.893 0 0 1-9.68 3.95 39.306 39.306 0 0 0 9.68-3.95z" fill="#04294F"/><path d="M639 409.541c-1.16-12.37-4.26-21.73-8.81-28.79-5.63-8.75-13.48-14-22.6-17a70.002 70.002 0 0 0-12.67-2.83c-29.49-4-52.6 5.85-64.25 72.38-11.65 66.53 13 82.93 42.52 87 2 .28 4.08.49 6.1.61a53.236 53.236 0 0 0 16.48-1.39h.08a57.893 57.893 0 0 0 9.68-3.95c7.52-4.31 14.2-11.5 19.69-22.69 18.83-39.62 13.78-83.34 13.78-83.34z" fill="#FFB400"/><path d="M641.32 413.041l-.06-.1a23.31 23.31 0 0 0-2.2-2.91 24.767 24.767 0 0 0-11.06-7.11 35.604 35.604 0 0 0-4.68-1.21c-.9-.18-1.82-.33-2.76-.47-10-1.36-18.82 0-25.76 9.06a25.623 25.623 0 0 0-3.3 5.14l-1.86 13.3 18.74 66.1s-1.12.55 6 .35a28.79 28.79 0 0 0 7.15-1h.1a37.805 37.805 0 0 0 3.66-1.44c.54-.24 1-.49 1.51-.74 8.69-5 15.5-16.55 18.73-39.7 2.69-19.41.68-31.66-4.21-39.27z" fill="#FF3A00"/><path d="M611.34 495.131l-2.4-.22c.8.13 1.61.13 2.4.22zM607.49 494.741h.32l.57.06 2-22.73 3.31.41c.65.09 1.27.15 1.85.18a14.996 14.996 0 0 0 4.93-.43c.62-.202 1.227-.439 1.82-.71.28-.13.51-.24.72-.36 4.68-2.68 7.88-9.79 9.46-21.1 1.36-9.71.68-16.78-2-21l-.11-.17a9.95 9.95 0 0 0-1-1.26 11.49 11.49 0 0 0-5.19-3.29 19.306 19.306 0 0 0-2.38-.62c-.49-.1-1-.17-1.47-.24-5.64-.77-9.09.28-11.92 3.64l-2.05 2.43-14.85-14.11c-3.52 6.52-6.44 15.66-8.65 28.29-6.8 38.83 7.47 48.56 24.64 51.01zm11-59.52l.75.13c.434.078.862.188 1.28.33a6.715 6.715 0 0 1 3 1.93c.222.246.423.51.6.79 1.33 2.09 1.88 5.44 1.15 10.73-.89 6.33-2.75 9.49-5.12 10.85l-.42.21c-.287.133-.62.263-1 .39a8.512 8.512 0 0 1-2.78.25l-1-.09h-.09c-4.69-.67-8.59-3.33-6.73-13.94 1.86-10.61 5.64-12.22 10.37-11.58h-.01z" fill="#FF3A00"/><path d="M621.62 494.161a23.979 23.979 0 0 0 3.62-1.36c.52-.25 1-.52 1.55-.82-.47.25-1 .5-1.51.74a37.805 37.805 0 0 1-3.66 1.44zM623 398.491a62.095 62.095 0 0 0-6.22-2.07l-.66-.19a45.115 45.115 0 0 0-4.72-1.1c-.7-.13-1.39-.23-2.09-.33-18.74-2.55-33.43 3.73-40.83 46-7 40.1 6.72 51.55 24.12 54.8.28.06.55.11.83.15a61.789 61.789 0 0 0 13 1 54.325 54.325 0 0 0 15.11-2.56 28.79 28.79 0 0 1-7.15 1l1.47-16.47a20.7 20.7 0 0 0 6.43-.71h.11c.823-.273 1.631-.59 2.42-.95.4-.17.75-.35 1.16-.57 6.53-3.74 10.61-12.09 12.48-25.52 1.58-11.29.65-19.47-2.84-25l-.18-.28a16.325 16.325 0 0 0-1.5-2 17.566 17.566 0 0 0-7.78-5 23.81 23.81 0 0 0-3.13-.82c-.58-.107-1.18-.207-1.8-.3-4.18-.56-10-.73-15.09 3.48l-11.34-10.75c6.94-9 15.71-10.42 25.76-9.06.94.14 1.86.29 2.76.47 1.586.297 3.149.701 4.68 1.21a24.767 24.767 0 0 1 11.06 7.06 23.31 23.31 0 0 1 2.2 2.91 23.025 23.025 0 0 0-2.26-3.35c-2.57-3.23-7.35-7.62-16-11.05zm-16.53 31.08l2.05-2.43c2.83-3.36 6.28-4.41 11.92-3.64.49.07 1 .14 1.47.24.806.156 1.601.363 2.38.62a11.481 11.481 0 0 1 5.19 3.29 9.95 9.95 0 0 1 1 1.26l.11.17c2.68 4.24 3.36 11.31 2 21-1.58 11.31-4.78 18.42-9.46 21.1-.21.12-.44.23-.72.36-.593.271-1.201.508-1.82.71a14.996 14.996 0 0 1-4.93.43c-.58 0-1.2-.09-1.85-.18l-3.31-.41-2 22.73-.57-.06h-.32c-17.17-2.45-31.44-12.18-24.64-51 2.21-12.63 5.13-21.77 8.65-28.29l14.85 14.1z" fill="#04294F"/><path d="M597.54 355.651c-2.9-1.09-6-2.12-9.44-3.06a78.253 78.253 0 0 0-12.43-2.66l-1.19-.16c.41-71.49-57.28-149.58-189.47-188.64-127.44-37.65-194.19-28.76-229.01-13.21-14.26 6.36-17.33 12.38-17.33 12.38a173.444 173.444 0 0 1 18.71-7.15l.22-.08a212.46 212.46 0 0 1 33.83-7.65c18.93-2.32 44.22-2.54 80.27 1.69l.92.11a459.1 459.1 0 0 1 37 5.41 556.396 556.396 0 0 1 63 15.73 406.446 406.446 0 0 1 59.59 23.53 327.244 327.244 0 0 1 53.79 32.91c16.55 12.58 31.53 26.86 43.68 42.7a165.377 165.377 0 0 1 15.8 24.8 129.822 129.822 0 0 1 10.18 26.46 109.03 109.03 0 0 1 3.63 30.54c-24.06 2-42.81 19.83-53.17 79-10.77 61.43 7.08 83.39 32.36 91.23 2.7.82 5.445 1.488 8.22 2 .65.13 1.29.25 1.94.36 18.81 3.31 35.61 1.12 47.17-2.49a53.236 53.236 0 0 1-16.48 1.39c-2-.12-4-.33-6.1-.61-29.49-4-54.17-20.41-42.52-87 11.65-66.59 34.76-76.41 64.25-72.38a70.002 70.002 0 0 1 12.67 2.83c9.12 3 17 8.26 22.6 17-1.77-3.23-6.16-10.16-16.33-16.91a81.313 81.313 0 0 0-16.36-8.07zM145.53 210.301a5.29 5.29 0 1 0 0-10.58 5.29 5.29 0 0 0 0 10.58z" fill="#04294F"/><path d="M556.46 456.631a5.29 5.29 0 1 0 0-10.58 5.29 5.29 0 1 0 0 10.58zM554.91 476.781a5.29 5.29 0 1 0 0-10.58 5.29 5.29 0 0 0 0 10.58zM157.28 183.571a5.3 5.3 0 1 0 5.29 5.31v-.02a5.29 5.29 0 0 0-5.29-5.29z" fill="#04294F"/><path d="M293.61 396.711c.26.479.598.912 1 1.28a4.84 4.84 0 0 0 6.81-.49l.26-.31a25.528 25.528 0 0 0 3.8-6.13 35.142 35.142 0 0 0 2.11-6.14 35.632 35.632 0 0 0 1-6.47c.07-1.156.07-2.314 0-3.47a16.836 16.836 0 0 0-.57-3.7l-.3-1a4.806 4.806 0 0 0-.61-1.22 4.67 4.67 0 0 0-6.49-1.2 17.238 17.238 0 0 0-3.23 2.86 21.521 21.521 0 0 0-2.36 3.19 25.398 25.398 0 0 0-2.94 7.12 24.576 24.576 0 0 0-.73 7.72c.136 2.79.906 5.512 2.25 7.96z" fill="#FFB400"/><path d="M504.9 311.631h.18c22.66-1.32 40.6-3.46 40.78-3.48a3.02 3.02 0 1 0-.71-6c-.17 0-16.88 2-38.38 3.33-3.33-7-16.06-30.94-42-52a127.564 127.564 0 0 1 38.73-4.72h.09a3 3 0 1 0 .08-6c-27.38-.75-45.52 6.56-46.28 6.87a3 3 0 0 0-.67 5.17c31.89 24.09 45.26 54.69 45.39 55a3 3 0 0 0 2.79 1.83z" fill="#04294F"/><path d="M325 276.921a98.707 98.707 0 0 1 6.54-14.65c.82-1.44-.33-2.64-1.77-3.46-1.44-.82-2.62-.95-3.44.49a105.478 105.478 0 0 0-7.11 15.93l5.78 1.69zM354.23 268.901c.82-1.44-.32-2.64-1.76-3.46-1.44-.82-2.63-.95-3.45.49a105.271 105.271 0 0 0-7.09 15.88l5.8 1.65a98.404 98.404 0 0 1 6.5-14.56zM377.27 275.531c.82-1.44-.33-2.64-1.77-3.46-1.44-.82-2.62-.95-3.44.49a104.932 104.932 0 0 0-7 15.73l5.81 1.61a97.034 97.034 0 0 1 6.4-14.37z" fill="#FF3A00"/><path d="M614.92 460.771h.08l1 .09a8.512 8.512 0 0 0 2.78-.25c.373-.133.707-.263 1-.39l.42-.21c2.37-1.36 4.23-4.52 5.12-10.85.73-5.29.18-8.64-1.15-10.73a5.827 5.827 0 0 0-.6-.79 6.715 6.715 0 0 0-3-1.93 8.841 8.841 0 0 0-1.28-.33l-.75-.13c-4.73-.64-8.44.94-10.31 11.61-1.87 10.67 2 13.24 6.69 13.91zM722.42 210.541a25.48 25.48 0 0 0-5-8.4 44.326 44.326 0 0 0-6.73-6.36 60.845 60.845 0 0 0-7.61-5 54.606 54.606 0 0 0-17.08-6.26 28.235 28.235 0 0 0-9.63-.12 14.995 14.995 0 0 0-4.93 1.81c-.2.12-.39.27-.58.41a9.622 9.622 0 0 0-3.17 3.6 2 2 0 0 0 1.68 2.93 1.999 1.999 0 0 0 1.59-.59l.15-.14a7.997 7.997 0 0 1 5.94-2.06c2.523.042 5.03.425 7.45 1.14a70.786 70.786 0 0 1 14.76 6.26 66.46 66.46 0 0 1 13 9.25 23.65 23.65 0 0 1 4.62 5.76 7.251 7.251 0 0 1 .75 6.12l-.06.17a2.057 2.057 0 0 0 0 1.32c.124.393.36.741.68 1a2.05 2.05 0 0 0 2.87-.39 9.863 9.863 0 0 0 2-5.1 8.78 8.78 0 0 0 0-1 14.284 14.284 0 0 0-.7-4.35z" fill="#04294F"/><path d="M722.55 194.451a58.031 58.031 0 0 0-15.18-11.87 60.635 60.635 0 0 0-18-6.71 29.775 29.775 0 0 0-10-.29c-.756.135-1.504.312-2.24.53-.974.288-1.911.691-2.79 1.2a9.909 9.909 0 0 0-3.85 3.91 1.52 1.52 0 0 0 1.65 2.21c.335-.064.639-.24.86-.5l.06-.06a9 9 0 0 1 6.82-2.82 29.18 29.18 0 0 1 8.35 1.06 58.735 58.735 0 0 1 8.29 2.84 70.213 70.213 0 0 1 8 3.88 71.339 71.339 0 0 1 7.49 4.7 55.856 55.856 0 0 1 6.71 5.57 24.996 24.996 0 0 1 5 6.61 8.333 8.333 0 0 1 .48 7.27v.07a1.46 1.46 0 0 0 .06 1.29c.104.225.262.421.46.57a1.54 1.54 0 0 0 2.13-.37 10.06 10.06 0 0 0 1.84-5.15 12.536 12.536 0 0 0-.36-3.93c-.12-.48-.25-1-.41-1.42a26.626 26.626 0 0 0-5.37-8.59zM321.71 67.741a8 8 0 0 1 6.12-1.43c2.504.31 4.956.951 7.29 1.91a70.987 70.987 0 0 1 14 7.77 66.545 66.545 0 0 1 12 10.56 23.773 23.773 0 0 1 4 6.21 7.25 7.25 0 0 1 .11 6.17l-.08.16a2.1 2.1 0 0 0 .45 2.35 2 2 0 0 0 2.89-.08 9.88 9.88 0 0 0 2.49-4.87c0-.27.08-.53.11-.8a13.895 13.895 0 0 0-.21-4.57 25.308 25.308 0 0 0-4.07-8.87 44.856 44.856 0 0 0-6-7 61.663 61.663 0 0 0-7-5.78 54.71 54.71 0 0 0-16.4-8 28.458 28.458 0 0 0-9.57-1.13 14.87 14.87 0 0 0-4.94 1.23l-.15.06a9.729 9.729 0 0 0-4.15 3.6 2.009 2.009 0 0 0 3 2.67l.11-.16z" fill="#04294F"/><path d="M324.68 58.44c1.82-1.74 4.37-2.28 7.08-2.09a29.37 29.37 0 0 1 8.19 1.93 60.133 60.133 0 0 1 7.95 3.69 75.868 75.868 0 0 1 7.5 4.69 70.98 70.98 0 0 1 7 5.46 55.223 55.223 0 0 1 6.1 6.24 25.01 25.01 0 0 1 4.3 7.1 8.29 8.29 0 0 1-.29 7.28v.06a1.509 1.509 0 0 0 0 1.51c.08.15.185.286.31.4a1.53 1.53 0 0 0 2.159-.147l.001-.002a10.065 10.065 0 0 0 2.37-4.93c.161-.911.218-1.837.17-2.76a15.273 15.273 0 0 0-.38-2.64 26.524 26.524 0 0 0-4.36-9.09 58.098 58.098 0 0 0-13.86-13.39 60.753 60.753 0 0 0-17.23-8.56 29.803 29.803 0 0 0-9.9-1.33c-.718.046-1.433.136-2.14.27-1.05.182-2.074.49-3.05.92a9.802 9.802 0 0 0-4.23 3.49 1.53 1.53 0 0 0 .15 1.91 1.5 1.5 0 0 0 1.88.23c.102-.05.199-.111.29-.18l-.01-.06z" fill="#04294F"/><path d="M377.41 39.171a1.129 1.129 0 0 0 1.539-.429l.001-.001 9.05-16.17 9.29 6.23.61.42c.415.278.875.481 1.36.6a4.44 4.44 0 0 0 5.408-3.191l.002-.009 6.46-25.22a1.006 1.006 0 1 0-1.85-.79l-10.66 17.05-9.49-6.38-.64-.43a4.56 4.56 0 0 0-1.6-.66 4.46 4.46 0 0 0-5.24 3.51l-4.82 24.26a1.13 1.13 0 0 0 .58 1.21zM358.18 34.75a.92.92 0 0 0 1.75-.39l.05-10.48 4-1.81.7-.32a3.1 3.1 0 0 0 1.58-4l-5.54-13.61a.82.82 0 0 0-1.59.27l-.58 11.33-4.11 1.86-.73.34a3.12 3.12 0 0 0-1.494 4.153l.004.008 5.96 12.65zM405.55 47.381l-.4-.69a3.12 3.12 0 0 0-4.297-1.002l-.003.002-11.92 7.27a1 1 0 0 0-.44.88.92.92 0 0 0 1 .82l10.43-1 2.22 3.78.4.67a3.1 3.1 0 0 0 4.13 1.15l13-6.94a.819.819 0 0 0 .44-.77.83.83 0 0 0-.87-.78l-11.33.61-2.36-4zM717.93 162.041a1.12 1.12 0 0 0 1.49-.57l7.57-16.92 9.82 5.36.65.36a4.44 4.44 0 0 0 6.5-3.2l4.15-25.7a1.005 1.005 0 0 0-1.91-.62l-9.07 17.94-10-5.49-.67-.36a4.36 4.36 0 0 0-1.65-.51 4.46 4.46 0 0 0-4.906 3.964l-.004.036-2.59 24.6c-.044.463.203.905.62 1.11zM698.38 159.361c.174.305.51.481.86.45a.92.92 0 0 0 .841-.993l-.001-.007-.9-10.44 3.81-2.17.68-.38a3.1 3.1 0 0 0 1.21-4.12l-6.76-13.05a.81.81 0 0 0-.76-.44.82.82 0 0 0-.79.849v.001l.45 11.34-3.92 2.23-.7.4a3.12 3.12 0 0 0-1.105 4.272l.005.008 7.08 12.05zM760.56 169.681l-11.23 1.63-2.63-3.66-.47-.66a3.13 3.13 0 0 0-4.37-.64l-11.22 8.33a.91.91 0 0 0 .72 1.63l10.29-2 2.55 3.56.46.64a3.1 3.1 0 0 0 4.22.77l12.27-8.09a.812.812 0 0 0 .36-.8.819.819 0 0 0-.913-.715l-.037.005z" fill="#FFB400"/><path d="M91.32 198.151c36 16.27 72.72 30.77 109.86 44.08 37.14 13.31 74.69 25.49 112.44 37a2246.739 2246.739 0 0 0 56.85 16.46c4.75 1.33 9.52 2.59 14.28 3.88 2.42.62 4.68 1.33 7 2 2.32.67 4.56 1.53 6.82 2.33a101.908 101.908 0 0 1 45.69 33.67 115.189 115.189 0 0 1 14.29 24.92c.85 2.25 1.83 4.46 2.55 6.75l1.17 3.42 1 3.46.51 1.74.43 1.75.86 3.51.72 3.54c.25 1.18.48 2.36.65 3.55l.57 3.57.42 3.59.21 1.79.14 1.8.27 3.61c.26 4.803.26 9.617 0 14.42-.278 4.792-.86 9.561-1.74 14.28a97.61 97.61 0 0 1-3.76 13.77 112.016 112.016 0 0 1-13 25.58 115.47 115.47 0 0 1-8.86 11.42 123.905 123.905 0 0 1-10.16 10.21 113.458 113.458 0 0 1-23.77 16.15c-17.12 8.8-36.5 12.76-55.78 12.67a153.919 153.919 0 0 1-28.84-3c-2.39-.44-4.78-1-7.17-1.51-2.39-.51-4.78-1-7.16-1.6-4.75-1.19-9.53-2.26-14.26-3.59-19-5.05-37.74-10.9-56.37-17.17-18.63-6.27-37.09-13.12-55.4-20.28-18.31-7.16-36.5-14.69-54.42-22.79s-35.66-16.61-53-25.82a1.81 1.81 0 0 0-2.43.73c-.228.42-.278.913-.14 1.37.13.464.444.854.87 1.08 17.36 9.43 35.08 18.17 53 26.46a1158.03 1158.03 0 0 0 54.34 23.45c18.31 7.36 36.82 14.28 55.51 20.68 18.69 6.4 37.52 12.4 56.62 17.59 4.75 1.36 9.59 2.48 14.38 3.71 2.4.63 4.83 1.12 7.25 1.67 2.42.55 4.84 1.1 7.29 1.57a158.342 158.342 0 0 0 29.88 3.13 129.9 129.9 0 0 0 47.86-8.46 63.363 63.363 0 0 0 17.58 19.46l1.35.91 1.5-.65a128.8 128.8 0 0 0 28.21-16.75c3.67 4.89 12.47 15.41 25 22.86.462.278.991.423 1.53.42a3 3 0 0 0 1.54-5.57c-11.71-7-20.11-17.14-23.41-21.53 2.74-2.36 5.41-4.83 8-7.43l2.14-2.17-2.2-2.1c-.1-.1-9.7-9.36-15.76-18.88.28-.32.58-.63.86-1a120.848 120.848 0 0 0 9.29-12 118.41 118.41 0 0 0 13.75-26.82 104.707 104.707 0 0 0 4-14.68 119.152 119.152 0 0 0 1.86-15c.27-5.036.27-10.084 0-15.12l-.29-3.77-.15-1.88-.22-1.87-.46-3.75-.6-3.73c-.18-1.25-.42-2.48-.68-3.72l-.76-3.7-.91-3.66-.46-1.84-.53-1.81-1.07-3.62-1.23-3.58c-.76-2.4-1.79-4.71-2.69-7.07a121.028 121.028 0 0 0-15.1-26.2 110.218 110.218 0 0 0-21.65-21.17 108.842 108.842 0 0 0-26.65-14.29c-2.38-.84-4.73-1.78-7.16-2.43-2.43-.65-4.86-1.46-7.21-2.06l-8.67-2.32a89.995 89.995 0 0 1 5.94-13.22c2.46-4.32.31-9.18-4-11.65-4.31-2.47-9.17-1.59-11.63 2.72a113.319 113.319 0 0 0-7.72 17.36l-5.71-1.6a92.084 92.084 0 0 1 6-13.46c2.47-4.32.32-9.18-4-11.65-4.32-2.47-9.16-1.59-11.63 2.72a114.121 114.121 0 0 0-7.75 17.46l-5.38-1.55a92.023 92.023 0 0 1 6.08-13.61c2.46-4.32.31-9.18-4-11.65-4.31-2.47-9.17-1.59-11.63 2.72a112.975 112.975 0 0 0-7.76 17.48c-37.47-11.16-74.74-23-111.63-36-6.78-2.36-13.55-4.76-20.31-7.2 2.58-5.43 14-27.7 35.28-45.8a3 3 0 0 0-1.1-5.17l-20.52-6c13.12-10.62 29.78-19.58 50.22-22.55a3 3 0 1 0-.87-5.93c-24.39 3.53-43.48 15.11-57.4 27.33a2.563 2.563 0 0 0-.49.44 140.193 140.193 0 0 0-13.11 13.3 148.696 148.696 0 0 0-21.84 33.26 1396.66 1396.66 0 0 1-59.86-24.55 1.73 1.73 0 0 0-2.31 2.22c.168.426.494.77.91.96zm362.35 311.74a122.738 122.738 0 0 1-35.25 23.92 60.01 60.01 0 0 1-14-15.87c1.68-.76 3.34-1.54 5-2.38a119.507 119.507 0 0 0 25-16.94c1.91-1.72 3.78-3.47 5.59-5.28a125.646 125.646 0 0 0 13.66 16.55zm-81.61-237.33c.82-1.44 2-1.31 3.44-.49 1.44.82 2.59 2 1.77 3.46a96.993 96.993 0 0 0-6.44 14.37l-5.83-1.61a104.948 104.948 0 0 1 7.06-15.73zm-23-6.63c.82-1.44 2-1.31 3.45-.49 1.45.82 2.58 2 1.76 3.46a98.404 98.404 0 0 0-6.5 14.56l-5.8-1.65a105.254 105.254 0 0 1 7.03-15.88h.06zm-22.68-6.63c.82-1.44 2-1.31 3.44-.49 1.44.82 2.59 2 1.77 3.46a98.716 98.716 0 0 0-6.59 14.65l-5.78-1.69a105.438 105.438 0 0 1 7.12-15.93h.04zm-135.69-81l19.06 5.56a150.146 150.146 0 0 0-33 44.67c-6.187-2.26-12.36-4.557-18.52-6.89a147.597 147.597 0 0 1 32.42-43.3l.04-.04z" fill="#04294F"/><path d="M10.28 409.901c-.634.255-1.25.556-1.84.9a11.82 11.82 0 0 0-1.73 1.16 9.362 9.362 0 0 0-2.77 3.34 1.53 1.53 0 0 0 2.2 2l.27-.17a16.169 16.169 0 0 1 5.52-2.08 37.116 37.116 0 0 1 6.27-.71c2.12-.074 4.243.013 6.35.26 2.103.244 4.17.734 6.16 1.46h.11a1.56 1.56 0 0 0 1.73-2.47 14.574 14.574 0 0 0-6.77-4.25 23.18 23.18 0 0 0-7.78-1 22.544 22.544 0 0 0-7.72 1.56z" fill="#FFB400"/></svg>